<?xml version="1.0" encoding="UTF-8"?>
<svg version="1.1" xmlns="http://www.w3.org/2000/svg" width="50" height="50">
<path d="M0 0 C7.92 0 15.84 0 24 0 C24 1.65 24 3.3 24 5 C25.65 5 27.3 5 29 5 C29 11.6 29 18.2 29 25 C30.98 25 32.96 25 35 25 C35 31.27 35 37.54 35 44 C26.75 44 18.5 44 10 44 C10 43.34 10 42.68 10 42 C5.05 42 0.1 42 -5 42 C-5 29.79 -5 17.58 -5 5 C-3.35 5 -1.7 5 0 5 C0 3.35 0 1.7 0 0 Z M2 2 C2 3.65 2 5.3 2 7 C0.35 7 -1.3 7 -3 7 C-3 17.89 -3 28.78 -3 40 C1.29 40 5.58 40 10 40 C10 35.05 10 30.1 10 25 C15.61 25 21.22 25 27 25 C27 19.06 27 13.12 27 7 C19.41 7 11.82 7 4 7 C4 6.34 4 5.68 4 5 C9.94 5 15.88 5 22 5 C22 4.01 22 3.02 22 2 C15.4 2 8.8 2 2 2 Z M12 28 C11.9010706 30.16480797 11.870289 32.33293785 11.875 34.5 C11.87242188 35.6859375 11.86984375 36.871875 11.8671875 38.09375 C11.66789781 40.89259422 11.66789781 40.89259422 13 42 C14.40348735 42.09860131 15.81180477 42.13078937 17.21875 42.1328125 C18.06824219 42.13410156 18.91773438 42.13539062 19.79296875 42.13671875 C20.68628906 42.13285156 21.57960938 42.12898438 22.5 42.125 C23.83998047 42.13080078 23.83998047 42.13080078 25.20703125 42.13671875 C26.48126953 42.13478516 26.48126953 42.13478516 27.78125 42.1328125 C28.56564453 42.13168457 29.35003906 42.13055664 30.15820312 42.12939453 C32.01752988 42.20107442 32.01752988 42.20107442 33 41 C33.0989294 38.83519203 33.129711 36.66706215 33.125 34.5 C33.12757812 33.3140625 33.13015625 32.128125 33.1328125 30.90625 C33.33210219 28.10740578 33.33210219 28.10740578 32 27 C30.59651265 26.90139869 29.18819523 26.86921063 27.78125 26.8671875 C26.93175781 26.86589844 26.08226562 26.86460938 25.20703125 26.86328125 C24.31371094 26.86714844 23.42039062 26.87101562 22.5 26.875 C21.16001953 26.86919922 21.16001953 26.86919922 19.79296875 26.86328125 C18.51873047 26.86521484 18.51873047 26.86521484 17.21875 26.8671875 C16.0421582 26.86887939 16.0421582 26.86887939 14.84179688 26.87060547 C12.98247012 26.79892558 12.98247012 26.79892558 12 28 Z " fill="#878787" transform="translate(13,3)"/>
<path d="M0 0 C1.65 0 3.3 0 5 0 C5 2.64 5 5.28 5 8 C5.99 8.33 6.98 8.66 8 9 C8 9.66 8 10.32 8 11 C4.37 11 0.74 11 -3 11 C-2.67 10.01 -2.34 9.02 -2 8 C-1.34 8 -0.68 8 0 8 C0 5.36 0 2.72 0 0 Z " fill="#888888" transform="translate(33,32)"/>
<path d="M0 0 C1.32 0 2.64 0 4 0 C4 0.66 4 1.32 4 2 C2.68 2 1.36 2 0 2 C0 1.34 0 0.68 0 0 Z " fill="#888888" transform="translate(14,38)"/>
<path d="M0 0 C1.32 0 2.64 0 4 0 C4 0.66 4 1.32 4 2 C2.68 2 1.36 2 0 2 C0 1.34 0 0.68 0 0 Z " fill="#888888" transform="translate(14,33)"/>
<path d="M0 0 C1.32 0 2.64 0 4 0 C4 0.66 4 1.32 4 2 C2.68 2 1.36 2 0 2 C0 1.34 0 0.68 0 0 Z " fill="#888888" transform="translate(14,28)"/>
<path d="M0 0 C1.32 0 2.64 0 4 0 C4 0.66 4 1.32 4 2 C2.68 2 1.36 2 0 2 C0 1.34 0 0.68 0 0 Z " fill="#888888" transform="translate(32,23)"/>
<path d="M0 0 C1.32 0 2.64 0 4 0 C4 0.66 4 1.32 4 2 C2.68 2 1.36 2 0 2 C0 1.34 0 0.68 0 0 Z " fill="#888888" transform="translate(23,23)"/>
<path d="M0 0 C1.32 0 2.64 0 4 0 C4 0.66 4 1.32 4 2 C2.68 2 1.36 2 0 2 C0 1.34 0 0.68 0 0 Z " fill="#888888" transform="translate(14,23)"/>
<path d="M0 0 C1.32 0 2.64 0 4 0 C4 0.66 4 1.32 4 2 C2.68 2 1.36 2 0 2 C0 1.34 0 0.68 0 0 Z " fill="#888888" transform="translate(32,18)"/>
<path d="M0 0 C1.32 0 2.64 0 4 0 C4 0.66 4 1.32 4 2 C2.68 2 1.36 2 0 2 C0 1.34 0 0.68 0 0 Z " fill="#888888" transform="translate(23,18)"/>
<path d="M0 0 C1.32 0 2.64 0 4 0 C4 0.66 4 1.32 4 2 C2.68 2 1.36 2 0 2 C0 1.34 0 0.68 0 0 Z " fill="#888888" transform="translate(14,18)"/>
<path d="M0 0 C1.32 0 2.64 0 4 0 C4 0.66 4 1.32 4 2 C2.68 2 1.36 2 0 2 C0 1.34 0 0.68 0 0 Z " fill="#888888" transform="translate(32,13)"/>
<path d="M0 0 C1.32 0 2.64 0 4 0 C4 0.66 4 1.32 4 2 C2.68 2 1.36 2 0 2 C0 1.34 0 0.68 0 0 Z " fill="#888888" transform="translate(23,13)"/>
<path d="M0 0 C1.32 0 2.64 0 4 0 C4 0.66 4 1.32 4 2 C2.68 2 1.36 2 0 2 C0 1.34 0 0.68 0 0 Z " fill="#888888" transform="translate(14,13)"/>
</svg>
