<svg version="1.0" preserveAspectRatio="xMidYMid meet" viewBox="0 0 513.9786276715411 576" zoomAndPan="magnify" xmlns:xlink="http://www.w3.org/1999/xlink" xmlns="http://www.w3.org/2000/svg" style="max-height: 500px" width="513.9786276715411" height="576"><defs><filter id="6feed777c7" height="100%" width="100%" y="0%" x="0%"><feColorMatrix color-interpolation-filters="sRGB" values="0 0 0 0 1 0 0 0 0 1 0 0 0 0 1 0 0 0 1 0"/></filter><clipPath id="50fc357db2"><path clip-rule="nonzero" d="M 2 0.140625 L 513 0.140625 L 513 575.859375 L 2 575.859375 Z M 2 0.140625"/></clipPath><mask id="8d0b947251"><g filter="url(#6feed777c7)"><rect fill-opacity="0.47" height="691.2" y="-57.6" fill="#000000" width="1229.4" x="-102.45"/></g></mask><clipPath id="aba3534e35"><path clip-rule="nonzero" d="M 102 0.140625 L 161 0.140625 L 161 34 L 102 34 Z M 102 0.140625"/></clipPath><clipPath id="15c4342b72"><path clip-rule="nonzero" d="M 167 0.140625 L 226 0.140625 L 226 34 L 167 34 Z M 167 0.140625"/></clipPath><clipPath id="1b33a25d1b"><path clip-rule="nonzero" d="M 0.488281 433 L 143 433 L 143 575.859375 L 0.488281 575.859375 Z M 0.488281 433"/></clipPath><clipPath id="c427b5792b"><rect height="576" y="0" width="511" x="0"/></clipPath></defs><g clip-path="url(#50fc357db2)"><g mask="url(#8d0b947251)"><g transform="matrix(1, 0, 0, 1, 2, -0.000000000000058398)"><g clip-path="url(#c427b5792b)"><g clip-path="url(#aba3534e35)"><path fill-rule="nonzero" fill-opacity="1" d="M 146.078125 33.25 L 116.304688 33.25 C 108.460938 33.25 102.117188 26.90625 102.117188 19.066406 L 102.117188 14.324219 C 102.117188 6.484375 108.460938 0.140625 116.304688 0.140625 L 146.078125 0.140625 C 153.921875 0.140625 160.269531 6.484375 160.269531 14.324219 L 160.269531 19.066406 C 160.320312 26.90625 153.921875 33.25 146.078125 33.25 Z M 146.078125 33.25" fill="#373737"/></g><path fill-rule="nonzero" fill-opacity="1" d="M 502.160156 332.378906 C 494.988281 297.257812 469.859375 273.378906 433.226562 266.933594 C 405.464844 262.03125 373.578125 267.5 343.390625 282.402344 C 311.296875 298.238281 284.257812 322.941406 265.167969 353.835938 C 245.714844 385.398438 221.308594 413.144531 193.550781 435.578125 C 190.867188 432.535156 188.441406 429.339844 186.324219 425.984375 C 173.632812 405.921875 174.25 384.210938 175.695312 373.175781 C 190.453125 368.070312 206.707031 361.726562 209.132812 360.28125 C 248.554688 337.691406 279.046875 286.117188 283.898438 238.722656 C 284.570312 232.324219 281.472656 226.5 276.519531 223.25 L 291.742188 115.5625 C 295.558594 88.640625 287.511719 61.410156 269.65625 40.832031 C 257.738281 27.113281 242.207031 17.261719 225.074219 12.3125 C 216.613281 9.835938 207.738281 8.546875 198.710938 8.546875 L 198.710938 24.792969 C 206.605469 24.792969 214.394531 25.980469 221.773438 28.300781 C 235.394531 32.527344 247.78125 40.523438 257.375 51.507812 C 272.132812 68.476562 278.789062 91.011719 275.644531 113.292969 L 260.265625 222.21875 C 256.394531 224.125 253.300781 227.476562 251.855469 231.808594 C 246.59375 247.488281 237.148438 274.253906 235.964844 276.679688 C 221 306.539062 196.285156 333.71875 163.261719 341.148438 C 163.261719 341.148438 163.210938 341.148438 163.210938 341.148438 C 159.855469 341.921875 156.347656 341.921875 152.992188 341.148438 C 152.992188 341.148438 152.941406 341.148438 152.941406 341.148438 C 119.917969 333.667969 95.148438 306.539062 80.238281 276.679688 C 79.050781 274.253906 69.609375 247.488281 64.347656 231.808594 C 62.902344 227.53125 59.804688 224.125 55.933594 222.21875 L 40.507812 113.292969 C 37.359375 91.011719 44.015625 68.476562 58.773438 51.507812 C 70.539062 37.945312 86.480469 29.023438 103.921875 25.980469 C 108.359375 25.207031 112.898438 24.792969 117.441406 24.792969 L 117.441406 8.546875 C 112.539062 8.546875 107.636719 8.90625 102.890625 9.679688 C 81.167969 13.085938 61.199219 24.019531 46.542969 40.882812 C 28.691406 61.410156 20.640625 88.640625 24.460938 115.613281 L 39.683594 223.300781 C 34.726562 226.550781 31.683594 232.378906 32.304688 238.773438 C 37.152344 286.21875 67.597656 337.742188 107.070312 360.332031 C 109.753906 361.878906 129.207031 369.410156 144.941406 374.722656 C 143.550781 391.121094 144.789062 417.011719 160.320312 441.820312 C 162.898438 445.945312 165.738281 449.863281 168.886719 453.578125 C 167.335938 454.609375 165.738281 455.589844 164.191406 456.570312 C 154.488281 462.65625 144.582031 467.96875 134.777344 472.402344 C 139.421875 481.429688 142.207031 491.535156 142.570312 502.316406 C 155.160156 496.847656 167.800781 490.195312 180.339844 482.355469 C 184.417969 479.828125 188.441406 477.199219 192.363281 474.464844 C 211.402344 487.359375 235.859375 496.4375 265.476562 501.542969 C 304.949219 508.347656 344.628906 506.234375 380.285156 495.402344 C 413.410156 485.296875 442.566406 468.019531 464.496094 445.378906 C 496.332031 412.523438 510.109375 371.316406 502.160156 332.378906 Z M 442.566406 424.285156 C 402.472656 465.644531 338.179688 483.335938 270.585938 471.628906 C 249.84375 468.070312 232.351562 462.398438 218.265625 454.710938 C 246.386719 430.9375 271.152344 402.160156 291.121094 369.820312 C 326.261719 312.9375 387.820312 289.78125 427.960938 296.898438 C 444.9375 299.886719 466.453125 309.53125 472.335938 338.515625 C 478.21875 367.398438 467.382812 398.652344 442.566406 424.285156 Z M 442.566406 424.285156" fill="#373737"/><g clip-path="url(#15c4342b72)"><path fill-rule="nonzero" fill-opacity="1" d="M 181.269531 33.25 L 211.042969 33.25 C 218.882812 33.25 225.230469 26.90625 225.230469 19.066406 L 225.230469 14.324219 C 225.230469 6.484375 218.882812 0.140625 211.042969 0.140625 L 181.269531 0.140625 C 173.425781 0.140625 167.078125 6.484375 167.078125 14.324219 L 167.078125 19.066406 C 167.078125 26.90625 173.425781 33.25 181.269531 33.25 Z M 181.269531 33.25" fill="#373737"/></g><g clip-path="url(#1b33a25d1b)"><path fill-rule="nonzero" fill-opacity="1" d="M 142.519531 502.367188 C 142.15625 491.640625 139.371094 481.480469 134.726562 472.453125 C 122.960938 449.605469 99.125 433.980469 71.621094 433.980469 C 32.40625 433.980469 0.621094 465.75 0.621094 504.945312 C 0.621094 544.140625 32.40625 575.859375 71.621094 575.859375 C 110.835938 575.859375 142.570312 544.089844 142.570312 504.945312 C 142.570312 504.070312 142.519531 503.191406 142.519531 502.367188 Z M 71.570312 543.675781 C 50.15625 543.675781 32.765625 526.296875 32.765625 504.894531 C 32.765625 483.492188 50.105469 466.109375 71.570312 466.109375 C 85.191406 466.109375 97.214844 473.175781 104.128906 483.800781 C 108.050781 489.886719 110.371094 497.105469 110.371094 504.894531 C 110.371094 508.039062 110.011719 511.082031 109.289062 514.023438 C 105.160156 531.042969 89.835938 543.675781 71.570312 543.675781 Z M 71.570312 543.675781" fill="#373737"/></g><path fill-rule="nonzero" fill-opacity="1" d="M 89.527344 504.894531 C 89.527344 510.722656 86.738281 515.878906 82.457031 519.128906 C 79.414062 521.449219 75.644531 522.839844 71.570312 522.839844 C 61.664062 522.839844 53.613281 514.796875 53.613281 504.894531 C 53.613281 494.992188 61.664062 486.945312 71.570312 486.945312 C 74.460938 486.945312 77.140625 487.617188 79.566406 488.800781 C 85.5 491.792969 89.527344 497.878906 89.527344 504.894531 Z M 89.527344 504.894531" fill="#373737"/></g></g></g></g></svg>