<?xml version="1.0" encoding="UTF-8"?>
<svg version="1.1" xmlns="http://www.w3.org/2000/svg" width="50" height="50">
<path d="M0 0 C0 1.32 0 2.64 0 4 C-1.65 4 -3.3 4 -5 4 C-2.85802114 15.33051226 -2.85802114 15.33051226 3 25 C5.87237733 25.58442963 5.87237733 25.58442963 9 25 C14.08233228 19.33682974 16.0495073 11.41384305 17 4 C15.35 4 13.7 4 12 4 C12 2.68 12 1.36 12 0 C18.875 0.875 18.875 0.875 20 2 C20.73284201 12.07657757 17.5129657 19.75731343 12 28 C9.57693959 32.17769035 8.17303177 35.14156167 9 40 C10.68169647 43.1009044 10.68169647 43.1009044 14 45 C17.79413643 45.7053567 21.2076696 45.7231621 25 45 C28.41311667 42.47429367 29.66637768 41.00086696 31 37 C30.360625 36.690625 29.72125 36.38125 29.0625 36.0625 C27 35 27 35 26 34 C25.54285714 26.91428571 25.54285714 26.91428571 27 24 C30.26205554 22.36897223 33.43555389 22.48018494 37 23 C39 24 39 24 40 26 C40.53623268 29.67702409 40.76822008 32.82937893 38.6875 36 C37 37 37 37 34 37 C33.9175 38.0725 33.835 39.145 33.75 40.25 C32.9371841 44.31407952 32.22905115 45.53072559 29 48 C23.53073544 49.82308819 16.3486271 50.24801231 10.8828125 48.2109375 C8.22701163 46.48004241 6.76018191 44.64027286 5 42 C4.7525 40.2365625 4.7525 40.2365625 4.5 38.4375 C4.34152243 34.9428808 4.34152243 34.9428808 2 33 C1.731875 32.29875 1.46375 31.5975 1.1875 30.875 C0.15216374 28.36839643 -0.94819576 26.48841535 -2.4375 24.25 C-7.04475557 16.98471238 -8.4067328 10.54138887 -8 2 C-4.91190305 0.23537317 -3.76687864 0 0 0 Z M29 27 C28.83333333 30 28.83333333 30 29 33 C30.11836224 34.34404775 30.11836224 34.34404775 33 34.125 C35.88163776 34.34404775 35.88163776 34.34404775 37 33 C37.16666667 30 37.16666667 30 37 27 C35.88163776 25.65595225 35.88163776 25.65595225 33 25.875 C30.11836224 25.65595225 30.11836224 25.65595225 29 27 Z M5 28 C5 28.99 5 29.98 5 31 C5.66 31 6.32 31 7 31 C6.67 30.01 6.34 29.02 6 28 C5.67 28 5.34 28 5 28 Z " fill="#898989" transform="translate(10,0)"/>
<path d="M0 0 C1.98 0 3.96 0 6 0 C6 1.98 6 3.96 6 6 C4.02 6 2.04 6 0 6 C0 4.02 0 2.04 0 0 Z " fill="#868686" transform="translate(40,27)"/>
</svg>
