<?xml version="1.0" encoding="UTF-8"?>
<svg version="1.1" xmlns="http://www.w3.org/2000/svg" width="791" height="315">
<path d="M0 0 C21.11442867 16.77154212 34.17306956 38.64239906 37.47427344 65.53429615 C37.80279325 68.85175396 37.81353092 72.14401225 37.81448364 75.4763031 C37.81604363 76.21747236 37.81760362 76.95864162 37.81921089 77.72227055 C37.82316991 80.18262498 37.82005126 82.64291669 37.81689453 85.10327148 C37.81825075 86.87620581 37.82003193 88.64913985 37.82220459 90.42207336 C37.82675028 95.21904151 37.82500178 100.01598807 37.8218255 104.81295657 C37.81928987 109.83331786 37.82164254 114.85367733 37.82321167 119.8740387 C37.82502867 128.29615612 37.82263813 136.71826477 37.81787109 145.14038086 C37.81241701 154.88918999 37.81420131 164.63797824 37.8196975 174.38678688 C37.82422726 182.75547383 37.82488022 191.12415448 37.82225883 199.49284226 C37.82069689 204.4922403 37.82050028 209.49162851 37.82379532 214.49102592 C37.82667246 219.18352048 37.82470128 223.87598793 37.81890106 228.56847954 C37.81757315 230.29511469 37.81796811 232.02175211 37.82016373 233.74838638 C37.82287369 236.09481641 37.81949618 238.44115808 37.81448364 240.7875824 C37.8139181 242.76168673 37.8139181 242.76168673 37.81334114 244.77567196 C37.6875 247.6875 37.6875 247.6875 36.6875 248.6875 C34.28421471 248.78516542 31.90970648 248.81746828 29.50596619 248.80775452 C28.36537344 248.80903615 28.36537344 248.80903615 27.20173842 248.81034368 C24.6343875 248.81200078 22.06710083 248.80647339 19.49975586 248.80102539 C17.66711936 248.80074354 15.83448275 248.80090121 14.00184631 248.8014679 C9.01031938 248.80175596 4.01881625 248.79585777 -0.97270513 248.78889394 C-6.18309106 248.78266191 -11.39347749 248.78205672 -16.60386658 248.78086853 C-26.47781025 248.77775477 -36.35174291 248.76954078 -46.22568172 248.75951904 C-57.46370001 248.74835929 -68.70171881 248.7428478 -79.93974125 248.73782361 C-103.06400029 248.7273582 -126.18824953 248.70975789 -149.3125 248.6875 C-149.40615735 224.58209861 -149.4765838 200.4767247 -149.51974869 176.37117767 C-149.54032825 165.17723997 -149.56836037 153.98341567 -149.61425781 142.78955078 C-149.65426703 133.02705921 -149.67996624 123.26464982 -149.68885398 113.50207853 C-149.69404496 108.33822162 -149.70614862 103.17459969 -149.73542023 98.01081848 C-149.76281242 93.1385568 -149.77089748 88.26662421 -149.76493073 83.39429283 C-149.76602042 81.61750683 -149.77383122 79.84070844 -149.7893219 78.06398964 C-150.00654465 51.83634847 -141.11998312 28.5334694 -122.97021484 9.35400391 C-90.37465381 -23.41437601 -37.18154116 -26.71527186 0 0 Z M-124.1875 15.5625 C-141.1233765 35.48336401 -146.99966344 58.66613138 -146.76660156 84.16259766 C-146.7653722 85.95699211 -146.76591701 87.75138849 -146.76806259 89.54578209 C-146.76895468 94.29153074 -146.74600608 99.03686459 -146.71762085 103.78251648 C-146.69460607 108.25826119 -146.69375577 112.73391204 -146.69091797 117.2097168 C-146.67004366 130.24403144 -146.61419862 143.27827117 -146.5625 156.3125 C-146.48 185.47625 -146.3975 214.64 -146.3125 244.6875 C-86.5825 244.6875 -26.8525 244.6875 34.6875 244.6875 C34.72875 217.17375 34.77 189.66 34.8125 161.3125 C34.83070801 152.65338379 34.84891602 143.99426758 34.86767578 135.07275391 C34.8743683 127.25065692 34.8743683 127.25065692 34.87838745 119.42855835 C34.8802364 115.96848946 34.88767352 112.50848314 34.89865112 109.0484314 C34.9125337 104.61288968 34.9164524 100.17743683 34.91364455 95.74187541 C34.91423029 94.12779959 34.91809768 92.51372013 34.92593026 90.89966321 C34.96433454 82.58876754 34.69798008 74.40110927 33.80612183 66.13314819 C33.72957811 65.41506568 33.6530344 64.69698316 33.57417119 63.95714056 C31.33738302 45.13165278 23.45500968 28.63556708 10.6875 14.6875 C9.9553125 13.88570312 9.223125 13.08390625 8.46875 12.2578125 C-6.8588953 -3.77145036 -28.61521311 -13.77351784 -50.84375 -14.515625 C-79.22941182 -14.96275542 -104.5277127 -5.24975759 -124.1875 15.5625 Z " fill="#2F2F29" transform="translate(178.3125,41.3125)"/>
<path d="M0 0 C0.3125 2.3125 0.3125 2.3125 0 5 C-2.3832946 6.81883009 -3.95818337 8 -7 8 C-9.49715886 13.32727223 -10.90282881 19.27668633 -9 25 C-8.01607631 26.83152786 -8.01607631 26.83152786 -6.78515625 28.6015625 C-6.34623047 29.25640625 -5.90730469 29.91125 -5.45507812 30.5859375 C-4.76575195 31.59527344 -4.76575195 31.59527344 -4.0625 32.625 C-3.60681641 33.305625 -3.15113281 33.98625 -2.68164062 34.6875 C-0.8975691 37.33095591 0.7386906 39.7386906 3 42 C3.33 42.66 3.66 43.32 4 44 C4.5775 44.103125 5.155 44.20625 5.75 44.3125 C13.44564119 46.66394592 19.03849066 57.49753215 23.09765625 63.97265625 C25.11901613 67.18939938 27.16999982 70.38334376 29.25 73.5625 C30.21679688 75.04943359 30.21679688 75.04943359 31.203125 76.56640625 C32.93744074 79.20375786 32.93744074 79.20375786 36 81 C38.18336668 81.2786158 38.18336668 81.2786158 40.5 81.1875 C41.66015625 81.17783203 41.66015625 81.17783203 42.84375 81.16796875 C45.18348849 81.0730565 45.18348849 81.0730565 48 80 C49.10846366 77.69111957 49.10846366 77.69111957 50 75 C52.56862015 69.4752135 55.34754453 64.11786702 58.6953125 59.0234375 C59.63822974 57.56106884 60.5221667 56.06009993 61.3671875 54.5390625 C64.93919941 48.41837182 64.93919941 48.41837182 68.08984375 47.17578125 C71.02020123 46.76775679 73.31767063 46.65883531 76 48 C78.25091907 51.3763786 78.46014959 54.00444365 78 58 C76.47378293 61.22493911 74.52041333 64.14766077 72.5625 67.125 C71.37709608 68.97931281 70.19360798 70.8348513 69.01171875 72.69140625 C68.37024902 73.69316895 67.7287793 74.69493164 67.06787109 75.72705078 C62.85510646 82.39485747 58.81880335 89.1718603 54.75149536 95.92901611 C53.68777107 97.69470466 52.62142421 99.45878654 51.5546875 101.22265625 C50.94093262 102.24109619 50.32717773 103.25953613 49.69482422 104.30883789 C45.11141424 111.58670135 45.11141424 111.58670135 41 113 C33.49615056 110.49871685 28.96352756 101.15155701 24.8671875 94.84765625 C23.30597045 92.46663694 21.69144722 90.16370966 20 87.875 C18 85 18 85 18 83 C17.01 82.67 16.02 82.34 15 82 C14.28197374 80.35480685 13.62132947 78.6840938 13 77 C12.06916337 75.57237505 11.08866713 74.17615411 10.06640625 72.8125 C-0.77427773 57.94810285 -0.77427773 57.94810285 -2.26953125 47.94140625 C-3.64455649 42.40453992 -7.42389143 38.31872789 -11 34 C-14.90952794 28.9630733 -16.56406968 24.42997219 -17 18 C-16.11063999 10.99628993 -13.24355338 6.71256064 -8 2 C-4.90814093 0.08133647 -3.84719307 0 0 0 Z " fill="#010102" transform="translate(80,86)"/>
<path d="M0 0 C1.65 0 3.3 0 5 0 C5.72492332 9.35927791 6.14256667 18.60644064 6 28 C20.32613386 24.6819581 35.10565253 21.15117091 48.0546875 13.98046875 C53.32145719 11.32593222 59.46371694 11.18492205 65.15234375 12.49609375 C71.2422285 14.56501813 76.01398983 17.91790269 79.375 23.5 C82.15689557 29.67160025 82.11696752 36.93529571 80.33984375 43.40234375 C77.71571932 49.32082352 73.20738199 53.65673746 67.2578125 56.1484375 C63.5314916 57.12246383 60.07092717 57.2996394 56.25 57.25 C55.11316772 57.24202393 55.11316772 57.24202393 53.95336914 57.23388672 C46.76637133 57.12142305 39.60460642 56.65041199 32.4375 56.125 C31.34405273 56.04668945 30.25060547 55.96837891 29.12402344 55.88769531 C12.93952271 54.59471867 12.93952271 54.59471867 8.1875 50.6875 C7.465625 49.800625 6.74375 48.91375 6 48 C5.278125 47.154375 4.55625 46.30875 3.8125 45.4375 C1.5269949 42.3638897 0.20759769 39.62279306 -1 36 C-5.58285502 35.82593363 -10.16486293 35.71921515 -14.75 35.625 C-16.05195312 35.57472656 -17.35390625 35.52445313 -18.6953125 35.47265625 C-22.22600894 35.41805785 -25.51530165 35.42302109 -29 36 C-31.85188525 38.69646688 -31.85188525 38.69646688 -33 42 C-37.29591571 45.09705551 -40.7306072 45.41634453 -45.8125 44.65234375 C-49.43774881 43.57124277 -51.37161213 41.69409757 -54 39 C-55.9737173 35.05256539 -55.43592997 30.3032516 -55 26 C-53.08380132 22.32089854 -51.34627518 21.21048099 -47.8125 19.0625 C-42.96946437 17.71280155 -39.61964697 18.07082158 -35 20 C-31.80014695 22.5998806 -30.30116668 24.09649995 -29 28 C-26.23382437 29.38308781 -23.98982 29.11210196 -20.8984375 29.09765625 C-19.80708496 29.09515869 -18.71573242 29.09266113 -17.59130859 29.09008789 C-15.50423584 29.07643188 -15.50423584 29.07643188 -13.375 29.0625 C-8.96125 29.041875 -4.5475 29.02125 0 29 C0 19.43 0 9.86 0 0 Z M39.81787109 24.1796875 C36.31113839 25.7620971 32.66267037 26.84015438 29 28 C28.38253906 28.33257812 27.76507813 28.66515625 27.12890625 29.0078125 C24.4955224 30.23511433 22.0570379 30.62414954 19.1875 31.0625 C18.13433594 31.22621094 17.08117187 31.38992187 15.99609375 31.55859375 C15.00738281 31.70425781 14.01867187 31.84992188 13 32 C11.84177734 32.17208984 11.84177734 32.17208984 10.66015625 32.34765625 C9.10790164 32.57303473 7.55414795 32.78807073 6 33 C6.478425 38.02346252 7.77985423 41.10192881 11 45 C16.32051245 48.62760305 20.50047906 49.70208471 26.86328125 50.1171875 C27.69530563 50.18285919 28.52733002 50.24853088 29.38456726 50.31619263 C31.13621193 50.45025989 32.88852429 50.5758474 34.64135742 50.69335938 C37.29641358 50.87390611 39.94735121 51.08721266 42.59960938 51.3046875 C57.14032529 52.81234715 57.14032529 52.81234715 70.4375 47.875 C74.62807702 43.173377 76.35601391 38.77023225 76 32.4375 C75.24155099 27.71554325 73.36490354 24.3740473 70 21 C65.90575085 18.04833201 61.99815735 17.3139657 57.04296875 17.44140625 C50.92049537 18.56530059 45.41528033 21.54496137 39.81787109 24.1796875 Z M-49 26 C-50.1887111 31.60112425 -50.1887111 31.60112425 -49 37 C-47.25 38.5 -47.25 38.5 -45 39 C-42.76529595 38.21690533 -42.76529595 38.21690533 -41 37 C-41.78375 36.855625 -42.5675 36.71125 -43.375 36.5625 C-46 35 -46 35 -46.77734375 32.86328125 C-47.26835609 30.58025309 -47.68112401 28.31304073 -48 26 C-48.33 26 -48.66 26 -49 26 Z M-36 27 C-36.66 27.66 -37.32 28.32 -38 29 C-36.68 28.67 -35.36 28.34 -34 28 C-34.66 27.67 -35.32 27.34 -36 27 Z M-39 30 C-38 33 -38 33 -38 33 Z M-43 31 C-43 31.66 -43 32.32 -43 33 C-42.01 32.67 -41.02 32.34 -40 32 C-40.99 31.67 -41.98 31.34 -43 31 Z M-32 31 C-32 31.99 -32 32.98 -32 34 C-31.34 34 -30.68 34 -30 34 C-30 33.01 -30 32.02 -30 31 C-30.66 31 -31.32 31 -32 31 Z M-38 35 C-36.515 35.99 -36.515 35.99 -35 37 C-35 36.34 -35 35.68 -35 35 C-35.99 35 -36.98 35 -38 35 Z M-44 39 C-44 39.33 -44 39.66 -44 40 C-42.35 40 -40.7 40 -39 40 C-39 39.67 -39 39.34 -39 39 C-40.65 39 -42.3 39 -44 39 Z " fill="#020203" transform="translate(118,200)"/>
<path d="M0 0 C0.66 0 1.32 0 2 0 C2.44279297 0.86052979 2.88558594 1.72105957 3.34179688 2.60766602 C5.0255854 5.87923304 6.71084123 9.15004252 8.39648438 12.4206543 C9.11822303 13.82149793 9.8395924 15.22253191 10.56054688 16.6237793 C15.62272265 26.46179269 20.76709946 36.25169791 26 46 C31.38896921 37.39549935 35.97343704 28.42186308 40.54370117 19.36889648 C47.53396603 5.54719676 47.53396603 5.54719676 52 0 C52.33 0 52.66 0 53 0 C53.09062965 1.07209465 53.09062965 1.07209465 53.18309021 2.16584778 C53.7563636 8.94659451 54.32997234 15.7273128 54.90394497 22.50800037 C55.19892091 25.99286714 55.49377336 29.47774426 55.78833008 32.96264648 C56.12803592 36.98164046 56.46830317 41.00058674 56.80859375 45.01953125 C56.96490517 46.87019951 56.96490517 46.87019951 57.12437439 48.758255 C57.72459526 55.84122382 58.34618679 62.92177115 59 70 C56.69 70 54.38 70 52 70 C52.01667725 69.41259033 52.03335449 68.82518066 52.05053711 68.2199707 C52.17538018 59.94078148 51.51012134 51.78305402 50.77319336 43.54614258 C50.56139134 41.17508893 50.3573027 38.80346202 50.15429688 36.43164062 C50.02128155 34.90621085 49.88783341 33.38081874 49.75390625 31.85546875 C49.6934462 31.15536179 49.63298615 30.45525482 49.57069397 29.7339325 C49.21433822 25.78482395 48.70431526 21.90202043 48 18 C47.319375 19.7015625 47.319375 19.7015625 46.625 21.4375 C45 25 45 25 43 26 C42.29518153 27.65089465 41.63617975 29.3214597 41 31 C40.00915981 32.9968376 38.99414457 34.98178244 37.9609375 36.95703125 C37.38085938 38.06884766 36.80078125 39.18066406 36.203125 40.32617188 C35.59984375 41.47666016 34.9965625 42.62714844 34.375 43.8125 C33.76398438 44.98232422 33.15296875 46.15214844 32.5234375 47.35742188 C31.01775034 50.2394012 29.50986725 53.12020905 28 56 C27.01 56 26.02 56 25 56 C24.66790527 55.3608667 24.33581055 54.7217334 23.99365234 54.06323242 C22.4552366 51.10406332 20.91512579 48.14577944 19.375 45.1875 C18.85292969 44.18267578 18.33085937 43.17785156 17.79296875 42.14257812 C14.2728738 35.38486497 10.67355547 28.67552106 7 22 C6.01 22.33 5.02 22.66 4 23 C3.5672713 27.94338827 3.14025581 32.88722674 2.71826172 37.83154297 C2.57427898 39.50940891 2.4288037 41.18714754 2.28173828 42.86474609 C1.26370526 53.9654385 1.26370526 53.9654385 0.96875 65.1015625 C0.9790625 66.38804687 0.989375 67.67453125 1 69 C0 70 0 70 -3.0625 70.0625 C-4.031875 70.041875 -5.00125 70.02125 -6 70 C-5.21135457 58.28187036 -4.24597075 46.57926995 -3.27050781 34.87548828 C-2.99884734 31.61114936 -2.72984743 28.34659777 -2.4609375 25.08203125 C-2.28662024 22.98436154 -2.11214661 20.88670482 -1.9375 18.7890625 C-1.85830322 17.82433014 -1.77910645 16.85959778 -1.69750977 15.8656311 C-1.25209922 10.55640046 -0.70102361 5.2817166 0 0 Z M4 16 C4 17.32 4 18.64 4 20 C4.66 19.67 5.32 19.34 6 19 C5.34 18.01 4.68 17.02 4 16 Z " fill="#333228" transform="translate(293,122)"/>
<path d="M0 0 C0 10.89 0 21.78 0 33 C0.99 32.505 0.99 32.505 2 32 C4.48099734 31.91350549 6.93344928 31.88434946 9.4140625 31.90234375 C10.14370209 31.9037587 10.87334167 31.90517365 11.62509155 31.90663147 C13.95843585 31.91223469 16.29168464 31.92478765 18.625 31.9375 C20.20572778 31.94251459 21.78645707 31.94707757 23.3671875 31.95117188 C27.24482854 31.96220516 31.12239807 31.97947189 35 32 C35.495 30.515 35.495 30.515 36 29 C36.33 29.33 36.66 29.66 37 30 C37.33 21.42 37.66 12.84 38 4 C37.34 3.67 36.68 3.34 36 3 C36.33 2.01 36.66 1.02 37 0 C39.31 0 41.62 0 44 0 C44 22.77 44 45.54 44 69 C41.69 69 39.38 69 37 69 C37 58.11 37 47.22 37 36 C36.01 36.33 35.02 36.66 34 37 C31.41669771 37.15322359 28.85507761 37.25706889 26.26953125 37.31640625 C25.51911057 37.33718735 24.76868988 37.35796844 23.99552917 37.37937927 C21.60127816 37.44469926 19.20691861 37.50367792 16.8125 37.5625 C15.18813987 37.60570193 13.56379067 37.64931676 11.93945312 37.69335938 C7.95974498 37.8011389 3.97995299 37.90034215 0 38 C0 48.23 0 58.46 0 69 C-2.31 69 -4.62 69 -7 69 C-7 46.89 -7 24.78 -7 2 C-7.66 1.67 -8.32 1.34 -9 1 C-7 0 -7 0 0 0 Z " fill="#312F26" transform="translate(364,27)"/>
<path d="M0 0 C2.31 0 4.62 0 7 0 C6.67 10.56 6.34 21.12 6 32 C18.87 32 31.74 32 45 32 C44.67 21.44 44.34 10.88 44 0 C46.64 0 49.28 0 52 0 C51.83773926 1.06984131 51.67547852 2.13968262 51.50830078 3.24194336 C50.80958822 8.86546249 50.85673579 14.46961567 50.8671875 20.12890625 C50.86623077 21.27737534 50.86527405 22.42584442 50.86428833 23.6091156 C50.86361042 26.02709 50.86543748 28.44506625 50.86962891 30.86303711 C50.87498754 34.55391541 50.86966812 38.2446723 50.86328125 41.93554688 C50.863942 44.29166693 50.86522311 46.64778692 50.8671875 49.00390625 C50.86516327 50.10199112 50.86313904 51.20007599 50.86105347 52.33143616 C50.87729311 57.66237209 51.061163 62.7487593 52 68 C48.535 68.495 48.535 68.495 45 69 C43.84240199 65.52720596 43.97739517 63.01961176 44.12109375 59.36328125 C44.16419678 58.19321533 44.2072998 57.02314941 44.25170898 55.81762695 C44.34367554 53.58758911 44.34367554 53.58758911 44.4375 51.3125 C44.623125 46.589375 44.80875 41.86625 45 37 C32.13 37 19.26 37 6 37 C6.495 52.345 6.495 52.345 7 68 C5 69 5 69 0 68 C0 45.56 0 23.12 0 0 Z " fill="#34322A" transform="translate(287,220)"/>
<path d="M0 0 C31 0 31 0 40 4 C44.16971111 8.16971111 45.80166308 11.98357463 46.375 17.8125 C46.21336646 23.16661088 44.20329549 27.61561173 40.57421875 31.54296875 C34.42400038 36.96215341 28.70922962 37.33208148 20.875 37.5625 C19.08059745 37.62248358 17.28631254 37.68612819 15.4921875 37.75390625 C14.70183105 37.77783447 13.91147461 37.8017627 13.09716797 37.82641602 C10.80747519 37.93256687 10.80747519 37.93256687 8 39 C6.59087904 41.81824192 6.88816447 44.17251282 6.90234375 47.3203125 C6.90556641 48.57714844 6.90878906 49.83398438 6.91210938 51.12890625 C6.92048828 52.44761719 6.92886719 53.76632812 6.9375 55.125 C6.94251511 56.46484211 6.94707799 57.804686 6.95117188 59.14453125 C6.96298914 62.42973206 6.97946383 65.71484397 7 69 C4.69 68.67 2.38 68.34 0 68 C0 45.56 0 23.12 0 0 Z M6 5 C6 14.57 6 24.14 6 34 C9.3 33.896875 12.6 33.79375 16 33.6875 C17.02351563 33.66260498 18.04703125 33.63770996 19.1015625 33.61206055 C26.04762816 33.33585767 32.42133406 32.71090522 37.4375 27.4375 C40.48923407 22.67679486 40.77239769 18.59559213 40 13 C38.02471007 9.11262943 35.0430163 6.57708224 31 5 C28.19402361 4.72558573 28.19402361 4.72558573 25.140625 4.8046875 C24.13547852 4.80968262 23.13033203 4.81467773 22.09472656 4.81982422 C20.8259668 4.83803223 19.55720703 4.85624023 18.25 4.875 C12.18625 4.936875 12.18625 4.936875 6 5 Z " fill="#3A372E" transform="translate(464,220)"/>
<path d="M0 0 C0.33 0 0.66 0 1 0 C1.88809097 3.80610417 2.1346183 7.34497067 2.125 11.25 C2.12757813 12.30703125 2.13015625 13.3640625 2.1328125 14.453125 C2 17 2 17 1 18 C-1.378078 18.09764835 -3.72707128 18.12997133 -6.10560608 18.12025452 C-6.85783414 18.12110894 -7.6100622 18.12196337 -8.38508505 18.12284368 C-10.92479715 18.12450074 -13.4644443 18.11897345 -16.00415039 18.11352539 C-17.81708271 18.11324354 -19.63001514 18.11340121 -21.44294739 18.1139679 C-26.38075713 18.11425596 -31.31854281 18.10835781 -36.25634694 18.10139394 C-41.41067843 18.09516186 -46.56501042 18.09455672 -51.71934509 18.09336853 C-61.48704092 18.09025478 -71.25472562 18.08204081 -81.02241653 18.07201904 C-92.13951812 18.06085925 -103.25662022 18.05534779 -114.37372601 18.05032361 C-137.24915686 18.03985823 -160.12457781 18.02225795 -183 18 C-184.41778293 15.16443413 -183.86257622 13.0091294 -183.5625 9.875 C-183.46066406 8.77929688 -183.35882813 7.68359375 -183.25390625 6.5546875 C-183.17011719 5.71164062 -183.08632812 4.86859375 -183 4 C-182.67 4 -182.34 4 -182 4 C-182 7.3 -182 10.6 -182 14 C-122.27 14 -62.54 14 -1 14 C-0.67 9.38 -0.34 4.76 0 0 Z " fill="#36342F" transform="translate(214,272)"/>
<path d="M0 0 C6.3147983 8.03844051 6.88028178 16.06682037 6 26 C4.02328058 32.620306 0.71293304 37.19137797 -5 41 C-11.45570074 44.03482277 -18.06671599 43.91364584 -24.8125 41.8125 C-30.90786148 38.34651014 -34.68800453 35.28351795 -37.30859375 28.7265625 C-39.4281691 20.36801112 -38.90659329 11.67366538 -35 4 C-31.47247544 -1.54325289 -26.9178859 -4.29754599 -20.625 -5.8125 C-12.60144621 -6.2275114 -6.20518416 -5.52923817 0 0 Z M-29.25 4.3125 C-33.47326958 10.79823542 -33.80452693 17.43148742 -33 25 C-31.06865789 31.45172661 -27.51391565 34.95021587 -21.75 38.3125 C-16.70961263 39.57259684 -11.9052008 38.84675591 -7.1875 36.75 C-3.08044798 33.46435838 -0.65463194 29.96389581 1 25 C1.83900572 17.38065736 1.78994772 10.27328636 -3 4 C-7.91483013 -0.67508232 -11.94063666 -1.3007231 -18.49609375 -1.21484375 C-23.21945552 -0.8095631 -26.002611 0.97490575 -29.25 4.3125 Z " fill="#2E2D26" transform="translate(389,225)"/>
<path d="M0 0 C11.55 0 23.1 0 35 0 C35.495 3.465 35.495 3.465 36 7 C35.13487793 6.84152588 34.26975586 6.68305176 33.37841797 6.51977539 C30.20209848 6.0310932 27.15434061 5.79938342 23.9453125 5.68359375 C22.83671875 5.64169922 21.728125 5.59980469 20.5859375 5.55664062 C19.44382812 5.51732422 18.30171875 5.47800781 17.125 5.4375 C15.9596875 5.39431641 14.794375 5.35113281 13.59375 5.30664062 C10.72929158 5.20098437 7.86466045 5.10002901 5 5 C5 10.61 5 16.22 5 22 C12.92 21.67 20.84 21.34 29 21 C29.33 22.65 29.66 24.3 30 26 C26.88248002 26.93714922 24.25850091 27.05686895 21.015625 26.87890625 C20.08105469 26.83056641 19.14648438 26.78222656 18.18359375 26.73242188 C17.21550781 26.67634766 16.24742187 26.62027344 15.25 26.5625 C14.26644531 26.51029297 13.28289062 26.45808594 12.26953125 26.40429688 C9.84606217 26.27488833 7.42298633 26.13815273 5 26 C5.33 31.28 5.66 36.56 6 42 C16.45915261 43.22249836 26.53243061 42.71170712 37 42 C37.495 43.98 37.495 43.98 38 46 C37.34 46 36.68 46 36 46 C36 46.66 36 47.32 36 48 C24.12 48 12.24 48 0 48 C0 32.16 0 16.32 0 0 Z " fill="#36362B" transform="translate(425,27)"/>
<path d="M0 0 C1.03454819 -0.00960754 2.06909637 -0.01921509 3.13499451 -0.02911377 C4.26099564 -0.03336365 5.38699677 -0.03761353 6.54711914 -0.04199219 C8.2691732 -0.0505423 8.2691732 -0.0505423 10.02601624 -0.05926514 C12.45971754 -0.06873145 14.89343176 -0.07525556 17.32714844 -0.07910156 C21.06280698 -0.08881656 24.7979178 -0.11982918 28.53344727 -0.15136719 C30.89216794 -0.1578958 33.25089257 -0.16314683 35.60961914 -0.16699219 C37.29558449 -0.18551239 37.29558449 -0.18551239 39.01560974 -0.20440674 C40.05331009 -0.20140564 41.09101044 -0.19840454 42.16015625 -0.1953125 C43.07647324 -0.19895813 43.99279022 -0.20260376 44.93687439 -0.20635986 C45.66548172 -0.08508728 46.39408905 0.0361853 47.14477539 0.16113281 C49.14477539 3.16113281 49.14477539 3.16113281 48.76977539 5.34863281 C48.56352539 5.94675781 48.35727539 6.54488281 48.14477539 7.16113281 C47.15477539 6.83113281 46.16477539 6.50113281 45.14477539 6.16113281 C43.44610351 6.01335345 41.7430005 5.91366215 40.03930664 5.84472656 C39.05639648 5.80283203 38.07348633 5.7609375 37.06079102 5.71777344 C36.03663086 5.67845703 35.0124707 5.63914062 33.95727539 5.59863281 C32.92151367 5.55544922 31.88575195 5.51226562 30.81860352 5.46777344 C28.26079349 5.36168915 25.70288694 5.25963135 23.14477539 5.16113281 C23.25265303 12.47220122 23.36535978 19.7831787 23.48411465 27.09407902 C23.53911683 30.48936492 23.59249847 33.88465971 23.64208984 37.2800293 C23.69926567 41.18969972 23.76364617 45.09923602 23.82836914 49.00878906 C23.84508163 50.21946548 23.86179413 51.43014191 23.87901306 52.67750549 C23.97664259 58.2608743 24.15830426 63.66006428 25.14477539 69.16113281 C22.50477539 69.16113281 19.86477539 69.16113281 17.14477539 69.16113281 C17.47477539 48.04113281 17.80477539 26.92113281 18.14477539 5.16113281 C5.59367973 5.69364335 5.59367973 5.69364335 -6.85522461 7.16113281 C-5.79510997 0.04322021 -5.79510997 0.04322021 0 0 Z " fill="#363229" transform="translate(293.855224609375,26.8388671875)"/>
<path d="M0 0 C2.64 0 5.28 0 8 0 C7.67 21.12 7.34 42.24 7 64 C14.198125 63.855625 21.39625 63.71125 28.8125 63.5625 C31.06167236 63.51939697 33.31084473 63.47629395 35.62817383 63.43188477 C37.44613272 63.39369601 39.26408563 63.35522151 41.08203125 63.31640625 C41.99738647 63.29993042 42.9127417 63.28345459 43.85583496 63.26647949 C50.27173635 63.12454605 56.61654512 62.6553419 63 62 C62.67 63.98 62.34 65.96 62 68 C59.08947599 68.97017467 57.28074098 69.11638219 54.2565918 69.09765625 C52.81445564 69.09270142 52.81445564 69.09270142 51.34318542 69.08764648 C50.30567642 69.07934814 49.26816742 69.0710498 48.19921875 69.0625 C47.13008743 69.05871338 46.06095612 69.05492676 44.95942688 69.05102539 C40.38053746 69.03466484 35.80173682 69.00659544 31.22290039 68.97949219 C27.88167739 68.96138645 24.54046902 68.94930227 21.19921875 68.9375 C20.16778244 68.92920166 19.13634613 68.92090332 18.07365417 68.91235352 C13.26356887 68.89598818 8.72853311 68.98011047 4 70 C4 69.34 4 68.68 4 68 C2.515 68.495 2.515 68.495 1 69 C-0.2805247 66.4389506 0.30129108 65.7239446 1 63 C1.09078255 61.13794315 1.12788969 59.27295934 1.12939453 57.40869141 C1.13254669 56.28717682 1.13569885 55.16566223 1.13894653 54.01016235 C1.1369223 52.8028244 1.13489807 51.59548645 1.1328125 50.3515625 C1.13376923 49.10627777 1.13472595 47.86099304 1.13571167 46.57797241 C1.13639225 43.94354785 1.1350489 41.309216 1.13037109 38.67480469 C1.125815 35.97849322 1.12579955 33.28224894 1.13037109 30.5859375 C1.1365573 26.69529209 1.13579702 22.80471061 1.1328125 18.9140625 C1.13483673 17.71077301 1.13686096 16.50748352 1.13894653 15.26773071 C1.13579437 14.1399118 1.13264221 13.0120929 1.12939453 11.85009766 C1.12859894 10.86288727 1.12780334 9.87567688 1.12698364 8.85855103 C0.99283417 5.83868878 0.55442292 2.96913269 0 0 Z " fill="#2B2B22" transform="translate(669,220)"/>
<path d="M0 0 C17.82 0 35.64 0 54 0 C54.495 2.97 54.495 2.97 55 6 C46.42 5.34 37.84 4.68 29 4 C29.10959593 11.59942862 29.22006196 19.19875427 29.33904266 26.79802704 C29.3941995 30.33708235 29.44773579 33.87614498 29.49731445 37.4152832 C29.55431367 41.47876668 29.61876325 45.54210262 29.68359375 49.60546875 C29.70030624 50.8702153 29.71701874 52.13496185 29.73423767 53.43803406 C29.75418289 54.61888077 29.77412811 55.79972748 29.79467773 57.01635742 C29.81799416 58.57189583 29.81799416 58.57189583 29.84178162 60.15885925 C29.99256904 62.86656164 30.39510882 65.36022509 31 68 C28 69 28 69 23 68 C23.33 46.88 23.66 25.76 24 4 C11.13 4.99 11.13 4.99 -2 6 C-1.34 4.02 -0.68 2.04 0 0 Z " fill="#302F26" transform="translate(545,220)"/>
<path d="M0 0 C1.485 0.99 1.485 0.99 3 2 C2.34 3.65 1.68 5.3 1 7 C0.484375 6.731875 -0.03125 6.46375 -0.5625 6.1875 C-1.366875 5.795625 -2.17125 5.40375 -3 5 C-4.03125 4.443125 -5.0625 3.88625 -6.125 3.3125 C-10.7388583 1.3593332 -15.21693242 1.77719838 -20 3 C-22.71648577 4.5451157 -22.71648577 4.5451157 -24 7 C-24.66685938 9.54327108 -24.66685938 9.54327108 -24 12 C-19.93297492 16.23190448 -13.5876079 16.72778412 -8.0859375 17.9296875 C-2.46595301 19.27282845 0.89278217 20.89278217 5 25 C6.53214888 28.06429776 6.22938548 30.6165642 6 34 C3.67549699 39.26071734 0.12230234 42.10863302 -5.125 44.3125 C-13.59262574 45.8148207 -20.43805102 44.26984272 -28.1015625 40.546875 C-30 39 -30 39 -30.7734375 36.328125 C-30.84820312 35.55984375 -30.92296875 34.7915625 -31 34 C-30.01 33.34 -29.02 32.68 -28 32 C-27.75378906 32.62390625 -27.50757813 33.2478125 -27.25390625 33.890625 C-25.33442167 37.11966448 -22.98292727 37.44459428 -19.50390625 38.4609375 C-12.60006547 39.9472558 -7.20777803 39.36254643 -1 36 C0.43060128 33.13879744 0.38692581 31.15989415 0 28 C-4.71094912 24.30054691 -10.60705918 23.40091894 -16.31835938 22.0703125 C-21.74286106 20.69035559 -24.99675523 18.94686104 -29 15 C-30.77998987 11.44002025 -30.13768415 7.72560304 -29 4 C-21.51436782 -5.28986147 -10.04836615 -4.66531286 0 0 Z " fill="#2E2E25" transform="translate(442,223)"/>
<path d="M0 0 C0.66 0 1.32 0 2 0 C2.21884354 0.50254807 2.43768707 1.00509613 2.66316223 1.52287292 C4.94653689 6.76452899 7.23470401 12.00407378 9.52563477 17.24243164 C10.37939954 19.1963236 11.23195091 21.15074624 12.08325195 23.10571289 C13.30880358 25.91954508 14.53874092 28.73142477 15.76953125 31.54296875 C16.14777542 32.41398727 16.52601959 33.2850058 16.91572571 34.18241882 C18.39560671 37.55382788 19.8496332 40.75255122 21.7644043 43.90356445 C23 46 23 46 23 49 C20.69 49 18.38 49 16 49 C15.32968281 47.0429132 14.66385317 45.08428887 14 43.125 C13.62875 42.03445313 13.2575 40.94390625 12.875 39.8203125 C12 37 12 37 12 35 C9.23434618 34.07811539 7.61716298 33.88214778 4.76953125 33.90234375 C3.56586914 33.90717773 3.56586914 33.90717773 2.33789062 33.91210938 C1.08782227 33.92467773 1.08782227 33.92467773 -0.1875 33.9375 C-1.03248047 33.94201172 -1.87746094 33.94652344 -2.74804688 33.95117188 C-4.83206155 33.96294597 -6.91603977 33.9808811 -9 34 C-9.65134925 35.56020867 -10.29582964 37.12328579 -10.9375 38.6875 C-11.29714844 39.55761719 -11.65679688 40.42773438 -12.02734375 41.32421875 C-12.9570312 43.88179265 -13.54162625 46.3221323 -14 49 C-16.64 49 -19.28 49 -22 49 C-20.60332534 45.42482089 -19.08008735 41.93681424 -17.4609375 38.45703125 C-16.96625977 37.39081543 -16.47158203 36.32459961 -15.96191406 35.22607422 C-15.43823242 34.09959473 -14.91455078 32.97311523 -14.375 31.8125 C-9.48102442 21.25220448 -4.68104174 10.65625384 0 0 Z M0 10 C1 12 1 12 1 12 Z M1 12 C-1.48971237 14.23362767 -2.79842208 16.31446983 -4.125 19.375 C-4.45757813 20.12523437 -4.79015625 20.87546875 -5.1328125 21.6484375 C-6.2121155 24.38773247 -6.2121155 24.38773247 -7 29 C-1.72 29 3.56 29 9 29 C8.236875 26.9375 7.47375 24.875 6.6875 22.75 C6.04361328 21.00976562 6.04361328 21.00976562 5.38671875 19.234375 C4.17401435 16.4058701 2.97057026 14.33463456 1 12 Z " fill="#303029" transform="translate(634,219)"/>
<path d="M0 0 C3 1 3 1 4.83764648 4.49072266 C5.52614543 6.04381048 6.20316973 7.60201574 6.87109375 9.1640625 C7.23469498 9.98949554 7.5982962 10.81492859 7.97291565 11.66537476 C9.13788378 14.3142887 10.28834739 16.96919132 11.4375 19.625 C12.58537938 22.25829942 13.73632414 24.89019247 14.89137268 27.52035522 C15.60956882 29.15780551 16.32331177 30.79721874 17.03184509 32.43887329 C18.61012282 36.05547208 20.25050346 39.53050873 22.25024414 42.93505859 C24 46 24 46 24 48 C21.36 48 18.72 48 16 48 C15.72285156 47.08476562 15.44570313 46.16953125 15.16015625 45.2265625 C14.61681641 43.44378906 14.61681641 43.44378906 14.0625 41.625 C13.70285156 40.44164062 13.34320313 39.25828125 12.97265625 38.0390625 C12.12423726 35.12073182 12.12423726 35.12073182 11 33 C4.4 32.67 -2.2 32.34 -9 32 C-10.78212966 37.34638897 -12.50240025 42.5856009 -14 48 C-16.31 48 -18.62 48 -21 48 C-19.71498112 43.95239617 -18.22633724 40.1338344 -16.42578125 36.2890625 C-15.92594727 35.21575684 -15.42611328 34.14245117 -14.91113281 33.03662109 C-14.38358398 31.91078613 -13.85603516 30.78495117 -13.3125 29.625 C-8.74198189 19.80456244 -4.2704775 9.95442291 0 0 Z M1 10 C0.03654556 11.87237371 -0.92053102 13.7480299 -1.875 15.625 C-2.40867187 16.66914063 -2.94234375 17.71328125 -3.4921875 18.7890625 C-5.26108552 22.39324698 -5.26108552 22.39324698 -7 28 C-1.72 28 3.56 28 9 28 C7.02989474 21.79416842 4.74844552 15.90148454 2 10 C1.67 10 1.34 10 1 10 Z " fill="#313027" transform="translate(459,123)"/>
<path d="M0 0 C0.99 0 1.98 0 3 0 C4.44152015 2.8830403 4.1326592 5.36859511 4.14044189 8.59152222 C4.14489858 9.61890729 4.14489858 9.61890729 4.1494453 10.66704762 C4.15815034 12.9731937 4.15964206 15.27928799 4.16113281 17.58544922 C4.16575969 19.23440665 4.17078417 20.88336301 4.17617798 22.53231812 C4.18931603 27.01992803 4.1957496 31.50752298 4.20018864 35.99514914 C4.20311692 38.79696067 4.20722125 41.59876808 4.21169281 44.40057755 C4.22537106 53.16140025 4.23503627 61.92221358 4.2388947 70.68304622 C4.24337728 80.80627572 4.26093307 90.92937031 4.2898953 101.05255878 C4.31148918 108.87085876 4.32159774 116.68912073 4.32293582 124.50745022 C4.32398544 129.18011792 4.32992656 133.85265887 4.34775543 138.52529526 C4.36419667 142.91983563 4.36641093 147.31415343 4.35761642 151.70871353 C4.35684394 153.32282353 4.36121649 154.93694531 4.37107468 156.55102539 C4.38373304 158.75245433 4.37795146 160.95308769 4.36749268 163.1545105 C4.36895924 164.38711546 4.3704258 165.61972042 4.3719368 166.88967705 C4 170 4 170 1 174 C0.67 116.58 0.34 59.16 0 0 Z " fill="#23211D" transform="translate(212,107)"/>
<path d="M0 0 C1 1 1 1 1.0625 3.5625 C1.041875 4.366875 1.02125 5.17125 1 6 C-2 6 -2 6 -5.0625 4.0625 C-10.21743389 1.02380213 -15.63761022 0.35904445 -21.5 1.4765625 C-27.53594867 3.28337608 -30.59205612 5.53609821 -33.75 11.0625 C-35.89259011 16.57878171 -35.97706134 22.68792766 -34.30859375 28.34375 C-32.20031436 33.07194143 -29.64201461 35.53084329 -25 38 C-17.6802626 40.43991247 -10.84262422 39.18535955 -4 36 C-1.60298739 34.45768135 -1.60298739 34.45768135 0 33 C0.495 35.97 0.495 35.97 1 39 C-6.25122511 43.83415007 -13.76380598 45.88897685 -22.4375 44.1875 C-23.96369376 43.81286595 -25.48525102 43.41851353 -27 43 C-28.00353516 42.86078125 -28.00353516 42.86078125 -29.02734375 42.71875 C-31.96356804 41.64891778 -33.21240465 39.74505949 -35.125 37.3125 C-35.80820312 36.46300781 -36.49140625 35.61351562 -37.1953125 34.73828125 C-41.46002022 28.26737192 -41.9024126 21.5422695 -41 14 C-38.75346226 6.53940489 -34.71268391 1.83199122 -28 -2 C-19.02122469 -6.48938766 -8.54377435 -4.45995768 0 0 Z " fill="#2C2B24" transform="translate(426,127)"/>
<path d="M0 0 C0.33 0 0.66 0 1 0 C1.69620909 40.73914493 2.10937329 81.47334349 2.12338257 122.21878433 C2.12499463 125.30222138 2.1285498 128.38565092 2.13256836 131.46908569 C2.13845066 136.36976471 2.13863006 141.2704126 2.13431931 146.17109299 C2.13333304 147.97414509 2.13388556 149.77719885 2.13615799 151.58024979 C2.14673246 161.77329571 1.90936029 171.83972981 1 182 C0.34 182 -0.32 182 -1 182 C-1.02332634 158.41780371 -1.04097787 134.83560915 -1.05181217 111.25340366 C-1.05697569 100.30459267 -1.06401946 89.35578883 -1.07543945 78.40698242 C-1.08538458 68.86767269 -1.09185302 59.32836815 -1.09408849 49.78905338 C-1.09539589 44.73475977 -1.09848358 39.68048097 -1.10573006 34.62619209 C-1.11248757 29.87471216 -1.11461751 25.12325323 -1.11310768 20.37176895 C-1.11338413 18.62256316 -1.11539084 16.8733567 -1.11920547 15.12415504 C-1.12413854 12.74664852 -1.12299974 10.36922264 -1.12025452 7.99171448 C-1.12316736 7.29036568 -1.1260802 6.58901688 -1.12908131 5.86641508 C-1.11412121 1.11412121 -1.11412121 1.11412121 0 0 Z " fill="#2A2921" transform="translate(30,108)"/>
<path d="M0 0 C2.31 0 4.62 0 7 0 C6.67 21.78 6.34 43.56 6 66 C6.66 66.33 7.32 66.66 8 67 C7.505 67.99 7.505 67.99 7 69 C4.69 69 2.38 69 0 69 C0 46.23 0 23.46 0 0 Z " fill="#34332A" transform="translate(366,123)"/>
<path d="M0 0 C2.31 0 4.62 0 7 0 C7 22.44 7 44.88 7 68 C4.03 68.495 4.03 68.495 1 69 C0.08897087 65.12352213 -0.12137137 61.53528248 -0.11352539 57.55737305 C-0.11344986 56.27642258 -0.11337433 54.99547211 -0.11329651 53.67570496 C-0.10819065 52.28770915 -0.10297467 50.89971375 -0.09765625 49.51171875 C-0.09578975 48.08396962 -0.09436694 46.65621985 -0.09336853 45.22846985 C-0.08956165 41.48186455 -0.07974707 37.7352984 -0.06866455 33.9887085 C-0.05841102 30.16109751 -0.05386248 26.33348016 -0.04882812 22.50585938 C-0.03812307 15.00388846 -0.02106873 7.50194973 0 0 Z " fill="#3A372D" transform="translate(523,220)"/>
<path d="M0 0 C0.33 0.66 0.66 1.32 1 2 C2.299375 2.12375 2.299375 2.12375 3.625 2.25 C8.26459618 3.28102137 10.86264963 5.49820994 14 9 C17.19988795 14.36755399 17.96718984 19.86498211 17 26 C14.74352122 31.46672694 11.24699978 36.1014903 7.8125 40.875 C7.25369141 41.65875 6.69488281 42.4425 6.11914062 43.25 C4.74982506 45.1693825 3.37671863 47.0859242 2 49 C0.35 48.34 -1.3 47.68 -3 47 C-2.57800007 42.07666747 -0.44338069 40.36330207 3 37 C4.46211334 34.72731155 5.70408056 32.3758523 7 30 C7.52980469 29.37738281 8.05960938 28.75476563 8.60546875 28.11328125 C10.35177913 25.46691174 10.31131845 23.88673413 10.1875 20.75 C10.16042969 19.85796875 10.13335937 18.9659375 10.10546875 18.046875 C10.07066406 17.37140625 10.03585938 16.6959375 10 16 C9.34 15.67 8.68 15.34 8 15 C7.87625 14.360625 7.7525 13.72125 7.625 13.0625 C7.20231096 10.83602709 7.20231096 10.83602709 5.125 9.875 C4.073125 9.441875 4.073125 9.441875 3 9 C0 7 0 7 -0.75 5.0625 C-1 3 -1 3 0 0 Z " fill="#020204" transform="translate(156,84)"/>
<path d="M0 0 C0.99 0.33 1.98 0.66 3 1 C3 21.13 3 41.26 3 62 C5.82639719 62.9421324 7.55776994 63.12646786 10.48388672 63.12939453 C11.38847626 63.13254669 12.2930658 63.13569885 13.22506714 63.13894653 C14.20009186 63.1369223 15.17511658 63.13489807 16.1796875 63.1328125 C17.68705978 63.13424759 17.68705978 63.13424759 19.22488403 63.13571167 C21.35158348 63.13639241 23.47828501 63.13454549 25.60498047 63.13037109 C28.85519098 63.12503254 32.10526261 63.13031392 35.35546875 63.13671875 C37.4218753 63.13605773 39.48828177 63.13477608 41.5546875 63.1328125 C42.52566376 63.13483673 43.49664001 63.13686096 44.49703979 63.13894653 C45.40793365 63.13579437 46.31882751 63.13264221 47.25732422 63.12939453 C48.0543576 63.12859894 48.85139099 63.12780334 49.6725769 63.12698364 C52.19122762 62.98956667 54.54089843 62.54895312 57 62 C57 62.99 57 63.98 57 65 C44.64639963 66.15232981 32.45031438 65.93346859 20.0625 65.5625 C18.10743924 65.50912559 16.15236102 65.45638703 14.19726562 65.40429688 C9.46461087 65.27684408 4.73227428 65.1408472 0 65 C-1.37995495 62.2400901 -1.07708228 60.07725626 -1.02172852 56.98974609 C-1.00163223 55.72858978 -0.98153595 54.46743347 -0.96083069 53.1680603 C-0.93363228 51.7865172 -0.90632147 50.40497631 -0.87890625 49.0234375 C-0.85460749 47.61382807 -0.83076381 46.20421072 -0.80735779 44.79458618 C-0.74449244 41.08238724 -0.67543282 37.37032818 -0.60510254 33.65826416 C-0.53444117 29.8711993 -0.46961107 26.08403518 -0.40429688 22.296875 C-0.27525297 14.86447355 -0.13966806 7.43221019 0 0 Z " fill="#3B392D" transform="translate(672,222)"/>
<path d="M0 0 C4.25001966 -0.09981078 8.49939595 -0.17190512 12.75024414 -0.21972656 C14.19242252 -0.23968751 15.6345216 -0.26686663 17.07641602 -0.30175781 C33.0433537 -0.67810158 33.0433537 -0.67810158 40 4 C44.2555278 8.2555278 46.1039516 12.33475577 46.125 18.3125 C46.08375 19.529375 46.0425 20.74625 46 22 C45.34 22 44.68 22 44 22 C43.95101562 21.14535156 43.90203125 20.29070312 43.8515625 19.41015625 C43.77679688 18.30542969 43.70203125 17.20070312 43.625 16.0625 C43.52058594 14.40927734 43.52058594 14.40927734 43.4140625 12.72265625 C43.20910156 11.37494141 43.20910156 11.37494141 43 10 C42.34 9.67 41.68 9.34 41 9 C40.34 8.319375 39.68 7.63875 39 6.9375 C37.22468387 4.76806826 37.22468387 4.76806826 35 5 C37.475 6.98 37.475 6.98 40 9 C39.67 10.32 39.34 11.64 39 13 C38.4225 12.21625 37.845 11.4325 37.25 10.625 C34.42084564 7.32431991 32.57811881 6.18303936 28.25097656 5.68115234 C27.22456055 5.64973145 26.19814453 5.61831055 25.140625 5.5859375 C23.46806641 5.52792969 23.46806641 5.52792969 21.76171875 5.46875 C20.60285156 5.4378125 19.44398438 5.406875 18.25 5.375 C17.07566406 5.33632812 15.90132813 5.29765625 14.69140625 5.2578125 C11.79442732 5.1636018 8.89745374 5.07798398 6 5 C6 6.65 6 8.3 6 10 C4.9375 8.1875 4.9375 8.1875 4 6 C4.33 5.01 4.66 4.02 5 3 C11.93 3 18.86 3 26 3 C24.98363023 1.76078789 24.98363023 1.76078789 22.86694336 1.88647461 C21.49227905 1.89432983 21.49227905 1.89432983 20.08984375 1.90234375 C18.60581055 1.90717773 18.60581055 1.90717773 17.09179688 1.91210938 C16.05087891 1.92048828 15.00996094 1.92886719 13.9375 1.9375 C12.37032227 1.94426758 12.37032227 1.94426758 10.77148438 1.95117188 C8.1809334 1.96300087 5.59049441 1.97948311 3 2 C2.67 4.97 2.34 7.94 2 11 C1.67 11 1.34 11 1 11 C0.67 7.37 0.34 3.74 0 0 Z " fill="#2F2F28" transform="translate(464,220)"/>
<path d="M0 0 C0.66 0 1.32 0 2 0 C3.85661762 3.52104036 5.70788333 7.04483537 7.55419922 10.57128906 C8.18326087 11.77095542 8.81378877 12.96985409 9.44580078 14.16796875 C10.35312345 15.88860578 11.25477152 17.61223139 12.15625 19.3359375 C12.97319336 20.89127197 12.97319336 20.89127197 13.80664062 22.47802734 C15 25 15 25 15 27 C14.34 27 13.68 27 13 27 C11.68 24.03 10.36 21.06 9 18 C8.34 19.32 7.68 20.64 7 22 C6.01 22.33 5.02 22.66 4 23 C3.67 26.3 3.34 29.6 3 33 C2.34 32.67 1.68 32.34 1 32 C1 27.71 1 23.42 1 19 C0.87882812 20.49273437 0.75765625 21.98546875 0.6328125 23.5234375 C0.46401389 25.47399926 0.29471727 27.42451796 0.125 29.375 C0.04636719 30.35984375 -0.03226562 31.3446875 -0.11328125 32.359375 C-0.23896484 33.77089844 -0.23896484 33.77089844 -0.3671875 35.2109375 C-0.44050293 36.08024902 -0.51381836 36.94956055 -0.58935547 37.84521484 C-1 40 -1 40 -3 42 C-2.50357927 27.93071002 -1.56304257 13.99150731 0 0 Z M4 16 C4 17.32 4 18.64 4 20 C4.66 19.67 5.32 19.34 6 19 C5.34 18.01 4.68 17.02 4 16 Z " fill="#2D2B22" transform="translate(293,122)"/>
<path d="M0 0 C2.6875 1.5625 2.6875 1.5625 4 4 C4 7.625 4 7.625 3 11 C0.21949362 13.55806587 -3.46674214 13.36399 -7.09375 13.2421875 C-9 13 -9 13 -11.5 11.9375 C-13.81346701 8.94927177 -13.4568702 6.65496159 -13 3 C-9.7895672 -1.4555045 -4.97918312 -0.71596097 0 0 Z " fill="#020204" transform="translate(150,81)"/>
<path d="M0 0 C2.6875 1.5625 2.6875 1.5625 4 4 C4 7.625 4 7.625 3 11 C0.21949362 13.55806587 -3.46674214 13.36399 -7.09375 13.2421875 C-9 13 -9 13 -11.5 11.9375 C-13.81346701 8.94927177 -13.4568702 6.65496159 -13 3 C-9.7895672 -1.4555045 -4.97918312 -0.71596097 0 0 Z " fill="#020204" transform="translate(96,81)"/>
<path d="M0 0 C0.33 0 0.66 0 1 0 C1.33 21.45 1.66 42.9 2 65 C0.02 65.495 0.02 65.495 -2 66 C-1.99476318 65.3294458 -1.98952637 64.6588916 -1.98413086 63.96801758 C-1.96328395 60.916188 -1.95031531 57.86437344 -1.9375 54.8125 C-1.92493164 53.22985352 -1.92493164 53.22985352 -1.91210938 51.61523438 C-1.90888672 50.59365234 -1.90566406 49.57207031 -1.90234375 48.51953125 C-1.89710693 47.58214111 -1.89187012 46.64475098 -1.88647461 45.67895508 C-1.99917343 43.01950523 -2.40623351 40.59079427 -3 38 C-2.34 38 -1.68 38 -1 38 C-1.33 37.01 -1.66 36.02 -2 35 C-14.54 34.67 -27.08 34.34 -40 34 C-40 33.67 -40 33.34 -40 33 C-27.46 32.67 -14.92 32.34 -2 32 C-2.0791358 22.21693059 -2.0791358 22.21693059 -2.18017578 12.43408203 C-2.1851709 11.22091309 -2.19016602 10.00774414 -2.1953125 8.7578125 C-2.21102295 6.88826904 -2.21102295 6.88826904 -2.22705078 4.98095703 C-2 2 -2 2 0 0 Z " fill="#3C3A2F" transform="translate(335,221)"/>
<path d="M0 0 C0.66 0 1.32 0 2 0 C2.33 18.81 2.66 37.62 3 57 C1.68 57 0.36 57 -1 57 C-1.02528819 49.20378306 -1.04284068 41.40757664 -1.05493164 33.61132812 C-1.05997042 30.95735275 -1.06680151 28.30338016 -1.07543945 25.64941406 C-1.08752489 21.84178989 -1.09323275 18.03420231 -1.09765625 14.2265625 C-1.10281754 13.03382721 -1.10797882 11.84109192 -1.11329651 10.61221313 C-1.11340981 8.96072769 -1.11340981 8.96072769 -1.11352539 7.27587891 C-1.115746 6.30325104 -1.11796661 5.33062317 -1.12025452 4.32852173 C-1 2 -1 2 0 0 Z " fill="#3B392D" transform="translate(571,230)"/>
<path d="M0 0 C2.64 0 5.28 0 8 0 C7.83773926 1.06984131 7.67547852 2.13968262 7.50830078 3.24194336 C6.80958822 8.86546249 6.85673579 14.46961567 6.8671875 20.12890625 C6.86575241 21.85160988 6.86575241 21.85160988 6.86428833 23.6091156 C6.86361042 26.02709 6.86543748 28.44506625 6.86962891 30.86303711 C6.87498754 34.55391541 6.86966812 38.2446723 6.86328125 41.93554688 C6.863942 44.29166693 6.86522311 46.64778692 6.8671875 49.00390625 C6.86516327 50.10199112 6.86313904 51.20007599 6.86105347 52.33143616 C6.87729311 57.66237209 7.061163 62.7487593 8 68 C4.535 68.495 4.535 68.495 1 69 C-0.06432275 65.80703175 -0.03788336 63.79555059 0.12109375 60.45703125 C0.16943359 59.38388672 0.21777344 58.31074219 0.26757812 57.20507812 C0.32365234 56.08552734 0.37972656 54.96597656 0.4375 53.8125 C0.48970703 52.68134766 0.54191406 51.55019531 0.59570312 50.38476562 C0.72543807 47.5895672 0.86040641 44.7947206 1 42 C3 44 3 44 3.23046875 47.95703125 C3.22647234 49.57557927 3.21169282 51.19412786 3.1875 52.8125 C3.18685547 53.62009766 3.18621094 54.42769531 3.18554688 55.25976562 C3.15579144 59.29658588 2.99840979 63.06227179 2 67 C3.485 66.01 3.485 66.01 5 65 C5.40102855 62.25070188 5.40102855 62.25070188 5.2487793 58.98974609 C5.22853195 57.72858978 5.20828461 56.46743347 5.18742371 55.1680603 C5.15001107 53.7865106 5.11226826 52.40496981 5.07421875 51.0234375 C5.04619074 49.61384602 5.01949979 48.20422737 4.99409485 46.79458618 C4.92358349 43.08209964 4.83487543 39.37026069 4.74243164 35.65826416 C4.6513248 31.87135758 4.57735008 28.08412117 4.50195312 24.296875 C4.35144537 16.86415285 4.18172147 9.43203145 4 2 C2.41727399 3.58272601 2.65264253 5.38034003 2.4375 7.5625 C2.35371094 8.38878906 2.26992188 9.21507812 2.18359375 10.06640625 C2.12300781 10.70449219 2.06242187 11.34257812 2 12 C1.67 12 1.34 12 1 12 C0.67 8.04 0.34 4.08 0 0 Z " fill="#2A2A22" transform="translate(331,220)"/>
<path d="M0 0 C1.0236264 0.00636726 1.0236264 0.00636726 2.06793213 0.01286316 C4.23840504 0.02959903 6.40793479 0.06723916 8.578125 0.10546875 C10.05337197 0.12052229 11.52863355 0.13420953 13.00390625 0.14648438 C16.61228344 0.17948498 20.2201121 0.23123108 23.828125 0.29296875 C23.828125 0.62296875 23.828125 0.95296875 23.828125 1.29296875 C13.928125 1.62296875 4.028125 1.95296875 -6.171875 2.29296875 C-6.171875 2.62296875 -6.171875 2.95296875 -6.171875 3.29296875 C3.728125 3.29296875 13.628125 3.29296875 23.828125 3.29296875 C24.323125 4.28296875 24.323125 4.28296875 24.828125 5.29296875 C13.608125 5.62296875 2.388125 5.95296875 -9.171875 6.29296875 C-9.501875 13.22296875 -9.831875 20.15296875 -10.171875 27.29296875 C-12.171875 25.29296875 -12.171875 25.29296875 -12.40234375 22.31640625 C-12.19097763 4.36950095 -12.19097763 4.36950095 -9.57324219 1.60424805 C-6.2706647 -0.19914192 -3.75056343 -0.04611348 0 0 Z " fill="#2C2A21" transform="translate(373.171875,58.70703125)"/>
<path d="M0 0 C0.66 0 1.32 0 2 0 C1.99333817 0.72218719 1.98667633 1.44437439 1.97981262 2.18844604 C1.91975964 8.98663109 1.87405528 15.78477662 1.84456348 22.58315849 C1.82889175 26.07850309 1.80762669 29.57362896 1.77368164 33.06884766 C1.73492059 37.08498258 1.72030336 41.10088691 1.70703125 45.1171875 C1.69154739 46.37554413 1.67606354 47.63390076 1.66011047 48.9303894 C1.65988388 50.09144196 1.65965729 51.25249451 1.65942383 52.44873047 C1.65276199 53.47465302 1.64610016 54.50057556 1.63923645 55.55758667 C1.75828842 56.36358307 1.87734039 57.16957947 2 58 C2.99 58.66 3.98 59.32 5 60 C5.33 59.34 5.66 58.68 6 58 C6.33 58.99 6.66 59.98 7 61 C4.36 61 1.72 61 -1 61 C-0.67 40.87 -0.34 20.74 0 0 Z " fill="#33302C" transform="translate(312,35)"/>
<path d="M0 0 C2.31 0 4.62 0 7 0 C6.67 2.31 6.34 4.62 6 7 C5.71125 6.360625 5.4225 5.72125 5.125 5.0625 C4.17176549 2.84793921 4.17176549 2.84793921 2 2 C2.33 23.45 2.66 44.9 3 67 C3.33 67 3.66 67 4 67 C4.33 59.74 4.66 52.48 5 45 C5.33 45 5.66 45 6 45 C6 51.93 6 58.86 6 66 C6.66 66.33 7.32 66.66 8 67 C7.505 67.99 7.505 67.99 7 69 C4.69 69 2.38 69 0 69 C0 46.23 0 23.46 0 0 Z " fill="#272721" transform="translate(366,123)"/>
<path d="M0 0 C2.31 0 4.62 0 7 0 C7 22.44 7 44.88 7 68 C4.03 68.495 4.03 68.495 1 69 C0.19032562 66.08517222 -0.21845993 64.53886783 0.9375 61.6875 C1.288125 61.130625 1.63875 60.57375 2 60 C2.5534764 62.07553648 3 63.84365964 3 66 C3.66 66 4.32 66 5 66 C5 44.88 5 23.76 5 2 C4.01 1.67 3.02 1.34 2 1 C2 3.64 2 6.28 2 9 C1.67 9 1.34 9 1 9 C0.67 6.03 0.34 3.06 0 0 Z " fill="#292821" transform="translate(523,220)"/>
<path d="M0 0 C0.99 0.33 1.98 0.66 3 1 C4.35157899 5.91442984 3.93557785 10.64761446 3.66015625 15.67578125 C3.61434921 16.6009404 3.56854218 17.52609955 3.52134705 18.47929382 C3.37421084 21.42402371 3.21847369 24.36822629 3.0625 27.3125 C2.96102033 29.3131223 2.86010243 31.31377318 2.75976562 33.31445312 C2.5130195 38.2099905 2.25856051 43.10507296 2 48 C1.67 48 1.34 48 1 48 C-0.46961877 32.04413902 -0.09464518 16.00522721 0 0 Z " fill="#3C3B2F" transform="translate(368,125)"/>
<path d="M0 0 C0.99 0.66 1.98 1.32 3 2 C2.34 3.65 1.68 5.3 1 7 C0.484375 6.731875 -0.03125 6.46375 -0.5625 6.1875 C-1.366875 5.795625 -2.17125 5.40375 -3 5 C-4.03125 4.46375 -5.0625 3.9275 -6.125 3.375 C-10.63792274 1.41841694 -15.17132786 1.73767777 -20 2 C-20 1.34 -20 0.68 -20 0 C-21.65 0.33 -23.3 0.66 -25 1 C-18.5807149 -6.03064559 -7.74945087 -3.59795933 0 0 Z " fill="#2C2A23" transform="translate(442,223)"/>
<path d="M0 0 C1.16898166 3.63683183 1.02874952 6.93834538 0.87890625 10.734375 C0.83056641 12.02988281 0.78222656 13.32539062 0.73242188 14.66015625 C0.67590496 16.02344263 0.61926274 17.38672383 0.5625 18.75 C0.50924178 20.12888612 0.45650166 21.50779235 0.40429688 22.88671875 C0.27463047 26.25804533 0.13966346 29.62907518 0 33 C0.66 33 1.32 33 2 33 C2 25.74 2 18.48 2 11 C2.33 11 2.66 11 3 11 C3.33 18.92 3.66 26.84 4 35 C1.69 35 -0.62 35 -3 35 C-2.67 23.78 -2.34 12.56 -2 1 C-1.34 0.67 -0.68 0.34 0 0 Z " fill="#343128" transform="translate(404,61)"/>
<path d="M0 0 C1.5 1.375 1.5 1.375 3 3 C3 3.66 3 4.32 3 5 C3.66 5 4.32 5 5 5 C6.1604673 7.32699449 7.30316604 9.66029746 8.4375 12 C8.92573242 12.97259766 8.92573242 12.97259766 9.42382812 13.96484375 C11.10665371 17.46928465 12.19814362 20.49050792 12.59765625 24.375 C12.62216879 28.03869373 12.62216879 28.03869373 15 30 C14.34 30.66 13.68 31.32 13 32 C11 31 11 31 10.18359375 29.14453125 C8.7861179 24.77650464 7.58561996 20.56783569 7 16 C6.01 16 5.02 16 4 16 C3.896875 15.13375 3.79375 14.2675 3.6875 13.375 C3.14049226 9.94285634 3.14049226 9.94285634 1.4375 6.875 C0 4 0 4 0 0 Z " fill="#323028" transform="translate(640,235)"/>
<path d="M0 0 C-0.10828125 1.00353516 -0.10828125 1.00353516 -0.21875 2.02734375 C-0.9043984 9.12190009 -1.07623096 16.09293406 -0.875 23.21069336 C-0.8117629 26.99130582 -0.87185773 29.7952681 -3 33 C-3.72527151 29.6951697 -4.15413042 26.55136245 -4.28125 23.171875 C-4.31863281 22.29015625 -4.35601562 21.4084375 -4.39453125 20.5 C-4.46544213 18.65106452 -4.53574462 16.80210561 -4.60546875 14.953125 C-4.64285156 14.0765625 -4.68023437 13.2 -4.71875 12.296875 C-4.74904297 11.49604492 -4.77933594 10.69521484 -4.81054688 9.87011719 C-4.80223286 7.98702147 -4.80223286 7.98702147 -6 7 C-6.04080783 5.00041636 -6.04254356 2.99954746 -6 1 C-6.66 0.67 -7.32 0.34 -8 0 C-5.13822943 -1.43088528 -3.06624227 -0.59991697 0 0 Z " fill="#3A392E" transform="translate(363,28)"/>
<path d="M0 0 C0.66 0 1.32 0 2 0 C2.05607422 1.62808594 2.05607422 1.62808594 2.11328125 3.2890625 C2.17897875 4.73440739 2.24542476 6.17971839 2.3125 7.625 C2.33505859 8.33785156 2.35761719 9.05070313 2.38085938 9.78515625 C2.62303046 14.58454687 3.70446227 17.70432887 6 22 C6 23.32 6 24.64 6 26 C2.59205654 24.62110464 1.29875681 23.41719395 -0.1875 20.0625 C-2.36545224 14.81833264 -2.78951839 9.63038315 -3 4 C-2.34 4 -1.68 4 -1 4 C-0.67 2.68 -0.34 1.36 0 0 Z " fill="#34332A" transform="translate(388,137)"/>
<path d="M0 0 C0.99 0.66 1.98 1.32 3 2 C3 2.66 3 3.32 3 4 C5.475 4.99 5.475 4.99 8 6 C8 6.66 8 7.32 8 8 C13.40744018 8.77249145 18.53862186 9.09752461 24 9 C21.13233859 11.86766141 18.21942028 11.42362123 14.375 11.4375 C13.653125 11.44136719 12.93125 11.44523437 12.1875 11.44921875 C6.16413447 11.31874874 2.68841411 9.90701176 -2 6 C-1.125 1.125 -1.125 1.125 0 0 Z " fill="#313229" transform="translate(413,255)"/>
<path d="M0 0 C12.54 0 25.08 0 38 0 C38.495 1.98 38.495 1.98 39 4 C38.34 4 37.68 4 37 4 C37 3.34 37 2.68 37 2 C24.46 2 11.92 2 -1 2 C-0.67 1.34 -0.34 0.68 0 0 Z " fill="#2E2D23" transform="translate(295,255)"/>
<path d="M0 0 C1 3 1 3 0 6 C0.66 6 1.32 6 2 6 C2.33 5.01 2.66 4.02 3 3 C4.24546405 5.49092811 3.7767578 6.41080733 3 9 C2.34 9 1.68 9 1 9 C0.731875 9.7425 0.46375 10.485 0.1875 11.25 C-0.94229421 13.86636554 -2.20893202 15.80187111 -4 18 C-4 16.02 -4 14.04 -4 12 C-6.31 16.62 -8.62 21.24 -11 26 C-11.99 26 -12.98 26 -14 26 C-13.40832031 24.96101563 -12.81664062 23.92203125 -12.20703125 22.8515625 C-7.9384715 15.32719919 -3.73520835 7.80827475 0 0 Z " fill="#2B2A22" transform="translate(335,139)"/>
<path d="M0 0 C0.66 0 1.32 0 2 0 C3.85661762 3.52104036 5.70788333 7.04483537 7.55419922 10.57128906 C8.18326087 11.77095542 8.81378877 12.96985409 9.44580078 14.16796875 C10.35312345 15.88860578 11.25477152 17.61223139 12.15625 19.3359375 C12.70087891 20.37282715 13.24550781 21.4097168 13.80664062 22.47802734 C15 25 15 25 15 27 C14.34 27 13.68 27 13 27 C11.68 24.03 10.36 21.06 9 18 C8.34 19.32 7.68 20.64 7 22 C5.68 21.67 4.36 21.34 3 21 C3 19.02 3 17.04 3 15 C3.66 14.67 4.32 14.34 5 14 C5.66 14.33 6.32 14.66 7 15 C5.68 12.36 4.36 9.72 3 7 C2.01 7 1.02 7 0 7 C0 4.69 0 2.38 0 0 Z M4 16 C4 17.32 4 18.64 4 20 C4.66 19.67 5.32 19.34 6 19 C5.34 18.01 4.68 17.02 4 16 Z " fill="#26251D" transform="translate(293,122)"/>
<path d="M0 0 C0.33 0.66 0.66 1.32 1 2 C0.67 2.9075 0.34 3.815 0 4.75 C-1.98351401 11.32039015 -1.76700929 19.50719447 1.33984375 25.6484375 C3.32913014 28.34297212 4.98144594 30.49072297 8 32 C8 32.66 8 33.32 8 34 C3.53602498 32.63600763 1.54411616 30.90097811 -1 27 C-4.36407535 20.54500071 -5.27190742 13.69449465 -3.35546875 6.62109375 C-1.49332865 1.49332865 -1.49332865 1.49332865 0 0 Z " fill="#3D3B32" transform="translate(356,230)"/>
<path d="M0 0 C0.66 0 1.32 0 2 0 C6.90130775 9.80261549 3.61968104 25.47244823 3 36 C1.515 36.495 1.515 36.495 0 37 C0.33 26.11 0.66 15.22 1 4 C0.34 4 -0.32 4 -1 4 C-0.67 2.68 -0.34 1.36 0 0 Z " fill="#3F3B2F" transform="translate(403,58)"/>
<path d="M0 0 C0.66 0.66 1.32 1.32 2 2 C1.401875 3.175625 0.80375 4.35125 0.1875 5.5625 C-0.5447951 7.04012036 -1.27396054 8.51929586 -2 10 C-2.30808594 10.62003906 -2.61617188 11.24007812 -2.93359375 11.87890625 C-4.73973865 15.74180946 -5.31074203 18.75319223 -5 23 C-7.31 23.99 -9.62 24.98 -12 26 C-11.35534798 21.66695924 -9.81074878 18.13327935 -7.9375 14.1875 C-7.38964844 13.02605469 -6.84179688 11.86460937 -6.27734375 10.66796875 C-5.85582031 9.78753906 -5.43429687 8.90710938 -5 8 C-4.34 8 -3.68 8 -3 8 C-1.92474806 5.34771188 -0.90543849 2.71631546 0 0 Z " fill="#323129" transform="translate(457,131)"/>
<path d="M0 0 C1.21236328 0.10828125 1.21236328 0.10828125 2.44921875 0.21875 C4.05216797 0.35796875 4.05216797 0.35796875 5.6875 0.5 C7.27111328 0.63921875 7.27111328 0.63921875 8.88671875 0.78125 C11.60636025 0.9723415 14.27539856 1.04043935 17 1 C17 1.66 17 2.32 17 3 C9.08 3.495 9.08 3.495 1 4 C9.25 4.33 17.5 4.66 26 5 C26 5.33 26 5.66 26 6 C15.44 6 4.88 6 -6 6 C-6 4.35 -6 2.7 -6 1 C-5.54625 1.495 -5.0925 1.99 -4.625 2.5 C-3.12364481 4.22609337 -3.12364481 4.22609337 -1 4 C-0.67 2.68 -0.34 1.36 0 0 Z " fill="#26261E" transform="translate(431,69)"/>
<path d="M0 0 C1.134375 0.61875 2.26875 1.2375 3.4375 1.875 C7.82836911 4.09007172 12.17829396 5.1517369 17 6 C16.67 6.66 16.34 7.32 16 8 C15.34 7.67 14.68 7.34 14 7 C15.25541557 9.51083114 16.50063488 9.87125446 19 11 C15.82720358 12.58639821 12.89908101 11.183728 9.625 10.3125 C8.95210938 10.15072266 8.27921875 9.98894531 7.5859375 9.82226562 C3.33547236 8.70526347 0.79612677 7.40553901 -2 4 C2.455 4.99 2.455 4.99 7 6 C6.030625 5.566875 5.06125 5.13375 4.0625 4.6875 C1 3 1 3 0 0 Z " fill="#2C2A23" transform="translate(417,235)"/>
<path d="M0 0 C1.32 0 2.64 0 4 0 C4.04943465 4.78717542 4.08573582 9.57420227 4.10986328 14.36157227 C4.11992142 15.99017932 4.13356958 17.61876832 4.15087891 19.24731445 C4.17513574 21.58809872 4.18648483 23.92864424 4.1953125 26.26953125 C4.20563507 26.99775589 4.21595764 27.72598053 4.22659302 28.47627258 C4.22742249 32.21275069 4.12883296 33.80675056 2 37 C1.14010867 30.40302116 0.90422719 24.02163335 1 17.375 C1.08451856 11.45870061 1.02352555 5.83729415 0 0 Z " fill="#3E3B31" transform="translate(288,222)"/>
<path d="M0 0 C0.495 1.485 0.495 1.485 1 3 C-3.29605732 3.82222554 -7.33966603 4.11770795 -11.7109375 4.09765625 C-12.95488281 4.09443359 -14.19882812 4.09121094 -15.48046875 4.08789062 C-16.76566406 4.07951172 -18.05085938 4.07113281 -19.375 4.0625 C-20.68339844 4.05798828 -21.99179687 4.05347656 -23.33984375 4.04882812 C-26.55994281 4.03707594 -29.7799477 4.02064543 -33 4 C-32.67 3.01 -32.34 2.02 -32 1 C-27.76417434 0.8571596 -23.52833436 0.71475403 -19.29248047 0.57275391 C-17.85107018 0.52437136 -16.4096639 0.47586935 -14.96826172 0.42724609 C-12.89812237 0.3574341 -10.82796906 0.28804973 -8.7578125 0.21875 C-7.5114502 0.17685547 -6.26508789 0.13496094 -4.98095703 0.09179688 C-3.32114289 0.04068384 -1.66060095 0 0 0 Z " fill="#3B382F" transform="translate(399,59)"/>
<path d="M0 0 C-0.33 1.65 -0.66 3.3 -1 5 C-12.385 4.505 -12.385 4.505 -24 4 C-24 3.67 -24 3.34 -24 3 C-18.39 3 -12.78 3 -7 3 C-7 2.34 -7 1.68 -7 1 C-15.415 1.495 -15.415 1.495 -24 2 C-24.33 1.34 -24.66 0.68 -25 0 C-21.39627603 -0.19676145 -17.7920131 -0.38081639 -14.1875 -0.5625 C-13.16333984 -0.61857422 -12.13917969 -0.67464844 -11.08398438 -0.73242188 C-10.10107422 -0.78076172 -9.11816406 -0.82910156 -8.10546875 -0.87890625 C-7.19949951 -0.9260376 -6.29353027 -0.97316895 -5.36010742 -1.02172852 C-3 -1 -3 -1 0 0 Z " fill="#31302A" transform="translate(455,49)"/>
<path d="M0 0 C-0.99 0.66 -1.98 1.32 -3 2 C-7.3930191 8.92233313 -8.13997703 15.94294272 -9 24 C-9.33 24 -9.66 24 -10 24 C-11.51708428 12.47835991 -11.51708428 12.47835991 -9 7 C-9.66 8.65 -10.32 10.3 -11 12 C-11.33 12 -11.66 12 -12 12 C-11.58923571 6.76275536 -10.81714069 3.70807953 -7 0 C-3.99008996 -1.27693153 -3.19515053 -1.06505018 0 0 Z " fill="#313129" transform="translate(365,224)"/>
<path d="M0 0 C0.33 0 0.66 0 1 0 C1.66 8.91 2.32 17.82 3 27 C2.34 27 1.68 27 1 27 C0.13580777 24.40742331 -0.17580932 22.65962293 -0.31640625 19.98828125 C-0.35830078 19.23095703 -0.40019531 18.47363281 -0.44335938 17.69335938 C-0.48267578 16.90767578 -0.52199219 16.12199219 -0.5625 15.3125 C-0.60568359 14.51521484 -0.64886719 13.71792969 -0.69335938 12.89648438 C-0.79927368 10.93118553 -0.90012551 8.96561504 -1 7 C-3.42999536 9.27364177 -4.42805835 10.68273845 -5 14 C-5.66 14 -6.32 14 -7 14 C-7.33 14.99 -7.66 15.98 -8 17 C-8.33 16.34 -8.66 15.68 -9 15 C-7.7796615 12.56816603 -6.51503995 10.26895497 -5.125 7.9375 C-4.74730469 7.28716797 -4.36960937 6.63683594 -3.98046875 5.96679688 C-1.18268327 1.18268327 -1.18268327 1.18268327 0 0 Z " fill="#2D2B22" transform="translate(345,122)"/>
<path d="M0 0 C2.06298828 -0.34057617 2.06298828 -0.34057617 4.5703125 -0.29296875 C5.46621094 -0.28330078 6.36210937 -0.27363281 7.28515625 -0.26367188 C8.69087891 -0.2259668 8.69087891 -0.2259668 10.125 -0.1875 C11.06988281 -0.17396484 12.01476562 -0.16042969 12.98828125 -0.14648438 C15.32608779 -0.11106306 17.66276237 -0.06167271 20 0 C20 0.99 20 1.98 20 3 C17.45873828 3.19617816 14.91739541 3.38217248 12.375 3.5625 C11.66214844 3.61857422 10.94929688 3.67464844 10.21484375 3.73242188 C5.96331896 4.02495798 2.20543653 3.89547939 -2 3 C-1.34 2.01 -0.68 1.02 0 0 Z " fill="#3C392F" transform="translate(439,28)"/>
<path d="M0 0 C0 3 0 3 -1 5 C0.32 4.01 1.64 3.02 3 2 C3.66 2.33 4.32 2.66 5 3 C-1.73341932 8.95046359 -6.37591011 10.30838701 -15.3125 10.125 C-16.14845703 10.11597656 -16.98441406 10.10695313 -17.84570312 10.09765625 C-19.89725969 10.07420989 -21.94866777 10.03834266 -24 10 C-24 9.67 -24 9.34 -24 9 C-16.08 8.505 -16.08 8.505 -8 8 C-8 7.67 -8 7.34 -8 7 C-8.66 7 -9.32 7 -10 7 C-10 6.34 -10 5.68 -10 5 C-9.030625 4.87625 -8.06125 4.7525 -7.0625 4.625 C-6.051875 4.41875 -5.04125 4.2125 -4 4 C-3.67 3.34 -3.34 2.68 -3 2 C-2.01 1.34 -1.02 0.68 0 0 Z " fill="#2A2922" transform="translate(501,247)"/>
<path d="M0 0 C0.33 0 0.66 0 1 0 C1.88809097 3.80610417 2.1346183 7.34497067 2.125 11.25 C2.12886719 12.83554687 2.12886719 12.83554687 2.1328125 14.453125 C2 17 2 17 1 18 C-1.53049402 18.07313567 -4.03304837 18.09247527 -6.5625 18.0625 C-7.27341797 18.05798828 -7.98433594 18.05347656 -8.71679688 18.04882812 C-10.47790013 18.03700864 -12.23896036 18.01907263 -14 18 C-14 17.67 -14 17.34 -14 17 C-12.783125 16.87625 -11.56625 16.7525 -10.3125 16.625 C-6.67108326 16.25468643 -4.62131592 15.44852637 -1 14 C-0.67 9.38 -0.34 4.76 0 0 Z " fill="#30302A" transform="translate(214,272)"/>
<path d="M0 0 C1.51953125 1.2734375 1.51953125 1.2734375 3 3 C2.82792764 4.99603937 2.63127708 6.99228232 2.328125 8.97265625 C1.89048308 13.01042396 1.91269006 17.00460381 1.9375 21.0625 C1.94160889 21.8373877 1.94571777 22.61227539 1.94995117 23.41064453 C1.9626384 25.27379451 1.98074874 27.13690628 2 29 C1.34 29.33 0.68 29.66 0 30 C-0.16755938 26.04924621 -0.3281242 22.09827679 -0.48217773 18.14697266 C-0.56187238 16.14079929 -0.64712518 14.13484924 -0.73242188 12.12890625 C-0.78076172 10.87207031 -0.82910156 9.61523438 -0.87890625 8.3203125 C-0.9260376 7.15773926 -0.97316895 5.99516602 -1.02172852 4.79736328 C-1 2 -1 2 0 0 Z " fill="#3E3B2F" transform="translate(404,27)"/>
<path d="M0 0 C0.66 0.33 1.32 0.66 2 1 C1.01 3.31 0.02 5.62 -1 8 C-0.01 7.67 0.98 7.34 2 7 C1.67 9.64 1.34 12.28 1 15 C-1.64 15 -4.28 15 -7 15 C-5.63408831 11.45756548 -4.09068516 8.07372071 -2.375 4.6875 C-1.70597656 3.36298828 -1.70597656 3.36298828 -1.0234375 2.01171875 C-0.68570313 1.34785156 -0.34796875 0.68398437 0 0 Z " fill="#2E2E26" transform="translate(619,253)"/>
<path d="M0 0 C1.32 0 2.64 0 4 0 C4.67467562 1.74692795 5.33944156 3.49768525 6 5.25 C6.556875 6.71179688 6.556875 6.71179688 7.125 8.203125 C8 11 8 11 8 15 C8.99 14.67 9.98 14.34 11 14 C10.34 13.34 9.68 12.68 9 12 C8.875 9.375 8.875 9.375 9 7 C11.91227269 10.28804981 13.49701212 12.59885603 14 17 C11.69 17 9.38 17 7 17 C6.32968281 15.0429132 5.66385317 13.08428887 5 11.125 C4.62875 10.03445313 4.2575 8.94390625 3.875 7.8203125 C3 5 3 5 3 3 C2.01 2.67 1.02 2.34 0 2 C0 1.34 0 0.68 0 0 Z " fill="#25251E" transform="translate(643,251)"/>
<path d="M0 0 C0.66 0.33 1.32 0.66 2 1 C3.35752296 1.11704964 4.72025888 1.17677189 6.08251953 1.20532227 C6.92324005 1.22526749 7.76396057 1.24521271 8.63015747 1.26576233 C9.99272171 1.29083107 9.99272171 1.29083107 11.3828125 1.31640625 C12.77691849 1.3475779 12.77691849 1.3475779 14.19918823 1.37937927 C17.1743821 1.44487646 20.14966577 1.50376052 23.125 1.5625 C25.13933228 1.60568506 27.15365541 1.64929934 29.16796875 1.69335938 C34.11188663 1.80055803 39.05589503 1.90182501 44 2 C44 2.33 44 2.66 44 3 C42.97116699 3.02505615 41.94233398 3.0501123 40.88232422 3.07592773 C37.04675933 3.17046052 33.21135629 3.2705672 29.37597656 3.37231445 C27.71943969 3.41549049 26.06286328 3.45717697 24.40625 3.49731445 C22.0181082 3.5554393 19.6301623 3.61900948 17.2421875 3.68359375 C16.14026566 3.70866249 16.14026566 3.70866249 15.01608276 3.73423767 C10.9269034 3.85070592 7.01688857 4.22369622 3 5 C3 4.34 3 3.68 3 3 C2.01 3.33 1.02 3.66 0 4 C-0.33 3.34 -0.66 2.68 -1 2 C-0.67 1.34 -0.34 0.68 0 0 Z " fill="#27271C" transform="translate(670,285)"/>
<path d="M0 0 C1.1171875 3.71875 1.1171875 3.71875 0.0625 6.25 C-0.4634375 7.11625 -0.4634375 7.11625 -1 8 C-0.34 8 0.32 8 1 8 C0.01 13.61 -0.98 19.22 -2 25 C-2.33 25 -2.66 25 -3 25 C-6.42777325 15.72099597 -3.46468869 8.71985408 0 0 Z " fill="#3E3E37" transform="translate(35,82)"/>
<path d="M0 0 C0.33 0 0.66 0 1 0 C1.3690205 17.85649203 1.3690205 17.85649203 -1 26 C-3.2392149 22.64117765 -3.18833263 22.01293393 -2.79296875 18.18359375 C-2.70080078 17.25482422 -2.60863281 16.32605469 -2.51367188 15.36914062 C-2.40603516 14.40169922 -2.29839844 13.43425781 -2.1875 12.4375 C-2.09146484 11.46619141 -1.99542969 10.49488281 -1.89648438 9.49414062 C-1.15198428 2.30396856 -1.15198428 2.30396856 0 0 Z " fill="#3D3A2F" transform="translate(294,139)"/>
<path d="M0 0 C15.74487472 0.96355353 15.74487472 0.96355353 23 2 C23 2.33 23 2.66 23 3 C15.08 3.33 7.16 3.66 -1 4 C-0.67 2.68 -0.34 1.36 0 0 Z " fill="#38362D" transform="translate(545,220)"/>
<path d="M0 0 C0.33 0 0.66 0 1 0 C0.98428955 0.77714355 0.9685791 1.55428711 0.95239258 2.35498047 C0.89019649 5.8615802 0.85105793 9.36806413 0.8125 12.875 C0.78736328 14.09832031 0.76222656 15.32164063 0.73632812 16.58203125 C0.72666016 17.74863281 0.71699219 18.91523437 0.70703125 20.1171875 C0.6913208 21.19597168 0.67561035 22.27475586 0.65942383 23.38623047 C0.77181396 24.24877441 0.8842041 25.11131836 1 26 C1.99 26.66 2.98 27.32 4 28 C4.33 27.34 4.66 26.68 5 26 C5.33 26.99 5.66 27.98 6 29 C3.36 29 0.72 29 -2 29 C-1.34 19.43 -0.68 9.86 0 0 Z " fill="#362E26" transform="translate(313,67)"/>
<path d="M0 0 C2.95887459 -0.08069658 5.9155659 -0.14034665 8.875 -0.1875 C9.71675781 -0.21263672 10.55851562 -0.23777344 11.42578125 -0.26367188 C12.23144531 -0.27333984 13.03710938 -0.28300781 13.8671875 -0.29296875 C14.98262939 -0.31653442 14.98262939 -0.31653442 16.12060547 -0.34057617 C17.05090576 -0.17199097 17.05090576 -0.17199097 18 0 C20 3 20 3 19.625 5.1875 C19.41875 5.785625 19.2125 6.38375 19 7 C18.01 6.67 17.02 6.34 16 6 C13.60745424 5.77439324 11.21071877 5.59151405 8.8125 5.4375 C7.54019531 5.35371094 6.26789063 5.26992188 4.95703125 5.18359375 C3.98121094 5.12300781 3.00539063 5.06242187 2 5 C2 4.67 2 4.34 2 4 C6.95 3.67 11.9 3.34 17 3 C17 2.34 17 1.68 17 1 C16.19175781 1.08378906 15.38351562 1.16757812 14.55078125 1.25390625 C13.48214844 1.35574219 12.41351563 1.45757813 11.3125 1.5625 C9.72888672 1.71912109 9.72888672 1.71912109 8.11328125 1.87890625 C5.18573914 1.99277552 2.82868856 1.70848415 0 1 C0 0.67 0 0.34 0 0 Z " fill="#2B2A23" transform="translate(323,27)"/>
<path d="M0 0 C-0.33 1.98 -0.66 3.96 -1 6 C-4.54674003 7.18224668 -6.97522995 6.89329634 -10.6875 6.5625 C-11.86699219 6.46066406 -13.04648437 6.35882813 -14.26171875 6.25390625 C-15.16535156 6.17011719 -16.06898438 6.08632813 -17 6 C-17 5.67 -17 5.34 -17 5 C-15.2300132 4.80467039 -13.45895721 4.61901118 -11.6875 4.4375 C-10.70136719 4.33308594 -9.71523438 4.22867187 -8.69921875 4.12109375 C-6 4 -6 4 -3 5 C-3 4.01 -3 3.02 -3 2 C-4.2065625 2.5259375 -4.2065625 2.5259375 -5.4375 3.0625 C-9.90346108 4.23775292 -13.49837555 3.74026713 -18 3 C-18 2.67 -18 2.34 -18 2 C-15.56281065 1.66424944 -13.12529385 1.33130715 -10.6875 1 C-9.99720703 0.90460938 -9.30691406 0.80921875 -8.59570312 0.7109375 C-5.70352927 0.31972558 -2.92235023 0 0 0 Z " fill="#25251E" transform="translate(732,282)"/>
<path d="M0 0 C0.66 0.33 1.32 0.66 2 1 C2.08107646 3.75059381 2.14052813 6.49879021 2.1875 9.25 C2.21263672 10.02730469 2.23777344 10.80460937 2.26367188 11.60546875 C2.33834499 17.42997175 2.33834499 17.42997175 0.48828125 20.546875 C-0.00285156 21.02640625 -0.49398437 21.5059375 -1 22 C-1.02895225 18.70835171 -1.0467823 15.41673601 -1.0625 12.125 C-1.07506836 10.71927734 -1.07506836 10.71927734 -1.08789062 9.28515625 C-1.09111328 8.38925781 -1.09433594 7.49335938 -1.09765625 6.5703125 C-1.10289307 5.74289551 -1.10812988 4.91547852 -1.11352539 4.06298828 C-1 2 -1 2 0 0 Z " fill="#292623" transform="translate(214,259)"/>
<path d="M0 0 C2.4375 1.0625 2.4375 1.0625 5 3 C6.3822565 7.30938792 6.37826859 9.22891403 4.375 13.3125 C1.95927135 16.04608768 0.46825232 17.03659658 -3 18 C-1.68 15.69 -0.36 13.38 1 11 C1.66 11 2.32 11 3 11 C2.53199289 6.94393835 2.12046792 3.53411321 0 0 Z " fill="#38382F" transform="translate(441,246)"/>
<path d="M0 0 C2.31 0 4.62 0 7 0 C6.67 7.92 6.34 15.84 6 24 C5.67 24 5.34 24 5 24 C4.8035969 20.70880065 4.61939255 17.41703066 4.4375 14.125 C4.38142578 13.18785156 4.32535156 12.25070313 4.26757812 11.28515625 C4.21923828 10.38925781 4.17089844 9.49335938 4.12109375 8.5703125 C4.0739624 7.74289551 4.02683105 6.91547852 3.97827148 6.06298828 C4 4 4 4 5 2 C3.68 2 2.36 2 1 2 C0.67 3.32 0.34 4.64 0 6 C0 4.02 0 2.04 0 0 Z " fill="#292923" transform="translate(287,220)"/>
<path d="M0 0 C4.25491665 0.47276852 6.22542845 2.92547477 9 6 C10.26237731 8.52475462 10.09856404 10.31200466 10.0625 13.125 C10.05347656 14.03507813 10.04445313 14.94515625 10.03515625 15.8828125 C10.02355469 16.58148438 10.01195312 17.28015625 10 18 C9.34 18 8.68 18 8 18 C7.84144531 17.11957031 7.68289063 16.23914063 7.51953125 15.33203125 C5.87050208 6.41295374 5.87050208 6.41295374 0 0 Z " fill="#3C3C30" transform="translate(498,224)"/>
<path d="M0 0 C0.99 0.33 1.98 0.66 3 1 C2.34 6.94 1.68 12.88 1 19 C0.34 18.67 -0.32 18.34 -1 18 C-1 14.7 -1 11.4 -1 8 C-1.66 7.67 -2.32 7.34 -3 7 C-2.34 7 -1.68 7 -1 7 C-0.67 4.69 -0.34 2.38 0 0 Z " fill="#413F31" transform="translate(360,62)"/>
<path d="M0 0 C0.33 0 0.66 0 1 0 C1.0270203 2.75006608 1.04684883 5.49986546 1.0625 8.25 C1.07087891 9.02730469 1.07925781 9.80460938 1.08789062 10.60546875 C1.09111328 11.35957031 1.09433594 12.11367187 1.09765625 12.890625 C1.10289307 13.58188477 1.10812988 14.27314453 1.11352539 14.98535156 C0.99437971 17.09973898 0.57618237 18.96641515 0 21 C0.99 21.33 1.98 21.66 3 22 C3.33 21.34 3.66 20.68 4 20 C4 21.32 4 22.64 4 24 C2.02 24 0.04 24 -2 24 C-1.45721733 15.98529415 -0.86494739 7.98696098 0 0 Z " fill="#2A271E" transform="translate(289,168)"/>
<path d="M0 0 C2.12985313 2.12985313 2.8899014 3.75353331 4.0625 6.5 C5.46914181 9.77883961 5.46914181 9.77883961 7 13 C5.02 13.33 3.04 13.66 1 14 C0.93941406 13.31292969 0.87882812 12.62585938 0.81640625 11.91796875 C0.73261719 11.01691406 0.64882813 10.11585938 0.5625 9.1875 C0.48128906 8.29417969 0.40007812 7.40085938 0.31640625 6.48046875 C0.06510233 3.87256441 0.06510233 3.87256441 -1 1 C-0.67 0.67 -0.34 0.34 0 0 Z " fill="#37372E" transform="translate(474,157)"/>
<path d="M0 0 C0.33 0 0.66 0 1 0 C1.33 8.58 1.66 17.16 2 26 C-0.31 25.67 -2.62 25.34 -5 25 C-5 23.68 -5 22.36 -5 21 C-4.34 21 -3.68 21 -3 21 C-3 21.99 -3 22.98 -3 24 C-2.01 24 -1.02 24 0 24 C-0.16749756 23.43829102 -0.33499512 22.87658203 -0.50756836 22.29785156 C-1.03919752 19.81709118 -1.02484355 17.76395494 -0.87890625 15.234375 C-0.83056641 14.34492188 -0.78222656 13.45546875 -0.73242188 12.5390625 C-0.67634766 11.61867188 -0.62027344 10.69828125 -0.5625 9.75 C-0.48418945 8.34621094 -0.48418945 8.34621094 -0.40429688 6.9140625 C-0.27493175 4.60901113 -0.13997966 2.30442711 0 0 Z " fill="#2D2923" transform="translate(469,263)"/>
<path d="M0 0 C0.33 0 0.66 0 1 0 C1 7.92 1 15.84 1 24 C2.65 23.67 4.3 23.34 6 23 C6 23.99 6 24.98 6 26 C3.69 26 1.38 26 -1 26 C-0.67 17.42 -0.34 8.84 0 0 Z " fill="#2C2A23" transform="translate(358,70)"/>
<path d="M0 0 C1.32 0 2.64 0 4 0 C4.66 3.3 5.32 6.6 6 10 C4.02 10.66 2.04 11.32 0 12 C0 8.04 0 4.08 0 0 Z " fill="#39362C" transform="translate(345,180)"/>
<path d="M0 0 C0.33 0 0.66 0 1 0 C1.19720979 3.58286819 1.38107522 7.16630057 1.5625 10.75 C1.61857422 11.76578125 1.67464844 12.7815625 1.73242188 13.828125 C1.78076172 14.8078125 1.82910156 15.7875 1.87890625 16.796875 C1.9260376 17.69760742 1.97316895 18.59833984 2.02172852 19.52636719 C2.00110175 21.87457408 1.67823071 23.76206702 1 26 C2.32 25.67 3.64 25.34 5 25 C5 25.99 5 26.98 5 28 C3.02 27.67 1.04 27.34 -1 27 C-0.67 18.09 -0.34 9.18 0 0 Z " fill="#2D2B23" transform="translate(288,261)"/>
<path d="M0 0 C0.33 0 0.66 0 1 0 C1.33 7.92 1.66 15.84 2 24 C-0.31 24 -2.62 24 -5 24 C-4.505 22.515 -4.505 22.515 -4 21 C-2.68 21.33 -1.36 21.66 0 22 C0 14.74 0 7.48 0 0 Z " fill="#292720" transform="translate(406,72)"/>
<path d="M0 0 C5.38837912 2.93911588 8.14710622 6.07925896 10 12 C10.29197802 14.7690819 10.19966356 17.2047102 10 20 C9.34 20 8.68 20 8 20 C7.95101563 19.14535156 7.90203125 18.29070312 7.8515625 17.41015625 C7.77679688 16.30542969 7.70203125 15.20070312 7.625 14.0625 C7.52058594 12.40927734 7.52058594 12.40927734 7.4140625 10.72265625 C7.27742188 9.82417969 7.14078125 8.92570313 7 8 C6.34 7.67 5.68 7.34 5 7 C2.375 4.5625 2.375 4.5625 0 2 C0 1.34 0 0.68 0 0 Z " fill="#23231C" transform="translate(500,222)"/>
<path d="M0 0 C0.33 0 0.66 0 1 0 C1.19456705 1.95764383 1.38044247 3.91615321 1.5625 5.875 C1.66691406 6.96554688 1.77132813 8.05609375 1.87890625 9.1796875 C2 12 2 12 1 14 C-0.32 13.67 -1.64 13.34 -3 13 C-2.67 9.7 -2.34 6.4 -2 3 C-1.34 3 -0.68 3 0 3 C0 2.01 0 1.02 0 0 Z " fill="#39362C" transform="translate(291,176)"/>
<path d="M0 0 C0.33 0.99 0.66 1.98 1 3 C0.67 3.66 0.34 4.32 0 5 C0.804375 5.268125 1.60875 5.53625 2.4375 5.8125 C3.283125 6.204375 4.12875 6.59625 5 7 C5.33 7.99 5.66 8.98 6 10 C3.03 10 0.06 10 -3 10 C-3.66 11.32 -4.32 12.64 -5 14 C-4.625 11.5625 -4.625 11.5625 -4 9 C-3.34 8.67 -2.68 8.34 -2 8 C-1.62599214 5.67284 -1.29235267 3.33882138 -1 1 C-0.67 0.67 -0.34 0.34 0 0 Z " fill="#292A23" transform="translate(453,145)"/>
<path d="M0 0 C4.95 0 9.9 0 15 0 C15.33 2.31 15.66 4.62 16 7 C11.71 6.34 7.42 5.68 3 5 C3 4.67 3 4.34 3 4 C6.63 4 10.26 4 14 4 C14 3.01 14 2.02 14 1 C9.38 1 4.76 1 0 1 C0 0.67 0 0.34 0 0 Z " fill="#2A2A26" transform="translate(445,27)"/>
<path d="M0 0 C0.609375 1.7890625 0.609375 1.7890625 1 4 C0.09048984 5.75405532 -0.83139554 7.50585464 -1.875 9.18359375 C-3.43308134 11.69924592 -4.70366905 14.34252155 -6 17 C-6.66 17 -7.32 17 -8 17 C-6.3341708 10.83643195 -3.12194714 5.51740344 0 0 Z " fill="#3C3C31" transform="translate(331,150)"/>
<path d="M0 0 C0.66 0 1.32 0 2 0 C0.20641729 4.56548325 -2.94469337 7.01066596 -7.3046875 9.109375 C-10.30492605 10.10075817 -12.66289262 10.20089415 -15.8125 10.125 C-17.27623047 10.09792969 -17.27623047 10.09792969 -18.76953125 10.0703125 C-19.50558594 10.04710937 -20.24164063 10.02390625 -21 10 C-21 9.67 -21 9.34 -21 9 C-19.71416016 8.87044922 -19.71416016 8.87044922 -18.40234375 8.73828125 C-11.18495742 7.85136455 -6.42931214 6.93573831 -1 2 C-0.67 1.34 -0.34 0.68 0 0 Z " fill="#272720" transform="translate(389,258)"/>
<path d="M0 0 C1.9140625 0.3359375 1.9140625 0.3359375 4 1 C5.99775222 4.81389061 6.08082528 6.64205947 5.125 10.875 C4.75375 11.90625 4.3825 12.9375 4 14 C2.30566082 10.9530371 1.50532888 8.17178534 0.875 4.75 C0.70742188 3.85796875 0.53984375 2.9659375 0.3671875 2.046875 C0.18542969 1.03367188 0.18542969 1.03367188 0 0 Z " fill="#3E3B33" transform="translate(389,230)"/>
<path d="M0 0 C3 1 3 1 4.6875 3.9375 C6 7 6 7 6 9 C4.02 9 2.04 9 0 9 C-0.87890625 2.84765625 -0.87890625 2.84765625 -1 1 C-0.67 0.67 -0.34 0.34 0 0 Z " fill="#3F3B31" transform="translate(294,128)"/>
<path d="M0 0 C0.78117187 0.23009766 0.78117187 0.23009766 1.578125 0.46484375 C4.63278515 1.13982511 7.63015971 1.34411118 10.75 1.5625 C11.92046875 1.64628906 13.0909375 1.73007812 14.296875 1.81640625 C15.18890625 1.87699219 16.0809375 1.93757813 17 2 C15 4 15 4 12.609375 4.16015625 C11.66578125 4.12792969 10.7221875 4.09570312 9.75 4.0625 C5.69295579 3.98253198 1.98703366 4.13793867 -2 5 C-2.33 4.01 -2.66 3.02 -3 2 C-2.01 2 -1.02 2 0 2 C0 1.34 0 0.68 0 0 Z " fill="#3B382E" transform="translate(292,27)"/>
<path d="M0 0 C0.268125 0.556875 0.53625 1.11375 0.8125 1.6875 C1.4003125 2.8321875 1.4003125 2.8321875 2 4 C2.4125 4.845625 2.825 5.69125 3.25 6.5625 C5.42090166 9.58625588 7.61199616 10.56950949 11 12 C7.96929372 13.28222189 6.96403086 12.98589446 3.8125 11.75 C1 10 1 10 0 7 C-0.03954234 4.66700175 -0.04401732 2.33291811 0 0 Z " fill="#3C3A31" transform="translate(414,229)"/>
<path d="M0 0 C0.33 0 0.66 0 1 0 C2.10228696 4.40914783 2.07654536 8.48382401 2 13 C0.68 13 -0.64 13 -2 13 C-1.835 12.13375 -1.67 11.2675 -1.5 10.375 C-0.91909293 7.02251659 -0.91909293 7.02251659 -1 3.6875 C-1 1 -1 1 0 0 Z " fill="#3B382E" transform="translate(347,166)"/>
<path d="M0 0 C1.98 0 3.96 0 6 0 C4.6875 1.9375 4.6875 1.9375 2 4 C-1.65582511 4.6575225 -5.29108788 4.87210648 -9 5 C-9 4.34 -9 3.68 -9 3 C-4.545 2.505 -4.545 2.505 0 2 C0 1.34 0 0.68 0 0 Z " fill="#3A392D" transform="translate(379,262)"/>
<path d="M0 0 C0.66 0.66 1.32 1.32 2 2 C1.401875 3.175625 0.80375 4.35125 0.1875 5.5625 C-1.20013638 8.31815953 -2.46809356 11.07786459 -3.625 13.9375 C-5 17 -5 17 -7 18 C-6.29573599 14.86348402 -5.26593833 11.97907753 -4.0625 9 C-3.72347656 8.154375 -3.38445312 7.30875 -3.03515625 6.4375 C-2.10255158 4.24147996 -1.09400759 2.11933309 0 0 Z " fill="#3B3931" transform="translate(457,131)"/>
<path d="M0 0 C0.99 0.66 1.98 1.32 3 2 C2.071875 3.299375 2.071875 3.299375 1.125 4.625 C-0.84654784 7.75628186 -1.98966991 10.46384469 -3 14 C-3.99 14 -4.98 14 -6 14 C-5.505 12.906875 -5.01 11.81375 -4.5 10.6875 C-2.81160094 7.20033755 -2.81160094 7.20033755 -3 4 C-2.34 4 -1.68 4 -1 4 C-0.67 2.68 -0.34 1.36 0 0 Z " fill="#3D3C30" transform="translate(623,247)"/>
<path d="M0 0 C2 2 2 2 2.1875 4.375 C0.455565 8.20348789 -2.28150794 8.80689783 -6.06640625 10.30078125 C-6.70449219 10.53152344 -7.34257812 10.76226562 -8 11 C-8.33 10.34 -8.66 9.68 -9 9 C-7.02 8.67 -5.04 8.34 -3 8 C-3 7.34 -3 6.68 -3 6 C-2.01 6 -1.02 6 0 6 C0 5.34 0 4.68 0 4 C-0.99 3.67 -1.98 3.34 -3 3 C-2.01 2.01 -1.02 1.02 0 0 Z " fill="#272621" transform="translate(425,160)"/>
<path d="M0 0 C5.78897798 -0.48241483 10.2283424 0.52018141 15 4 C15.33 4.99 15.66 5.98 16 7 C15.29488281 6.70351562 14.58976562 6.40703125 13.86328125 6.1015625 C10.99677739 4.9987602 8.15507468 4.16158606 5.1875 3.375 C4.21167969 3.11460938 3.23585938 2.85421875 2.23046875 2.5859375 C1.49441406 2.39257812 0.75835937 2.19921875 0 2 C0 1.34 0 0.68 0 0 Z " fill="#39372F" transform="translate(410,124)"/>
<path d="M0 0 C0.99 0 1.98 0 3 0 C3 5.28 3 10.56 3 16 C2.34 16 1.68 16 1 16 C1 12.04 1 8.08 1 4 C0.34 3.67 -0.32 3.34 -1 3 C-0.67 2.01 -0.34 1.02 0 0 Z " fill="#2B2922" transform="translate(401,27)"/>
<path d="M0 0 C0.66 0 1.32 0 2 0 C2.19335938 0.62648437 2.38671875 1.25296875 2.5859375 1.8984375 C2.97652344 3.12433594 2.97652344 3.12433594 3.375 4.375 C3.63023437 5.18710937 3.88546875 5.99921875 4.1484375 6.8359375 C4.89854283 9.16459185 4.89854283 9.16459185 7 11 C6.34 11.66 5.68 12.32 5 13 C3 12 3 12 2.1484375 10.0390625 C1.89320313 9.24242187 1.63796875 8.44578125 1.375 7.625 C1.11460937 6.83351563 0.85421875 6.04203125 0.5859375 5.2265625 C0 3 0 3 0 0 Z " fill="#3B3A31" transform="translate(648,254)"/>
<path d="M0 0 C0.33 0.99 0.66 1.98 1 3 C-3.95 2.67 -8.9 2.34 -14 2 C-14 1.67 -14 1.34 -14 1 C-9.23692563 0.04738513 -4.8333472 -0.08333357 0 0 Z " fill="#39372E" transform="translate(340,28)"/>
<path d="M0 0 C5.61 0 11.22 0 17 0 C17 0.33 17 0.66 17 1 C9.08 1.495 9.08 1.495 1 2 C1 3.65 1 5.3 1 7 C-0.0625 5.1875 -0.0625 5.1875 -1 3 C-0.67 2.01 -0.34 1.02 0 0 Z " fill="#332E26" transform="translate(469,223)"/>
<path d="M0 0 C2.33936818 2.12669835 3.80653848 4.06224856 5 7 C5 7.99 5 8.98 5 10 C5.66 10.33 6.32 10.66 7 11 C6.01 11 5.02 11 4 11 C3.1361871 9.54735962 2.28419546 8.0876837 1.4375 6.625 C0.72400391 5.40683594 0.72400391 5.40683594 -0.00390625 4.1640625 C-0.33261719 3.44992188 -0.66132813 2.73578125 -1 2 C-0.67 1.34 -0.34 0.68 0 0 Z " fill="#3D3A30" transform="translate(301,139)"/>
<path d="M0 0 C0.99 0.33 1.98 0.66 3 1 C2.01 1.495 2.01 1.495 1 2 C0.26924352 4.3140622 -0.40138258 6.64828869 -1 9 C-1.66 9 -2.32 9 -3 9 C-3.33 9.99 -3.66 10.98 -4 12 C-4.99 11.67 -5.98 11.34 -7 11 C-6.21625 10.113125 -5.4325 9.22625 -4.625 8.3125 C-2.42843009 5.69279481 -1.06209659 3.28284399 0 0 Z " fill="#2D2C21" transform="translate(389,250)"/>
<path d="M0 0 C1.2684375 0.495 1.2684375 0.495 2.5625 1 C6.00345525 2.17458096 6.00345525 2.17458096 9.75 2 C10.8225 2 11.895 2 13 2 C13.66 2.66 14.32 3.32 15 4 C11.82255978 5.01562016 9.62171611 4.96666643 6.375 4.25 C5.21097656 4.01023438 5.21097656 4.01023438 4.0234375 3.765625 C2 3 2 3 0 0 Z " fill="#333129" transform="translate(415,239)"/>
<path d="M0 0 C0.33 0 0.66 0 1 0 C1.33 4.95 1.66 9.9 2 15 C1.01 15 0.02 15 -1 15 C-0.67 10.05 -0.34 5.1 0 0 Z " fill="#3E3C31" transform="translate(369,176)"/>
<path d="M0 0 C2.6855594 2.6855594 3.06049974 5.37621328 4 9 C4.66 9 5.32 9 6 9 C6 9.66 6 10.32 6 11 C4.1875 10.4375 4.1875 10.4375 2 9 C0.1875 5.5 0.1875 5.5 -1 2 C-0.67 1.34 -0.34 0.68 0 0 Z " fill="#3C3B31" transform="translate(388,152)"/>
<path d="M0 0 C3.64775386 3.88309282 4.58525633 6.71201818 5 12 C1.75254486 7.86687528 0 5.36067372 0 0 Z " fill="#3A3931" transform="translate(640,235)"/>
<path d="M0 0 C4.67461851 -0.32613618 7.16674383 0.29417212 11 3 C10.67 3.66 10.34 4.32 10 5 C6.7 4.01 3.4 3.02 0 2 C0 1.34 0 0.68 0 0 Z " fill="#38372E" transform="translate(375,221)"/>
<path d="M0 0 C2.64 0 5.28 0 8 0 C8 0.33 8 0.66 8 1 C6.35 1.33 4.7 1.66 3 2 C2.67 4.97 2.34 7.94 2 11 C1.67 11 1.34 11 1 11 C0.67 7.37 0.34 3.74 0 0 Z " fill="#2B2820" transform="translate(464,220)"/>
<path d="M0 0 C0.33 0.66 0.66 1.32 1 2 C-0.21484375 4.6015625 -0.21484375 4.6015625 -1.9375 7.625 C-2.78634766 9.12933594 -2.78634766 9.12933594 -3.65234375 10.6640625 C-4.09707031 11.43492187 -4.54179687 12.20578125 -5 13 C-6 10 -6 10 -4.75 7.0625 C-3.30257116 4.52949952 -1.82887547 2.26432201 0 0 Z " fill="#27261E" transform="translate(330,157)"/>
<path d="M0 0 C0.66 1.32 1.32 2.64 2 4 C1.01 4.495 1.01 4.495 0 5 C1.32 5.33 2.64 5.66 4 6 C1.69 5.67 -0.62 5.34 -3 5 C-2.625 3.0625 -2.625 3.0625 -2 1 C-1.34 0.67 -0.68 0.34 0 0 Z " fill="#2E2D24" transform="translate(627,243)"/>
<path d="M0 0 C6.6 0 13.2 0 20 0 C20 0.33 20 0.66 20 1 C13.4 1.33 6.8 1.66 0 2 C0 1.34 0 0.68 0 0 Z " fill="#000000" transform="translate(89,236)"/>
<path d="M0 0 C1.15957207 3.47871621 0.77456651 4.34219645 -0.4375 7.6875 C-0.72496094 8.49574219 -1.01242187 9.30398437 -1.30859375 10.13671875 C-1.53675781 10.75160156 -1.76492188 11.36648437 -2 12 C-2.99 11.67 -3.98 11.34 -5 11 C-4.54658132 9.72740489 -4.08704773 8.45698757 -3.625 7.1875 C-3.36976563 6.47980469 -3.11453125 5.77210938 -2.8515625 5.04296875 C-2 3 -2 3 0 0 Z " fill="#2D2B24" transform="translate(447,159)"/>
<path d="M0 0 C0.99 0 1.98 0 3 0 C3.6875 1.8125 3.6875 1.8125 4 4 C2.5625 5.75 2.5625 5.75 1 7 C0.34 6.67 -0.32 6.34 -1 6 C-0.67 4.02 -0.34 2.04 0 0 Z " fill="#3B392E" transform="translate(427,67)"/>
<path d="M0 0 C0.99 0 1.98 0 3 0 C3 0.66 3 1.32 3 2 C2.01 2 1.02 2 0 2 C0.66 2.66 1.32 3.32 2 4 C2.66 4.66 3.32 5.32 4 6 C2.02 6.33 0.04 6.66 -2 7 C-1.125 1.125 -1.125 1.125 0 0 Z " fill="#272621" transform="translate(289,27)"/>
<path d="M0 0 C1.32 0.33 2.64 0.66 4 1 C4 3.31 4 5.62 4 8 C2.68 7.34 1.36 6.68 0 6 C0.185625 5.38125 0.37125 4.7625 0.5625 4.125 C1.23686176 1.95839822 1.23686176 1.95839822 0 0 Z " fill="#3C3A2F" transform="translate(570,222)"/>
<path d="M0 0 C0.33 0 0.66 0 1 0 C1.33 5.28 1.66 10.56 2 16 C1.34 16 0.68 16 0 16 C-1.18224668 12.45325997 -0.89329634 10.02477005 -0.5625 6.3125 C-0.46066406 5.13300781 -0.35882813 3.95351562 -0.25390625 2.73828125 C-0.17011719 1.83464844 -0.08632813 0.93101562 0 0 Z " fill="#28281F" transform="translate(346,133)"/>
<path d="M0 0 C0.66 0 1.32 0 2 0 C2 2.31 2 4.62 2 7 C0.68 6.67 -0.64 6.34 -2 6 C-1.34 4.02 -0.68 2.04 0 0 Z " fill="#3E3D31" transform="translate(290,183)"/>
<path d="M0 0 C0.66 0.33 1.32 0.66 2 1 C1.34 2.65 0.68 4.3 0 6 C-0.99 6 -1.98 6 -3 6 C-3.33 5.01 -3.66 4.02 -4 3 C-2.68 2.01 -1.36 1.02 0 0 Z " fill="#37372A" transform="translate(393,130)"/>
<path d="M0 0 C2.97 0.99 5.94 1.98 9 3 C9 3.33 9 3.66 9 4 C7.02 4.33 5.04 4.66 3 5 C3 4.34 3 3.68 3 3 C2.01 3.33 1.02 3.66 0 4 C-0.33 3.34 -0.66 2.68 -1 2 C-0.67 1.34 -0.34 0.68 0 0 Z " fill="#161510" transform="translate(670,285)"/>
<path d="M0 0 C2 3 2 3 2 6 C-0.97 5.67 -3.94 5.34 -7 5 C-5.68 4.34 -4.36 3.68 -3 3 C-2.01 3.33 -1.02 3.66 0 4 C0 2.68 0 1.36 0 0 Z " fill="#22251E" transform="translate(598,220)"/>
<path d="M0 0 C0.66 0.33 1.32 0.66 2 1 C0.68 3.31 -0.64 5.62 -2 8 C-2.99 7.01 -3.98 6.02 -5 5 C-4.67 4.34 -4.34 3.68 -4 3 C-3.34 3.33 -2.68 3.66 -2 4 C-1.34 2.68 -0.68 1.36 0 0 Z " fill="#2B2B25" transform="translate(322,171)"/>
<path d="M0 0 C0.66 1.32 1.32 2.64 2 4 C2.66 4 3.32 4 4 4 C3.67 4.66 3.34 5.32 3 6 C1.68 6 0.36 6 -1 6 C-0.67 4.02 -0.34 2.04 0 0 Z " fill="#3F3D2F" transform="translate(290,281)"/>
<path d="M0 0 C1.32 0.33 2.64 0.66 4 1 C4.33 2.65 4.66 4.3 5 6 C2.5 4.6875 2.5 4.6875 0 3 C0 2.01 0 1.02 0 0 Z " fill="#37352C" transform="translate(389,230)"/>
<path d="M0 0 C4.75 0.75 4.75 0.75 7 3 C6.625 5.125 6.625 5.125 6 7 C5.38125 6.21625 4.7625 5.4325 4.125 4.625 C2.10141339 2.03162353 2.10141339 2.03162353 0 0 Z " fill="#21211C" transform="translate(497,226)"/>
<path d="M0 0 C0.99 0.99 1.98 1.98 3 3 C2.67 3.99 2.34 4.98 2 6 C-0.0625 6.6875 -0.0625 6.6875 -2 7 C-1.34 4.69 -0.68 2.38 0 0 Z " fill="#3A3B31" transform="translate(634,222)"/>
<path d="M0 0 C3.77545388 1.09068668 6.47043472 1.9083091 9 5 C8.67 5.66 8.34 6.32 8 7 C7.01 6.34 6.02 5.68 5 5 C5 4.34 5 3.68 5 3 C2.525 2.01 2.525 2.01 0 1 C0 0.67 0 0.34 0 0 Z " fill="#282821" transform="translate(381,221)"/>
<path d="M0 0 C0.33 0.66 0.66 1.32 1 2 C3.02463255 2.65213292 3.02463255 2.65213292 5 3 C5.33 2.34 5.66 1.68 6 1 C6.33 1.99 6.66 2.98 7 4 C4.36 4 1.72 4 -1 4 C-0.67 2.68 -0.34 1.36 0 0 Z " fill="#22221B" transform="translate(312,92)"/>
<path d="M0 0 C1.32 1.65 2.64 3.3 4 5 C2.68 4.34 1.36 3.68 0 3 C0 2.01 0 1.02 0 0 Z " fill="#000000" transform="translate(69,233)"/>
<path d="M0 0 C1.32 0.33 2.64 0.66 4 1 C2.68 1.33 1.36 1.66 0 2 C0 1.34 0 0.68 0 0 Z " fill="#000000" transform="translate(125,234)"/>
<path d="M0 0 C0.33 0.99 0.66 1.98 1 3 C0.01 2.67 -0.98 2.34 -2 2 C-1.34 2 -0.68 2 0 2 C0 1.34 0 0.68 0 0 Z " fill="#000000" transform="translate(116,225)"/>
<path d="M0 0 C1.65 0 3.3 0 5 0 C5 0.33 5 0.66 5 1 C3.35 1 1.7 1 0 1 C0 0.67 0 0.34 0 0 Z " fill="#000000" transform="translate(125,225)"/>
<path d="M0 0 C1.32 0.33 2.64 0.66 4 1 C3.01 1.495 3.01 1.495 2 2 C1.34 1.34 0.68 0.68 0 0 Z " fill="#000000" transform="translate(150,131)"/>
<path d="M0 0 C1 4 1 4 1 4 Z " fill="#000000" transform="translate(81,87)"/>
<path d="M0 0 C0.66 0 1.32 0 2 0 C1.67 0.66 1.34 1.32 1 2 C0.67 1.34 0.34 0.68 0 0 Z " fill="#000000" transform="translate(122,198)"/>
<path d="" fill="#000000" transform="translate(0,0)"/>
<path d="M0 0 C0.66 0.66 1.32 1.32 2 2 C1.34 2 0.68 2 0 2 C0 1.34 0 0.68 0 0 Z " fill="#000000" transform="translate(161,94)"/>
<path d="M0 0 C2 1 2 1 2 1 Z " fill="#000000" transform="translate(571,289)"/>
<path d="M0 0 C2 1 2 1 2 1 Z " fill="#000000" transform="translate(79,245)"/>
<path d="M0 0 C2 1 2 1 2 1 Z " fill="#000000" transform="translate(82,244)"/>
<path d="" fill="#000000" transform="translate(0,0)"/>
<path d="" fill="#000000" transform="translate(0,0)"/>
<path d="" fill="#000000" transform="translate(0,0)"/>
<path d="" fill="#000000" transform="translate(0,0)"/>
<path d="M0 0 C2 1 2 1 2 1 Z " fill="#000000" transform="translate(145,221)"/>
<path d="M0 0 C2 1 2 1 2 1 Z " fill="#000000" transform="translate(69,218)"/>
<path d="" fill="#000000" transform="translate(0,0)"/>
<path d="" fill="#000000" transform="translate(0,0)"/>
<path d="" fill="#000000" transform="translate(0,0)"/>
<path d="" fill="#000000" transform="translate(0,0)"/>
<path d="" fill="#000000" transform="translate(0,0)"/>
<path d="" fill="#000000" transform="translate(0,0)"/>
<path d="M0 0 C2 1 2 1 2 1 Z " fill="#000000" transform="translate(147,132)"/>
<path d="" fill="#000000" transform="translate(0,0)"/>
<path d="" fill="#000000" transform="translate(0,0)"/>
<path d="M0 0 C2 1 2 1 2 1 Z " fill="#000000" transform="translate(137,81)"/>
<path d="" fill="#202020" transform="translate(0,0)"/>
<path d="" fill="#FFFFFF" transform="translate(0,0)"/>
<path d="" fill="#FFFFFF" transform="translate(0,0)"/>
<path d="" fill="#FFFFFF" transform="translate(0,0)"/>
<path d="" fill="#FFFFFF" transform="translate(0,0)"/>
<path d="" fill="#000000" transform="translate(0,0)"/>
<path d="" fill="#FFFFFF" transform="translate(0,0)"/>
<path d="" fill="#FFFFFF" transform="translate(0,0)"/>
<path d="" fill="#000000" transform="translate(0,0)"/>
<path d="" fill="#000000" transform="translate(0,0)"/>
<path d="" fill="#000000" transform="translate(0,0)"/>
<path d="" fill="#FFFFFF" transform="translate(0,0)"/>
<path d="" fill="#FFFFFF" transform="translate(0,0)"/>
<path d="" fill="#FFFFFF" transform="translate(0,0)"/>
<path d="" fill="#FFFFFF" transform="translate(0,0)"/>
<path d="" fill="#FFFFFF" transform="translate(0,0)"/>
<path d="" fill="#FFFFFF" transform="translate(0,0)"/>
<path d="" fill="#000000" transform="translate(0,0)"/>
<path d="" fill="#000000" transform="translate(0,0)"/>
<path d="" fill="#000000" transform="translate(0,0)"/>
<path d="" fill="#000000" transform="translate(0,0)"/>
<path d="" fill="#000000" transform="translate(0,0)"/>
<path d="" fill="#000000" transform="translate(0,0)"/>
<path d="" fill="#FFFFFF" transform="translate(0,0)"/>
<path d="" fill="#000000" transform="translate(0,0)"/>
<path d="" fill="#242424" transform="translate(0,0)"/>
<path d="" fill="#000000" transform="translate(0,0)"/>
<path d="" fill="#000000" transform="translate(0,0)"/>
<path d="" fill="#FFFFFF" transform="translate(0,0)"/>
<path d="" fill="#000000" transform="translate(0,0)"/>
<path d="" fill="#000000" transform="translate(0,0)"/>
<path d="" fill="#000000" transform="translate(0,0)"/>
<path d="" fill="#000000" transform="translate(0,0)"/>
<path d="" fill="#000000" transform="translate(0,0)"/>
<path d="" fill="#000000" transform="translate(0,0)"/>
<path d="" fill="#000000" transform="translate(0,0)"/>
<path d="" fill="#000000" transform="translate(0,0)"/>
<path d="" fill="#000000" transform="translate(0,0)"/>
<path d="" fill="#000000" transform="translate(0,0)"/>
<path d="" fill="#000000" transform="translate(0,0)"/>
<path d="" fill="#FFFFFF" transform="translate(0,0)"/>
<path d="" fill="#000000" transform="translate(0,0)"/>
<path d="" fill="#000000" transform="translate(0,0)"/>
<path d="" fill="#000000" transform="translate(0,0)"/>
<path d="" fill="#000000" transform="translate(0,0)"/>
<path d="" fill="#000000" transform="translate(0,0)"/>
<path d="" fill="#000000" transform="translate(0,0)"/>
<path d="" fill="#000000" transform="translate(0,0)"/>
<path d="" fill="#000000" transform="translate(0,0)"/>
<path d="" fill="#000000" transform="translate(0,0)"/>
<path d="" fill="#FFFFFF" transform="translate(0,0)"/>
<path d="" fill="#000000" transform="translate(0,0)"/>
<path d="" fill="#000000" transform="translate(0,0)"/>
<path d="" fill="#000000" transform="translate(0,0)"/>
<path d="" fill="#FFFFFF" transform="translate(0,0)"/>
<path d="" fill="#404040" transform="translate(0,0)"/>
<path d="" fill="#000000" transform="translate(0,0)"/>
<path d="" fill="#000000" transform="translate(0,0)"/>
<path d="" fill="#333333" transform="translate(0,0)"/>
<path d="" fill="#000000" transform="translate(0,0)"/>
<path d="" fill="#000000" transform="translate(0,0)"/>
<path d="" fill="#000000" transform="translate(0,0)"/>
<path d="" fill="#000000" transform="translate(0,0)"/>
<path d="" fill="#000000" transform="translate(0,0)"/>
<path d="" fill="#000000" transform="translate(0,0)"/>
<path d="" fill="#000000" transform="translate(0,0)"/>
<path d="" fill="#000000" transform="translate(0,0)"/>
<path d="" fill="#000000" transform="translate(0,0)"/>
<path d="" fill="#000000" transform="translate(0,0)"/>
<path d="" fill="#000000" transform="translate(0,0)"/>
<path d="" fill="#000000" transform="translate(0,0)"/>
<path d="" fill="#FFFFFF" transform="translate(0,0)"/>
<path d="" fill="#000000" transform="translate(0,0)"/>
<path d="" fill="#000000" transform="translate(0,0)"/>
<path d="" fill="#000000" transform="translate(0,0)"/>
<path d="" fill="#FFFFFF" transform="translate(0,0)"/>
<path d="" fill="#000000" transform="translate(0,0)"/>
<path d="" fill="#000000" transform="translate(0,0)"/>
<path d="" fill="#000000" transform="translate(0,0)"/>
<path d="" fill="#FFFFFF" transform="translate(0,0)"/>
<path d="" fill="#FFFFFF" transform="translate(0,0)"/>
<path d="" fill="#000000" transform="translate(0,0)"/>
<path d="" fill="#FFFFFF" transform="translate(0,0)"/>
<path d="" fill="#FFFFFF" transform="translate(0,0)"/>
<path d="" fill="#FFFFFF" transform="translate(0,0)"/>
<path d="" fill="#FFFFFF" transform="translate(0,0)"/>
<path d="" fill="#000000" transform="translate(0,0)"/>
<path d="" fill="#FFFFFF" transform="translate(0,0)"/>
<path d="" fill="#000000" transform="translate(0,0)"/>
<path d="" fill="#FFFFFF" transform="translate(0,0)"/>
<path d="" fill="#000000" transform="translate(0,0)"/>
<path d="" fill="#000000" transform="translate(0,0)"/>
<path d="" fill="#FFFFFF" transform="translate(0,0)"/>
<path d="" fill="#000000" transform="translate(0,0)"/>
<path d="" fill="#000000" transform="translate(0,0)"/>
<path d="" fill="#000000" transform="translate(0,0)"/>
<path d="" fill="#000000" transform="translate(0,0)"/>
<path d="" fill="#000000" transform="translate(0,0)"/>
<path d="" fill="#FFFFFF" transform="translate(0,0)"/>
<path d="" fill="#000000" transform="translate(0,0)"/>
<path d="" fill="#000000" transform="translate(0,0)"/>
<path d="" fill="#000000" transform="translate(0,0)"/>
<path d="" fill="#000000" transform="translate(0,0)"/>
<path d="" fill="#000000" transform="translate(0,0)"/>
<path d="" fill="#000000" transform="translate(0,0)"/>
<path d="" fill="#000000" transform="translate(0,0)"/>
<path d="" fill="#000000" transform="translate(0,0)"/>
<path d="" fill="#000000" transform="translate(0,0)"/>
<path d="" fill="#000000" transform="translate(0,0)"/>
<path d="" fill="#FFFFFF" transform="translate(0,0)"/>
<path d="" fill="#000000" transform="translate(0,0)"/>
<path d="" fill="#000000" transform="translate(0,0)"/>
<path d="" fill="#000000" transform="translate(0,0)"/>
<path d="" fill="#000000" transform="translate(0,0)"/>
<path d="" fill="#000000" transform="translate(0,0)"/>
<path d="" fill="#FFFFFF" transform="translate(0,0)"/>
<path d="" fill="#FFFFFF" transform="translate(0,0)"/>
<path d="" fill="#000000" transform="translate(0,0)"/>
<path d="" fill="#000000" transform="translate(0,0)"/>
<path d="" fill="#000000" transform="translate(0,0)"/>
<path d="" fill="#FFFFFF" transform="translate(0,0)"/>
<path d="" fill="#000000" transform="translate(0,0)"/>
<path d="" fill="#000000" transform="translate(0,0)"/>
<path d="" fill="#FFFFFF" transform="translate(0,0)"/>
<path d="" fill="#2B2B2B" transform="translate(0,0)"/>
<path d="" fill="#000000" transform="translate(0,0)"/>
<path d="" fill="#FFFFFF" transform="translate(0,0)"/>
<path d="" fill="#000000" transform="translate(0,0)"/>
<path d="" fill="#000000" transform="translate(0,0)"/>
<path d="" fill="#404040" transform="translate(0,0)"/>
<path d="" fill="#000000" transform="translate(0,0)"/>
<path d="" fill="#000000" transform="translate(0,0)"/>
<path d="" fill="#000000" transform="translate(0,0)"/>
<path d="" fill="#000000" transform="translate(0,0)"/>
<path d="" fill="#000000" transform="translate(0,0)"/>
<path d="" fill="#000000" transform="translate(0,0)"/>
<path d="" fill="#000000" transform="translate(0,0)"/>
<path d="" fill="#000000" transform="translate(0,0)"/>
<path d="" fill="#333333" transform="translate(0,0)"/>
<path d="" fill="#000000" transform="translate(0,0)"/>
<path d="" fill="#000000" transform="translate(0,0)"/>
<path d="" fill="#000000" transform="translate(0,0)"/>
<path d="" fill="#000000" transform="translate(0,0)"/>
<path d="" fill="#000000" transform="translate(0,0)"/>
<path d="" fill="#000000" transform="translate(0,0)"/>
<path d="" fill="#555500" transform="translate(0,0)"/>
<path d="" fill="#FFFFFF" transform="translate(0,0)"/>
<path d="" fill="#000000" transform="translate(0,0)"/>
<path d="" fill="#000000" transform="translate(0,0)"/>
<path d="" fill="#000000" transform="translate(0,0)"/>
<path d="" fill="#000000" transform="translate(0,0)"/>
<path d="" fill="#000000" transform="translate(0,0)"/>
<path d="" fill="#000000" transform="translate(0,0)"/>
<path d="" fill="#000000" transform="translate(0,0)"/>
<path d="" fill="#000000" transform="translate(0,0)"/>
<path d="" fill="#000000" transform="translate(0,0)"/>
<path d="" fill="#000000" transform="translate(0,0)"/>
<path d="" fill="#000000" transform="translate(0,0)"/>
<path d="" fill="#000000" transform="translate(0,0)"/>
<path d="" fill="#000000" transform="translate(0,0)"/>
<path d="" fill="#000000" transform="translate(0,0)"/>
<path d="" fill="#000000" transform="translate(0,0)"/>
<path d="" fill="#000000" transform="translate(0,0)"/>
<path d="" fill="#000000" transform="translate(0,0)"/>
<path d="" fill="#404040" transform="translate(0,0)"/>
<path d="" fill="#000000" transform="translate(0,0)"/>
<path d="" fill="#404000" transform="translate(0,0)"/>
<path d="" fill="#000000" transform="translate(0,0)"/>
<path d="" fill="#000000" transform="translate(0,0)"/>
<path d="" fill="#FFFFFF" transform="translate(0,0)"/>
<path d="" fill="#000000" transform="translate(0,0)"/>
<path d="" fill="#000000" transform="translate(0,0)"/>
<path d="" fill="#000000" transform="translate(0,0)"/>
<path d="" fill="#000000" transform="translate(0,0)"/>
<path d="" fill="#000000" transform="translate(0,0)"/>
<path d="" fill="#FFFFFF" transform="translate(0,0)"/>
<path d="" fill="#FFFFFF" transform="translate(0,0)"/>
<path d="" fill="#FFFFFF" transform="translate(0,0)"/>
<path d="" fill="#FFFFFF" transform="translate(0,0)"/>
<path d="" fill="#000000" transform="translate(0,0)"/>
<path d="" fill="#000000" transform="translate(0,0)"/>
<path d="" fill="#000000" transform="translate(0,0)"/>
<path d="" fill="#000000" transform="translate(0,0)"/>
<path d="" fill="#FFFFFF" transform="translate(0,0)"/>
<path d="" fill="#000000" transform="translate(0,0)"/>
<path d="" fill="#000000" transform="translate(0,0)"/>
<path d="" fill="#000000" transform="translate(0,0)"/>
<path d="" fill="#000000" transform="translate(0,0)"/>
<path d="" fill="#000000" transform="translate(0,0)"/>
<path d="" fill="#000000" transform="translate(0,0)"/>
<path d="" fill="#000000" transform="translate(0,0)"/>
<path d="" fill="#000000" transform="translate(0,0)"/>
<path d="" fill="#000000" transform="translate(0,0)"/>
<path d="" fill="#000000" transform="translate(0,0)"/>
<path d="" fill="#000000" transform="translate(0,0)"/>
<path d="" fill="#000000" transform="translate(0,0)"/>
<path d="" fill="#000000" transform="translate(0,0)"/>
<path d="" fill="#000000" transform="translate(0,0)"/>
<path d="" fill="#FFFFFF" transform="translate(0,0)"/>
<path d="" fill="#202020" transform="translate(0,0)"/>
<path d="" fill="#000000" transform="translate(0,0)"/>
<path d="" fill="#000000" transform="translate(0,0)"/>
<path d="" fill="#000000" transform="translate(0,0)"/>
<path d="" fill="#FFFFFF" transform="translate(0,0)"/>
<path d="" fill="#000000" transform="translate(0,0)"/>
<path d="" fill="#000000" transform="translate(0,0)"/>
<path d="" fill="#FFFFFF" transform="translate(0,0)"/>
<path d="" fill="#FFFFFF" transform="translate(0,0)"/>
<path d="" fill="#000000" transform="translate(0,0)"/>
<path d="" fill="#000000" transform="translate(0,0)"/>
<path d="" fill="#000000" transform="translate(0,0)"/>
<path d="" fill="#FFFFFF" transform="translate(0,0)"/>
<path d="" fill="#000000" transform="translate(0,0)"/>
<path d="" fill="#000000" transform="translate(0,0)"/>
<path d="" fill="#000000" transform="translate(0,0)"/>
<path d="" fill="#000000" transform="translate(0,0)"/>
<path d="" fill="#000000" transform="translate(0,0)"/>
<path d="" fill="#FFFFFF" transform="translate(0,0)"/>
<path d="" fill="#FFFFFF" transform="translate(0,0)"/>
<path d="" fill="#000000" transform="translate(0,0)"/>
<path d="" fill="#FFFFFF" transform="translate(0,0)"/>
<path d="" fill="#FFFFFF" transform="translate(0,0)"/>
<path d="" fill="#FFFFFF" transform="translate(0,0)"/>
<path d="" fill="#FFFFFF" transform="translate(0,0)"/>
<path d="" fill="#000000" transform="translate(0,0)"/>
<path d="" fill="#FFFFFF" transform="translate(0,0)"/>
<path d="" fill="#000000" transform="translate(0,0)"/>
<path d="" fill="#000000" transform="translate(0,0)"/>
<path d="" fill="#000000" transform="translate(0,0)"/>
<path d="" fill="#000000" transform="translate(0,0)"/>
<path d="" fill="#000000" transform="translate(0,0)"/>
<path d="" fill="#000000" transform="translate(0,0)"/>
<path d="" fill="#000000" transform="translate(0,0)"/>
<path d="" fill="#404000" transform="translate(0,0)"/>
<path d="" fill="#000000" transform="translate(0,0)"/>
<path d="" fill="#000000" transform="translate(0,0)"/>
<path d="" fill="#000000" transform="translate(0,0)"/>
<path d="" fill="#000000" transform="translate(0,0)"/>
<path d="" fill="#000000" transform="translate(0,0)"/>
<path d="" fill="#000000" transform="translate(0,0)"/>
<path d="" fill="#000000" transform="translate(0,0)"/>
<path d="" fill="#000000" transform="translate(0,0)"/>
<path d="" fill="#FFFFFF" transform="translate(0,0)"/>
<path d="" fill="#000000" transform="translate(0,0)"/>
<path d="" fill="#000000" transform="translate(0,0)"/>
<path d="" fill="#000000" transform="translate(0,0)"/>
<path d="" fill="#000000" transform="translate(0,0)"/>
<path d="" fill="#000000" transform="translate(0,0)"/>
<path d="" fill="#000000" transform="translate(0,0)"/>
<path d="" fill="#FFFFFF" transform="translate(0,0)"/>
<path d="" fill="#000000" transform="translate(0,0)"/>
<path d="" fill="#000000" transform="translate(0,0)"/>
<path d="" fill="#FFFFFF" transform="translate(0,0)"/>
<path d="" fill="#FFFFFF" transform="translate(0,0)"/>
<path d="" fill="#000000" transform="translate(0,0)"/>
<path d="" fill="#FFFFFF" transform="translate(0,0)"/>
<path d="" fill="#000000" transform="translate(0,0)"/>
<path d="" fill="#FFFFFF" transform="translate(0,0)"/>
<path d="" fill="#FFFFFF" transform="translate(0,0)"/>
<path d="" fill="#FFFFFF" transform="translate(0,0)"/>
<path d="" fill="#550000" transform="translate(0,0)"/>
<path d="" fill="#FFFFFF" transform="translate(0,0)"/>
<path d="" fill="#FFFFFF" transform="translate(0,0)"/>
<path d="" fill="#FFFFFF" transform="translate(0,0)"/>
<path d="" fill="#FFFFFF" transform="translate(0,0)"/>
<path d="" fill="#FFFFFF" transform="translate(0,0)"/>
<path d="" fill="#404040" transform="translate(0,0)"/>
<path d="" fill="#000000" transform="translate(0,0)"/>
<path d="" fill="#FFFFFF" transform="translate(0,0)"/>
<path d="" fill="#FFFFFF" transform="translate(0,0)"/>
<path d="" fill="#FFFFFF" transform="translate(0,0)"/>
<path d="" fill="#FFFFFF" transform="translate(0,0)"/>
<path d="" fill="#FFFFFF" transform="translate(0,0)"/>
<path d="" fill="#FFFFFF" transform="translate(0,0)"/>
<path d="" fill="#FFFFFF" transform="translate(0,0)"/>
</svg>
