<svg version="1.0" preserveAspectRatio="xMidYMid meet" viewBox="50.706411698537686 77.184 1102.8644544431945 395.136" zoomAndPan="magnify" xmlns:xlink="http://www.w3.org/1999/xlink" xmlns="http://www.w3.org/2000/svg" style="max-height: 500px" width="1102.8644544431945" height="395.136"><defs><g/><clipPath id="9d3d6d03ec"><rect height="360" y="0" width="584" x="0"/></clipPath><clipPath id="21f63ad613"><path clip-rule="nonzero" d="M 57.570312 107.167969 L 288.460938 107.167969 L 288.460938 437 L 57.570312 437 Z M 57.570312 107.167969"/></clipPath><clipPath id="f11908f8b4"><path clip-rule="nonzero" d="M 105 185.582031 L 241 185.582031 L 241 383.484375 L 105 383.484375 Z M 105 185.582031"/></clipPath></defs><g transform="matrix(1, 0, 0, 1, 369, 108)"><g clip-path="url(#9d3d6d03ec)"><g fill-opacity="1" fill="#423f32"><g transform="translate(0.677906, 87.672713)"><g><path d="M 44.375 -16.171875 C 44.375 -15.484375 44.390625 -14.359375 44.421875 -12.796875 C 44.453125 -11.242188 44.519531 -9.566406 44.625 -7.765625 C 44.726562 -5.972656 44.914062 -4.347656 45.1875 -2.890625 C 45.46875 -1.441406 45.816406 -0.476562 46.234375 0 L 38.25 0 C 38.664062 -0.476562 39.007812 -1.425781 39.28125 -2.84375 C 39.5625 -4.257812 39.753906 -5.863281 39.859375 -7.65625 C 39.960938 -9.457031 40.03125 -11.117188 40.0625 -12.640625 C 40.101562 -14.160156 40.125 -15.269531 40.125 -15.96875 L 40.125 -79.9375 C 38.601562 -79.9375 37.0625 -79.9375 35.5 -79.9375 C 33.945312 -79.9375 32.378906 -79.9375 30.796875 -79.9375 C 29.679688 -79.9375 28.019531 -79.914062 25.8125 -79.875 C 23.601562 -79.84375 21.269531 -79.738281 18.8125 -79.5625 C 16.363281 -79.394531 14.117188 -79.117188 12.078125 -78.734375 C 10.035156 -78.359375 8.601562 -77.820312 7.78125 -77.125 L 9.953125 -83.5625 L 74.546875 -83.5625 L 76.71875 -77.4375 C 76.09375 -77.988281 75.019531 -78.4375 73.5 -78.78125 C 71.976562 -79.132812 70.300781 -79.394531 68.46875 -79.5625 C 66.644531 -79.738281 64.898438 -79.84375 63.234375 -79.875 C 61.578125 -79.914062 60.300781 -79.9375 59.40625 -79.9375 C 56.914062 -79.9375 54.425781 -79.9375 51.9375 -79.9375 C 49.445312 -79.9375 46.925781 -79.9375 44.375 -79.9375 Z M 44.375 -16.171875"/></g></g></g><g fill-opacity="1" fill="#423f32"><g transform="translate(87.44631, 87.672713)"><g><path d="M 13.890625 -29.859375 C 13.890625 -29.023438 13.867188 -27.554688 13.828125 -25.453125 C 13.796875 -23.347656 13.796875 -20.960938 13.828125 -18.296875 C 13.867188 -15.640625 13.941406 -12.992188 14.046875 -10.359375 C 14.148438 -7.734375 14.335938 -5.46875 14.609375 -3.5625 C 14.890625 -1.664062 15.273438 -0.476562 15.765625 0 L 7.78125 0 C 8.1875 -0.414062 8.53125 -1.347656 8.8125 -2.796875 C 9.09375 -4.242188 9.28125 -5.953125 9.375 -7.921875 C 9.476562 -9.898438 9.546875 -11.90625 9.578125 -13.9375 C 9.617188 -15.976562 9.640625 -17.8125 9.640625 -19.4375 C 9.640625 -21.0625 9.640625 -22.21875 9.640625 -22.90625 L 9.640625 -60.640625 C 9.640625 -61.335938 9.640625 -62.5 9.640625 -64.125 C 9.640625 -65.75 9.617188 -67.578125 9.578125 -69.609375 C 9.546875 -71.648438 9.476562 -73.65625 9.375 -75.625 C 9.28125 -77.59375 9.09375 -79.300781 8.8125 -80.75 C 8.53125 -82.207031 8.1875 -83.144531 7.78125 -83.5625 L 15.765625 -83.5625 C 15.347656 -83.144531 15 -82.207031 14.71875 -80.75 C 14.445312 -79.300781 14.257812 -77.59375 14.15625 -75.625 C 14.050781 -73.65625 13.976562 -71.648438 13.9375 -69.609375 C 13.90625 -67.578125 13.890625 -65.75 13.890625 -64.125 C 13.890625 -62.5 13.890625 -61.335938 13.890625 -60.640625 L 13.890625 -40.125 C 14.992188 -41.707031 16.441406 -42.773438 18.234375 -43.328125 C 20.035156 -43.890625 21.867188 -44.171875 23.734375 -44.171875 L 54.109375 -44.171875 C 57.847656 -44.171875 60.5625 -44.753906 62.25 -45.921875 C 63.945312 -47.097656 64.796875 -49.691406 64.796875 -53.703125 C 64.796875 -54.535156 64.8125 -56.003906 64.84375 -58.109375 C 64.882812 -60.210938 64.882812 -62.59375 64.84375 -65.25 C 64.8125 -67.914062 64.742188 -70.5625 64.640625 -73.1875 C 64.535156 -75.8125 64.34375 -78.070312 64.0625 -79.96875 C 63.789062 -81.875 63.410156 -83.070312 62.921875 -83.5625 L 70.90625 -83.5625 C 70.5 -83.144531 70.171875 -82.207031 69.921875 -80.75 C 69.679688 -79.300781 69.492188 -77.59375 69.359375 -75.625 C 69.222656 -73.65625 69.132812 -71.648438 69.09375 -69.609375 C 69.0625 -67.578125 69.046875 -65.75 69.046875 -64.125 C 69.046875 -62.5 69.046875 -61.335938 69.046875 -60.640625 L 69.046875 -22.90625 C 69.046875 -22.21875 69.046875 -21.0625 69.046875 -19.4375 C 69.046875 -17.8125 69.0625 -15.976562 69.09375 -13.9375 C 69.132812 -11.90625 69.222656 -9.898438 69.359375 -7.921875 C 69.492188 -5.953125 69.679688 -4.242188 69.921875 -2.796875 C 70.171875 -1.347656 70.5 -0.414062 70.90625 0 L 62.921875 0 C 63.335938 -0.414062 63.679688 -1.347656 63.953125 -2.796875 C 64.234375 -4.242188 64.425781 -5.953125 64.53125 -7.921875 C 64.632812 -9.898438 64.703125 -11.90625 64.734375 -13.9375 C 64.773438 -15.976562 64.796875 -17.8125 64.796875 -19.4375 C 64.796875 -21.0625 64.796875 -22.21875 64.796875 -22.90625 L 64.796875 -43.75 C 63.617188 -42.15625 61.992188 -41.164062 59.921875 -40.78125 C 57.847656 -40.40625 55.910156 -40.21875 54.109375 -40.21875 L 23.734375 -40.21875 C 20.140625 -40.21875 17.597656 -39.351562 16.109375 -37.625 C 14.628906 -35.90625 13.890625 -33.316406 13.890625 -29.859375 Z M 13.890625 -29.859375"/></g></g></g><g fill-opacity="1" fill="#423f32"><g transform="translate(168.305748, 87.672713)"><g><path d="M 34.3125 -30.0625 C 35.351562 -30.0625 36.960938 -30.078125 39.140625 -30.109375 C 41.316406 -30.148438 43.628906 -30.222656 46.078125 -30.328125 C 48.535156 -30.429688 50.765625 -30.632812 52.765625 -30.9375 C 54.773438 -31.25 56.125 -31.679688 56.8125 -32.234375 L 55.359375 -26.125 L 11.609375 -26.125 C 11.953125 -26.539062 12.207031 -27.457031 12.375 -28.875 C 12.550781 -30.289062 12.675781 -31.894531 12.75 -33.6875 C 12.820312 -35.488281 12.859375 -37.148438 12.859375 -38.671875 C 12.859375 -40.191406 12.859375 -41.265625 12.859375 -41.890625 L 12.859375 -67.796875 C 12.859375 -68.421875 12.859375 -69.507812 12.859375 -71.0625 C 12.859375 -72.625 12.820312 -74.285156 12.75 -76.046875 C 12.675781 -77.804688 12.550781 -79.394531 12.375 -80.8125 C 12.207031 -82.226562 11.953125 -83.144531 11.609375 -83.5625 L 53.90625 -83.5625 C 53.90625 -83.5625 54.007812 -83.054688 54.21875 -82.046875 C 54.425781 -81.046875 54.664062 -80.046875 54.9375 -79.046875 C 55.21875 -78.046875 55.359375 -77.476562 55.359375 -77.34375 C 54.671875 -77.957031 53.320312 -78.421875 51.3125 -78.734375 C 49.3125 -79.046875 47.082031 -79.253906 44.625 -79.359375 C 42.175781 -79.460938 39.84375 -79.53125 37.625 -79.5625 C 35.414062 -79.601562 33.796875 -79.625 32.765625 -79.625 L 17.109375 -79.625 L 17.109375 -56.8125 L 31.3125 -56.8125 C 31.925781 -56.8125 32.992188 -56.8125 34.515625 -56.8125 C 36.035156 -56.8125 37.691406 -56.84375 39.484375 -56.90625 C 41.285156 -56.976562 42.894531 -57.097656 44.3125 -57.265625 C 45.726562 -57.441406 46.644531 -57.707031 47.0625 -58.0625 L 47.0625 -52.140625 C 46.644531 -52.492188 45.726562 -52.753906 44.3125 -52.921875 C 42.894531 -53.097656 41.285156 -53.21875 39.484375 -53.28125 C 37.691406 -53.351562 36.035156 -53.390625 34.515625 -53.390625 C 32.992188 -53.390625 31.925781 -53.390625 31.3125 -53.390625 L 17.109375 -53.390625 L 17.109375 -30.0625 Z M 34.3125 -30.0625"/></g></g></g><g fill-opacity="1" fill="#423f32"><g transform="translate(0.677906, 207.536214)"><g><path d="M 14.515625 -7.25 C 14.515625 -6.007812 14.546875 -4.785156 14.609375 -3.578125 C 14.679688 -2.367188 14.820312 -1.175781 15.03125 0 L 7.78125 0 C 8.394531 -1.238281 8.890625 -3.035156 9.265625 -5.390625 C 9.648438 -7.742188 9.960938 -10.128906 10.203125 -12.546875 C 10.453125 -14.960938 10.609375 -16.863281 10.671875 -18.25 L 16.28125 -85.328125 L 47.890625 -25.296875 L 79.515625 -85.328125 L 84.703125 -23.21875 C 84.835938 -21.976562 84.988281 -20.269531 85.15625 -18.09375 C 85.332031 -15.914062 85.539062 -13.648438 85.78125 -11.296875 C 86.03125 -8.953125 86.34375 -6.742188 86.71875 -4.671875 C 87.101562 -2.597656 87.535156 -1.039062 88.015625 0 L 80.765625 0 C 80.972656 -1.175781 81.109375 -2.367188 81.171875 -3.578125 C 81.242188 -4.785156 81.28125 -6.007812 81.28125 -7.25 C 81.28125 -10.289062 81.191406 -13.035156 81.015625 -15.484375 C 80.847656 -17.941406 80.625 -20.660156 80.34375 -23.640625 L 76.296875 -69.765625 L 47.890625 -16.171875 L 19.484375 -69.765625 L 15.65625 -25.296875 C 15.375 -22.328125 15.113281 -19.335938 14.875 -16.328125 C 14.632812 -13.316406 14.515625 -10.289062 14.515625 -7.25 Z M 14.515625 -7.25"/></g></g></g><g fill-opacity="1" fill="#423f32"><g transform="translate(98.745894, 207.536214)"><g><path d="M 13.890625 -22.90625 C 13.890625 -22.21875 13.890625 -21.0625 13.890625 -19.4375 C 13.890625 -17.8125 13.90625 -15.976562 13.9375 -13.9375 C 13.976562 -11.90625 14.050781 -9.921875 14.15625 -7.984375 C 14.257812 -6.046875 14.445312 -4.347656 14.71875 -2.890625 C 15 -1.441406 15.347656 -0.476562 15.765625 0 L 7.78125 0 C 8.1875 -0.476562 8.53125 -1.441406 8.8125 -2.890625 C 9.09375 -4.347656 9.28125 -6.046875 9.375 -7.984375 C 9.476562 -9.921875 9.546875 -11.90625 9.578125 -13.9375 C 9.617188 -15.976562 9.640625 -17.8125 9.640625 -19.4375 C 9.640625 -21.0625 9.640625 -22.21875 9.640625 -22.90625 L 9.640625 -60.640625 C 9.640625 -61.398438 9.640625 -62.578125 9.640625 -64.171875 C 9.640625 -65.765625 9.617188 -67.578125 9.578125 -69.609375 C 9.546875 -71.648438 9.476562 -73.640625 9.375 -75.578125 C 9.28125 -77.515625 9.09375 -79.207031 8.8125 -80.65625 C 8.53125 -82.101562 8.1875 -83.070312 7.78125 -83.5625 L 15.765625 -83.5625 C 15.347656 -83.070312 15 -82.101562 14.71875 -80.65625 C 14.445312 -79.207031 14.257812 -77.515625 14.15625 -75.578125 C 14.050781 -73.640625 13.976562 -71.648438 13.9375 -69.609375 C 13.90625 -67.578125 13.890625 -65.765625 13.890625 -64.171875 C 13.890625 -62.578125 13.890625 -61.398438 13.890625 -60.640625 Z M 13.890625 -22.90625"/></g></g></g><g fill-opacity="1" fill="#423f32"><g transform="translate(124.45501, 207.536214)"><g><path d="M 56.921875 -32.234375 C 53.878906 -30.097656 50.539062 -28.457031 46.90625 -27.3125 C 43.28125 -26.175781 39.632812 -25.609375 35.96875 -25.609375 C 30.164062 -25.609375 25.035156 -26.867188 20.578125 -29.390625 C 16.117188 -31.910156 12.609375 -35.378906 10.046875 -39.796875 C 7.492188 -44.222656 6.21875 -49.273438 6.21875 -54.953125 C 6.21875 -60.617188 7.492188 -65.644531 10.046875 -70.03125 C 12.609375 -74.414062 16.117188 -77.867188 20.578125 -80.390625 C 25.035156 -82.921875 30.164062 -84.1875 35.96875 -84.1875 C 39.632812 -84.1875 43.28125 -83.628906 46.90625 -82.515625 C 50.539062 -81.410156 53.878906 -79.753906 56.921875 -77.546875 L 55.78125 -71.953125 C 54.53125 -73.816406 52.75 -75.382812 50.4375 -76.65625 C 48.125 -77.9375 45.671875 -78.921875 43.078125 -79.609375 C 40.484375 -80.304688 38.113281 -80.65625 35.96875 -80.65625 C 30.851562 -80.65625 26.394531 -79.582031 22.59375 -77.4375 C 18.800781 -75.300781 15.863281 -72.3125 13.78125 -68.46875 C 11.707031 -64.632812 10.671875 -60.128906 10.671875 -54.953125 C 10.671875 -49.765625 11.722656 -45.234375 13.828125 -41.359375 C 15.941406 -37.492188 18.898438 -34.488281 22.703125 -32.34375 C 26.503906 -30.195312 30.925781 -29.125 35.96875 -29.125 C 38.1875 -29.125 40.585938 -29.46875 43.171875 -30.15625 C 45.765625 -30.851562 48.21875 -31.859375 50.53125 -33.171875 C 52.851562 -34.484375 54.601562 -36.039062 55.78125 -37.84375 Z M 56.921875 -32.234375"/></g></g></g><g fill-opacity="1" fill="#423f32"><g transform="translate(189.76453, 207.536214)"><g><path d="M 14.203125 -27.78125 C 14.203125 -27.507812 14.203125 -27.234375 14.203125 -26.953125 C 14.203125 -26.679688 14.238281 -26.40625 14.3125 -26.125 L 6.109375 -26.125 C 6.804688 -26.75 7.585938 -27.769531 8.453125 -29.1875 C 9.316406 -30.601562 10.160156 -32.175781 10.984375 -33.90625 C 11.816406 -35.632812 12.578125 -37.273438 13.265625 -38.828125 C 13.960938 -40.378906 14.484375 -41.570312 14.828125 -42.40625 L 33.59375 -84.90625 L 52.453125 -42.40625 C 52.796875 -41.570312 53.3125 -40.378906 54 -38.828125 C 54.695312 -37.273438 55.476562 -35.632812 56.34375 -33.90625 C 57.207031 -32.175781 58.050781 -30.601562 58.875 -29.1875 C 59.707031 -27.769531 60.472656 -26.75 61.171875 -26.125 L 52.96875 -26.125 C 53.175781 -27.300781 53.054688 -28.769531 52.609375 -30.53125 C 52.160156 -32.289062 51.554688 -34.101562 50.796875 -35.96875 C 50.035156 -37.832031 49.273438 -39.613281 48.515625 -41.3125 C 47.753906 -43.007812 47.132812 -44.410156 46.65625 -45.515625 L 20.625 -45.515625 C 20.21875 -44.617188 19.664062 -43.390625 18.96875 -41.828125 C 18.28125 -40.273438 17.554688 -38.617188 16.796875 -36.859375 C 16.035156 -35.097656 15.410156 -33.40625 14.921875 -31.78125 C 14.441406 -30.15625 14.203125 -28.820312 14.203125 -27.78125 Z M 33.59375 -75.78125 L 21.984375 -48.828125 L 45.296875 -48.828125 Z M 33.59375 -75.78125"/></g></g></g><g fill-opacity="1" fill="#423f32"><g transform="translate(0.677906, 327.399714)"><g><path d="M 13.890625 -15.546875 C 13.890625 -14.859375 13.90625 -13.769531 13.9375 -12.28125 C 13.976562 -10.800781 14.050781 -9.195312 14.15625 -7.46875 C 14.257812 -5.738281 14.445312 -4.179688 14.71875 -2.796875 C 15 -1.410156 15.347656 -0.476562 15.765625 0 L 7.78125 0 C 8.1875 -0.476562 8.507812 -1.410156 8.75 -2.796875 C 9 -4.179688 9.191406 -5.703125 9.328125 -7.359375 C 9.460938 -9.015625 9.546875 -10.601562 9.578125 -12.125 C 9.617188 -13.644531 9.640625 -14.753906 9.640625 -15.453125 L 9.640625 -68.21875 C 9.640625 -68.90625 9.617188 -69.988281 9.578125 -71.46875 C 9.546875 -72.957031 9.460938 -74.53125 9.328125 -76.1875 C 9.191406 -77.851562 9 -79.375 8.75 -80.75 C 8.507812 -82.132812 8.1875 -83.070312 7.78125 -83.5625 L 15.765625 -83.5625 C 15.347656 -83.070312 15 -82.132812 14.71875 -80.75 C 14.445312 -79.375 14.257812 -77.835938 14.15625 -76.140625 C 14.050781 -74.453125 13.976562 -72.863281 13.9375 -71.375 C 13.90625 -69.894531 13.890625 -68.773438 13.890625 -68.015625 L 13.890625 -43.859375 L 64.796875 -43.859375 L 64.796875 -68.21875 C 64.796875 -68.90625 64.773438 -69.972656 64.734375 -71.421875 C 64.703125 -72.878906 64.632812 -74.453125 64.53125 -76.140625 C 64.425781 -77.835938 64.234375 -79.375 63.953125 -80.75 C 63.679688 -82.132812 63.335938 -83.070312 62.921875 -83.5625 L 70.90625 -83.5625 C 70.5 -83.070312 70.171875 -82.132812 69.921875 -80.75 C 69.679688 -79.375 69.492188 -77.835938 69.359375 -76.140625 C 69.222656 -74.453125 69.132812 -72.863281 69.09375 -71.375 C 69.0625 -69.894531 69.046875 -68.773438 69.046875 -68.015625 L 69.046875 -15.546875 C 69.046875 -14.859375 69.0625 -13.769531 69.09375 -12.28125 C 69.132812 -10.800781 69.222656 -9.195312 69.359375 -7.46875 C 69.492188 -5.738281 69.679688 -4.179688 69.921875 -2.796875 C 70.171875 -1.410156 70.5 -0.476562 70.90625 0 L 62.921875 0 C 63.335938 -0.476562 63.679688 -1.410156 63.953125 -2.796875 C 64.234375 -4.179688 64.425781 -5.703125 64.53125 -7.359375 C 64.632812 -9.015625 64.703125 -10.601562 64.734375 -12.125 C 64.773438 -13.644531 64.796875 -14.753906 64.796875 -15.453125 L 64.796875 -39.609375 L 13.890625 -39.609375 Z M 13.890625 -15.546875"/></g></g></g><g fill-opacity="1" fill="#423f32"><g transform="translate(81.537344, 327.399714)"><g><path d="M 60.34375 -54.421875 C 60.34375 -49.097656 59.285156 -44.242188 57.171875 -39.859375 C 55.066406 -35.472656 52.007812 -31.984375 48 -29.390625 C 43.988281 -26.796875 39.1875 -25.5 33.59375 -25.5 C 27.988281 -25.5 23.195312 -26.796875 19.21875 -29.390625 C 15.25 -31.984375 12.191406 -35.472656 10.046875 -39.859375 C 7.910156 -44.242188 6.84375 -49.097656 6.84375 -54.421875 C 6.84375 -60.085938 7.828125 -65.148438 9.796875 -69.609375 C 11.765625 -74.066406 14.71875 -77.609375 18.65625 -80.234375 C 22.59375 -82.867188 27.570312 -84.1875 33.59375 -84.1875 C 39.601562 -84.1875 44.578125 -82.867188 48.515625 -80.234375 C 52.453125 -77.609375 55.40625 -74.066406 57.375 -69.609375 C 59.351562 -65.148438 60.34375 -60.085938 60.34375 -54.421875 Z M 11.296875 -54.421875 C 11.296875 -49.722656 12.175781 -45.457031 13.9375 -41.625 C 15.707031 -37.789062 18.25 -34.75 21.5625 -32.5 C 24.882812 -30.25 28.894531 -29.125 33.59375 -29.125 C 38.289062 -29.125 42.296875 -30.25 45.609375 -32.5 C 48.929688 -34.75 51.472656 -37.789062 53.234375 -41.625 C 54.992188 -45.457031 55.875 -49.722656 55.875 -54.421875 C 55.875 -59.398438 55.0625 -63.859375 53.4375 -67.796875 C 51.8125 -71.734375 49.359375 -74.84375 46.078125 -77.125 C 42.796875 -79.40625 38.632812 -80.546875 33.59375 -80.546875 C 28.539062 -80.546875 24.375 -79.40625 21.09375 -77.125 C 17.8125 -74.84375 15.359375 -71.734375 13.734375 -67.796875 C 12.109375 -63.859375 11.296875 -59.398438 11.296875 -54.421875 Z M 11.296875 -54.421875"/></g></g></g><g fill-opacity="1" fill="#423f32"><g transform="translate(151.097198, 327.399714)"><g><path d="M 56.1875 -42.5 C 56.1875 -39.601562 55.53125 -37.132812 54.21875 -35.09375 C 52.90625 -33.050781 51.175781 -31.351562 49.03125 -30 C 46.894531 -28.65625 44.5625 -27.671875 42.03125 -27.046875 C 39.507812 -26.429688 37.039062 -26.125 34.625 -26.125 C 32.070312 -26.125 29.253906 -26.484375 26.171875 -27.203125 C 23.097656 -27.929688 20.210938 -29.019531 17.515625 -30.46875 C 14.828125 -31.925781 12.722656 -33.796875 11.203125 -36.078125 L 14.3125 -40.125 C 15.34375 -37.632812 16.960938 -35.628906 19.171875 -34.109375 C 21.390625 -32.585938 23.828125 -31.5 26.484375 -30.84375 C 29.148438 -30.1875 31.65625 -29.859375 34 -29.859375 C 36.625 -29.859375 39.316406 -30.253906 42.078125 -31.046875 C 44.847656 -31.835938 47.203125 -33.113281 49.140625 -34.875 C 51.078125 -36.644531 52.046875 -38.984375 52.046875 -41.890625 C 52.046875 -44.304688 51.351562 -46.238281 49.96875 -47.6875 C 48.582031 -49.132812 46.734375 -50.273438 44.421875 -51.109375 C 42.109375 -51.941406 39.585938 -52.613281 36.859375 -53.125 C 34.128906 -53.644531 31.394531 -54.21875 28.65625 -54.84375 C 25.925781 -55.46875 23.40625 -56.296875 21.09375 -57.328125 C 18.78125 -58.367188 16.929688 -59.785156 15.546875 -61.578125 C 14.171875 -63.378906 13.484375 -65.726562 13.484375 -68.625 C 13.484375 -71.394531 14.085938 -73.726562 15.296875 -75.625 C 16.503906 -77.53125 18.09375 -79.066406 20.0625 -80.234375 C 22.03125 -81.410156 24.132812 -82.257812 26.375 -82.78125 C 28.625 -83.300781 30.785156 -83.5625 32.859375 -83.5625 C 34.929688 -83.5625 37.210938 -83.316406 39.703125 -82.828125 C 42.191406 -82.347656 44.578125 -81.609375 46.859375 -80.609375 C 49.140625 -79.609375 51.003906 -78.3125 52.453125 -76.71875 L 49.96875 -72.15625 C 48.863281 -74.09375 47.378906 -75.628906 45.515625 -76.765625 C 43.648438 -77.910156 41.644531 -78.722656 39.5 -79.203125 C 37.351562 -79.691406 35.3125 -79.9375 33.375 -79.9375 C 31.238281 -79.9375 28.941406 -79.625 26.484375 -79 C 24.035156 -78.375 21.945312 -77.285156 20.21875 -75.734375 C 18.488281 -74.179688 17.625 -71.988281 17.625 -69.15625 C 17.625 -66.726562 18.3125 -64.804688 19.6875 -63.390625 C 21.070312 -61.972656 22.921875 -60.882812 25.234375 -60.125 C 27.554688 -59.363281 30.082031 -58.722656 32.8125 -58.203125 C 35.539062 -57.691406 38.269531 -57.125 41 -56.5 C 43.726562 -55.875 46.25 -55.039062 48.5625 -54 C 50.882812 -52.96875 52.734375 -51.550781 54.109375 -49.75 C 55.492188 -47.957031 56.1875 -45.539062 56.1875 -42.5 Z M 56.1875 -42.5"/></g></g></g><g fill-opacity="1" fill="#423f32"><g transform="translate(220.657052, 327.399714)"><g><path d="M 13.890625 -38.765625 C 14.992188 -40.429688 16.460938 -41.519531 18.296875 -42.03125 C 20.128906 -42.550781 21.976562 -42.8125 23.84375 -42.8125 L 38.46875 -42.8125 C 42.332031 -42.8125 45.75 -43.585938 48.71875 -45.140625 C 51.695312 -46.703125 54.03125 -48.914062 55.71875 -51.78125 C 57.414062 -54.65625 58.265625 -58.0625 58.265625 -62 C 58.265625 -66.007812 57.378906 -69.289062 55.609375 -71.84375 C 53.847656 -74.40625 51.484375 -76.320312 48.515625 -77.59375 C 45.546875 -78.875 42.195312 -79.515625 38.46875 -79.515625 L 13.890625 -79.515625 L 13.890625 -18.765625 C 13.890625 -17.929688 13.890625 -16.597656 13.890625 -14.765625 C 13.890625 -12.941406 13.941406 -11.007812 14.046875 -8.96875 C 14.148438 -6.925781 14.335938 -5.078125 14.609375 -3.421875 C 14.890625 -1.765625 15.273438 -0.625 15.765625 0 L 7.78125 0 C 8.257812 -0.625 8.632812 -1.765625 8.90625 -3.421875 C 9.1875 -5.078125 9.378906 -6.925781 9.484375 -8.96875 C 9.585938 -11.007812 9.640625 -12.941406 9.640625 -14.765625 C 9.640625 -16.597656 9.640625 -17.929688 9.640625 -18.765625 L 9.640625 -64.796875 C 9.640625 -65.617188 9.640625 -66.945312 9.640625 -68.78125 C 9.640625 -70.613281 9.585938 -72.550781 9.484375 -74.59375 C 9.378906 -76.632812 9.1875 -78.484375 8.90625 -80.140625 C 8.632812 -81.796875 8.257812 -82.9375 7.78125 -83.5625 L 38.46875 -83.5625 C 42.957031 -83.5625 47.066406 -82.765625 50.796875 -81.171875 C 54.523438 -79.585938 57.53125 -77.203125 59.8125 -74.015625 C 62.09375 -70.835938 63.234375 -66.832031 63.234375 -62 C 63.234375 -57.226562 62.128906 -53.113281 59.921875 -49.65625 C 57.710938 -46.195312 54.722656 -43.535156 50.953125 -41.671875 C 47.179688 -39.804688 43.019531 -38.875 38.46875 -38.875 L 23.84375 -38.875 C 20.25 -38.875 17.691406 -38.007812 16.171875 -36.28125 C 14.648438 -34.550781 13.890625 -31.960938 13.890625 -28.515625 Z M 13.890625 -38.765625"/></g></g></g><g fill-opacity="1" fill="#423f32"><g transform="translate(293.84519, 327.399714)"><g><path d="M 13.890625 -22.90625 C 13.890625 -22.21875 13.890625 -21.0625 13.890625 -19.4375 C 13.890625 -17.8125 13.90625 -15.976562 13.9375 -13.9375 C 13.976562 -11.90625 14.050781 -9.921875 14.15625 -7.984375 C 14.257812 -6.046875 14.445312 -4.347656 14.71875 -2.890625 C 15 -1.441406 15.347656 -0.476562 15.765625 0 L 7.78125 0 C 8.1875 -0.476562 8.53125 -1.441406 8.8125 -2.890625 C 9.09375 -4.347656 9.28125 -6.046875 9.375 -7.984375 C 9.476562 -9.921875 9.546875 -11.90625 9.578125 -13.9375 C 9.617188 -15.976562 9.640625 -17.8125 9.640625 -19.4375 C 9.640625 -21.0625 9.640625 -22.21875 9.640625 -22.90625 L 9.640625 -60.640625 C 9.640625 -61.398438 9.640625 -62.578125 9.640625 -64.171875 C 9.640625 -65.765625 9.617188 -67.578125 9.578125 -69.609375 C 9.546875 -71.648438 9.476562 -73.640625 9.375 -75.578125 C 9.28125 -77.515625 9.09375 -79.207031 8.8125 -80.65625 C 8.53125 -82.101562 8.1875 -83.070312 7.78125 -83.5625 L 15.765625 -83.5625 C 15.347656 -83.070312 15 -82.101562 14.71875 -80.65625 C 14.445312 -79.207031 14.257812 -77.515625 14.15625 -75.578125 C 14.050781 -73.640625 13.976562 -71.648438 13.9375 -69.609375 C 13.90625 -67.578125 13.890625 -65.765625 13.890625 -64.171875 C 13.890625 -62.578125 13.890625 -61.398438 13.890625 -60.640625 Z M 13.890625 -22.90625"/></g></g></g><g fill-opacity="1" fill="#423f32"><g transform="translate(319.554306, 327.399714)"><g><path d="M 44.375 -16.171875 C 44.375 -15.484375 44.390625 -14.359375 44.421875 -12.796875 C 44.453125 -11.242188 44.519531 -9.566406 44.625 -7.765625 C 44.726562 -5.972656 44.914062 -4.347656 45.1875 -2.890625 C 45.46875 -1.441406 45.816406 -0.476562 46.234375 0 L 38.25 0 C 38.664062 -0.476562 39.007812 -1.425781 39.28125 -2.84375 C 39.5625 -4.257812 39.753906 -5.863281 39.859375 -7.65625 C 39.960938 -9.457031 40.03125 -11.117188 40.0625 -12.640625 C 40.101562 -14.160156 40.125 -15.269531 40.125 -15.96875 L 40.125 -79.9375 C 38.601562 -79.9375 37.0625 -79.9375 35.5 -79.9375 C 33.945312 -79.9375 32.378906 -79.9375 30.796875 -79.9375 C 29.679688 -79.9375 28.019531 -79.914062 25.8125 -79.875 C 23.601562 -79.84375 21.269531 -79.738281 18.8125 -79.5625 C 16.363281 -79.394531 14.117188 -79.117188 12.078125 -78.734375 C 10.035156 -78.359375 8.601562 -77.820312 7.78125 -77.125 L 9.953125 -83.5625 L 74.546875 -83.5625 L 76.71875 -77.4375 C 76.09375 -77.988281 75.019531 -78.4375 73.5 -78.78125 C 71.976562 -79.132812 70.300781 -79.394531 68.46875 -79.5625 C 66.644531 -79.738281 64.898438 -79.84375 63.234375 -79.875 C 61.578125 -79.914062 60.300781 -79.9375 59.40625 -79.9375 C 56.914062 -79.9375 54.425781 -79.9375 51.9375 -79.9375 C 49.445312 -79.9375 46.925781 -79.9375 44.375 -79.9375 Z M 44.375 -16.171875"/></g></g></g><g fill-opacity="1" fill="#423f32"><g transform="translate(406.32271, 327.399714)"><g><path d="M 14.203125 -27.78125 C 14.203125 -27.507812 14.203125 -27.234375 14.203125 -26.953125 C 14.203125 -26.679688 14.238281 -26.40625 14.3125 -26.125 L 6.109375 -26.125 C 6.804688 -26.75 7.585938 -27.769531 8.453125 -29.1875 C 9.316406 -30.601562 10.160156 -32.175781 10.984375 -33.90625 C 11.816406 -35.632812 12.578125 -37.273438 13.265625 -38.828125 C 13.960938 -40.378906 14.484375 -41.570312 14.828125 -42.40625 L 33.59375 -84.90625 L 52.453125 -42.40625 C 52.796875 -41.570312 53.3125 -40.378906 54 -38.828125 C 54.695312 -37.273438 55.476562 -35.632812 56.34375 -33.90625 C 57.207031 -32.175781 58.050781 -30.601562 58.875 -29.1875 C 59.707031 -27.769531 60.472656 -26.75 61.171875 -26.125 L 52.96875 -26.125 C 53.175781 -27.300781 53.054688 -28.769531 52.609375 -30.53125 C 52.160156 -32.289062 51.554688 -34.101562 50.796875 -35.96875 C 50.035156 -37.832031 49.273438 -39.613281 48.515625 -41.3125 C 47.753906 -43.007812 47.132812 -44.410156 46.65625 -45.515625 L 20.625 -45.515625 C 20.21875 -44.617188 19.664062 -43.390625 18.96875 -41.828125 C 18.28125 -40.273438 17.554688 -38.617188 16.796875 -36.859375 C 16.035156 -35.097656 15.410156 -33.40625 14.921875 -31.78125 C 14.441406 -30.15625 14.203125 -28.820312 14.203125 -27.78125 Z M 33.59375 -75.78125 L 21.984375 -48.828125 L 45.296875 -48.828125 Z M 33.59375 -75.78125"/></g></g></g><g fill-opacity="1" fill="#423f32"><g transform="translate(475.882565, 327.399714)"><g><path d="M 51.21875 -3.828125 C 52.382812 -3.828125 54.125 -3.828125 56.4375 -3.828125 C 58.757812 -3.828125 61.335938 -3.878906 64.171875 -3.984375 C 67.003906 -4.085938 69.785156 -4.257812 72.515625 -4.5 C 75.242188 -4.75 77.644531 -5.078125 79.71875 -5.484375 C 81.789062 -5.898438 83.242188 -6.457031 84.078125 -7.15625 L 81.796875 0 L 7.78125 0 C 8.1875 -0.476562 8.53125 -1.441406 8.8125 -2.890625 C 9.09375 -4.347656 9.28125 -6.046875 9.375 -7.984375 C 9.476562 -9.921875 9.546875 -11.90625 9.578125 -13.9375 C 9.617188 -15.976562 9.640625 -17.8125 9.640625 -19.4375 C 9.640625 -21.0625 9.640625 -22.21875 9.640625 -22.90625 L 9.640625 -60.640625 C 9.640625 -61.398438 9.640625 -62.578125 9.640625 -64.171875 C 9.640625 -65.765625 9.617188 -67.578125 9.578125 -69.609375 C 9.546875 -71.648438 9.476562 -73.640625 9.375 -75.578125 C 9.28125 -77.515625 9.09375 -79.207031 8.8125 -80.65625 C 8.53125 -82.101562 8.1875 -83.070312 7.78125 -83.5625 L 15.765625 -83.5625 C 15.347656 -83.070312 15 -82.101562 14.71875 -80.65625 C 14.445312 -79.207031 14.257812 -77.515625 14.15625 -75.578125 C 14.050781 -73.640625 13.976562 -71.648438 13.9375 -69.609375 C 13.90625 -67.578125 13.890625 -65.765625 13.890625 -64.171875 C 13.890625 -62.578125 13.890625 -61.398438 13.890625 -60.640625 L 13.890625 -3.828125 Z M 51.21875 -3.828125"/></g></g></g></g></g><g clip-path="url(#21f63ad613)"><path fill-rule="nonzero" fill-opacity="1" d="M 288.40625 436.839844 L 57.570312 436.839844 L 57.570312 222.808594 C 57.570312 159.132812 109.347656 107.359375 173.019531 107.359375 C 236.695312 107.359375 288.472656 159.132812 288.472656 222.808594 L 288.472656 436.839844 Z M 60.1875 434.226562 L 285.789062 434.226562 L 285.789062 222.808594 C 285.789062 160.570312 235.191406 109.972656 173.019531 109.972656 C 110.785156 109.972656 60.1875 160.570312 60.1875 222.808594 Z M 60.1875 434.226562" fill="#423f32"/></g><g clip-path="url(#f11908f8b4)"><path fill-rule="nonzero" fill-opacity="1" d="M 173.773438 331.089844 C 175.285156 329.003906 175.726562 326.984375 176.226562 325.035156 C 176.730469 323.148438 177.378906 321.316406 178.179688 319.539062 C 178.371094 319.09375 178.679688 318.679688 178.804688 318.21875 C 179.867188 314.355469 182.253906 311.246094 184.667969 308.210938 C 186.304688 306.148438 188.171875 304.292969 190.488281 302.828125 C 194.484375 300.304688 198.785156 298.210938 202.257812 294.859375 C 203.695312 293.492188 205.351562 292.496094 207.234375 291.867188 C 208.589844 291.402344 209.847656 290.59375 211.15625 289.957031 C 213.246094 288.933594 215.507812 288.457031 217.753906 288.003906 C 219.183594 287.714844 220.304688 288.230469 221.148438 289.554688 C 222.503906 291.703125 223.214844 293.917969 222.671875 296.472656 C 222.339844 298.027344 222.089844 299.59375 221.917969 301.171875 C 221.542969 304.644531 220.207031 307.714844 218.367188 310.660156 C 216.53125 313.605469 214.460938 316.195312 211.789062 318.421875 C 209.925781 319.976562 208.339844 321.835938 206.402344 323.335938 C 203.804688 325.367188 200.996094 327.058594 197.984375 328.402344 C 197.3125 328.699219 196.679688 329.058594 196.078125 329.480469 C 191.71875 332.515625 186.851562 334.332031 181.730469 335.554688 C 179.59375 336.066406 177.492188 336.667969 175.359375 337.15625 C 174.308594 337.398438 174.09375 337.609375 173.976562 338.945312 C 173.941406 339.1875 173.925781 339.429688 173.933594 339.675781 C 174.621094 347.324219 175.429688 354.953125 177.332031 362.417969 C 177.355469 362.539062 177.386719 362.65625 177.433594 362.769531 C 177.484375 362.855469 177.617188 362.984375 177.652344 362.964844 C 177.855469 362.898438 178.027344 362.789062 178.167969 362.632812 C 178.292969 362.4375 178.296875 362.164062 178.382812 361.933594 C 179.363281 359.3125 180.304688 356.671875 181.355469 354.078125 C 181.660156 353.324219 181.746094 352.691406 181.328125 352.015625 C 180.914062 351.339844 180.953125 350.636719 181.054688 349.894531 C 181.273438 348.28125 181.996094 346.859375 182.871094 345.542969 C 183.261719 344.960938 183.933594 344.539062 184.554688 344.167969 C 184.683594 344.085938 184.820312 344.019531 184.964844 343.972656 C 185.109375 343.921875 185.257812 343.890625 185.410156 343.878906 C 185.5625 343.863281 185.714844 343.867188 185.867188 343.890625 C 186.019531 343.914062 186.164062 343.953125 186.304688 344.007812 C 186.449219 344.066406 186.582031 344.136719 186.707031 344.226562 C 186.832031 344.316406 186.945312 344.417969 187.042969 344.53125 C 187.144531 344.644531 187.230469 344.769531 187.300781 344.90625 C 187.375 345.042969 187.429688 345.183594 187.464844 345.332031 C 187.636719 346.03125 187.628906 346.773438 187.707031 347.496094 C 187.769531 348.101562 188.144531 348.371094 188.695312 348.234375 C 190.003906 347.917969 191.21875 348.191406 192.023438 349.207031 C 192.941406 350.355469 192.605469 351.757812 192.191406 353.042969 C 191.273438 355.917969 188.429688 357.457031 185.554688 356.628906 C 184.640625 356.363281 184.324219 355.542969 184.054688 354.699219 C 183.992188 354.457031 183.839844 354.316406 183.589844 354.28125 C 183.34375 354.242188 183.15625 354.332031 183.027344 354.550781 C 181.597656 356.714844 180.988281 359.21875 180.117188 361.613281 C 179.886719 362.316406 179.703125 363.027344 179.566406 363.75 C 179.058594 366.015625 178.824219 368.273438 179.566406 370.542969 C 180.625 373.773438 181.261719 377.140625 182.8125 380.214844 C 183.1875 380.984375 183.480469 381.78125 183.6875 382.613281 C 183.761719 382.898438 183.507812 383.273438 183.402344 383.605469 C 183.097656 383.445312 182.703125 383.355469 182.5 383.109375 C 181.703125 382.167969 181.117188 381.113281 180.734375 379.941406 C 179.980469 377.5 179.074219 375.105469 178.347656 372.65625 C 177.3125 369.164062 176.320312 365.644531 175.4375 362.101562 C 174.855469 359.746094 174.488281 357.332031 174.042969 354.941406 C 173.917969 354.269531 173.632812 353.894531 172.878906 353.8125 C 171.792969 353.695312 170.71875 353.4375 169.636719 353.269531 C 167.453125 352.921875 165.269531 352.816406 163.089844 353.324219 C 157.824219 354.550781 152.582031 353.9375 147.554688 352.40625 C 142.390625 350.816406 137.640625 348.417969 133.296875 345.203125 C 131.332031 343.757812 129.121094 342.566406 127.921875 340.351562 C 126.222656 337.226562 123.71875 334.660156 121.949219 331.628906 C 119.476562 327.394531 119.113281 322.878906 121.445312 318.371094 C 121.984375 317.328125 122.691406 317.054688 123.882812 317.421875 C 124.578125 317.640625 125.261719 317.902344 125.929688 318.199219 C 130.289062 320.117188 134.785156 321.621094 139.421875 322.710938 C 143.191406 323.578125 147.039062 324.386719 150.484375 326.335938 C 151.648438 326.992188 152.824219 327.648438 153.859375 328.484375 C 157.074219 331.070312 160.023438 333.988281 163.503906 336.246094 C 165.503906 338.699219 168.285156 340.40625 170.035156 343.117188 C 170.679688 344.117188 171.332031 345.175781 172.617188 345.957031 C 172.601562 344.25 172.652344 342.6875 172.5625 341.136719 C 172.367188 337.972656 172.128906 334.816406 171.878906 331.660156 C 171.835938 331.0625 171.8125 330.414062 171.558594 329.894531 C 170.605469 327.929688 169.570312 326 168.539062 324.074219 C 168.34375 323.773438 168.105469 323.515625 167.824219 323.296875 C 167.296875 322.824219 166.640625 322.792969 166.273438 323.375 C 164.972656 325.46875 162.777344 325.363281 160.78125 325.636719 C 159.71875 325.78125 158.082031 324.546875 157.9375 323.667969 C 157.699219 322.207031 157.644531 320.757812 158.898438 319.59375 C 159.5625 318.984375 160.398438 318.816406 161.164062 318.449219 C 161.691406 318.203125 161.84375 317.671875 161.410156 317.390625 C 160.300781 316.667969 159.84375 315.5625 159.445312 314.394531 C 159.335938 314.082031 159.273438 313.757812 159.261719 313.421875 C 159.253906 313.089844 159.296875 312.761719 159.386719 312.441406 C 159.480469 312.121094 159.617188 311.820312 159.804688 311.542969 C 159.992188 311.265625 160.214844 311.023438 160.476562 310.816406 C 161.476562 309.972656 163.113281 309.808594 164.203125 310.699219 C 166.574219 312.640625 167.992188 315.097656 167.652344 318.304688 C 166.761719 319.96875 167.511719 321.09375 168.878906 321.992188 C 170.085938 322.78125 170.476562 324.097656 171.082031 325.289062 C 171.183594 325.484375 171.4375 325.757812 171.597656 325.746094 C 172.050781 325.707031 171.964844 325.261719 171.964844 324.96875 C 171.953125 322.894531 171.835938 320.820312 171.90625 318.757812 C 172.089844 313.519531 172.335938 308.277344 172.597656 303.039062 C 172.671875 301.5625 172.644531 300.179688 171.898438 298.800781 C 171.570312 298.113281 171.03125 297.691406 170.289062 297.539062 C 169.207031 297.261719 168.117188 297.332031 167.015625 297.429688 C 159.21875 298.109375 151.445312 297.777344 143.675781 297.003906 C 138.40625 296.476562 133.390625 294.964844 128.574219 292.867188 C 126.453125 291.917969 124.511719 290.6875 122.753906 289.164062 C 120.539062 287.28125 118.097656 285.660156 115.933594 283.722656 C 113.042969 281.136719 109.734375 279.007812 107.269531 275.945312 C 106.734375 275.28125 106.1875 274.621094 105.695312 273.929688 C 104.898438 272.816406 105.050781 272.082031 106.253906 271.65625 C 107.855469 271.09375 109.359375 270.285156 111.050781 269.910156 C 112.324219 269.636719 113.527344 268.914062 114.683594 268.261719 C 118.84375 265.925781 123.359375 265.203125 128.050781 265.175781 C 133.613281 265.140625 138.480469 267.113281 143.109375 270.035156 C 147.972656 273.113281 152.242188 276.894531 156.488281 280.722656 C 156.675781 280.882812 156.84375 281.058594 156.992188 281.25 C 159.375 284.515625 162.585938 287.023438 165.074219 290.1875 C 165.835938 291.160156 166.785156 291.90625 167.769531 292.625 C 168.023438 292.816406 168.339844 293.207031 168.609375 292.777344 C 168.773438 292.445312 168.792969 292.101562 168.664062 291.75 C 167.910156 289.820312 167.085938 287.921875 166.3125 286.003906 C 164.679688 281.953125 162.671875 278.035156 161.804688 273.703125 C 161.5625 272.496094 160.765625 271.863281 159.761719 271.296875 C 157.75 270.164062 155.753906 268.992188 153.800781 267.757812 C 151.199219 266.117188 148.800781 264.265625 147.640625 261.242188 C 145.425781 258.527344 144.359375 255.3125 143.488281 251.992188 C 143.175781 250.820312 142.792969 249.667969 142.34375 248.539062 C 141.125 245.433594 140.628906 242.21875 140.335938 238.921875 C 140.167969 237.332031 140.3125 235.773438 140.761719 234.242188 C 142.058594 230.054688 143.285156 225.84375 144.734375 221.707031 C 146.570312 216.46875 149.71875 212.003906 153.375 207.882812 C 153.882812 207.320312 154.507812 206.976562 155.257812 206.855469 C 156.058594 206.699219 156.710938 206.914062 157.210938 207.53125 C 157.601562 208 158.015625 208.484375 158.230469 209.039062 C 159.617188 212.5625 161.738281 215.707031 163.382812 219.09375 C 164.445312 221.28125 165.472656 223.515625 166.328125 225.761719 C 167.3125 228.339844 167.554688 231.210938 168.074219 233.964844 C 168.296875 235.15625 168.382812 236.375 168.550781 237.582031 C 168.855469 239.765625 168.863281 241.957031 168.578125 244.144531 C 167.871094 249.707031 167.222656 255.269531 165.503906 260.65625 C 164.769531 262.96875 164.535156 265.433594 163.914062 267.785156 C 162.871094 271.753906 163.460938 275.605469 165.078125 279.1875 C 167.292969 284.070312 169.109375 289.101562 171.199219 294.019531 C 171.570312 294.890625 171.839844 295.867188 173.011719 296.351562 C 173.386719 294.410156 173.886719 292.511719 174.097656 290.589844 C 174.609375 285.832031 175.945312 281.273438 177.226562 276.695312 C 178.113281 273.53125 179.359375 270.46875 179.902344 267.203125 C 179.972656 266.839844 180.09375 266.496094 180.265625 266.167969 C 181.621094 263.324219 181.71875 260.304688 181.464844 257.242188 C 181.269531 254.832031 180.980469 252.429688 180.734375 250.023438 C 180.484375 250.046875 180.328125 250.023438 180.246094 250.078125 C 179.082031 251.023438 177.855469 251.023438 176.503906 250.492188 C 175.265625 250.003906 174.566406 249.054688 174.023438 247.941406 C 173.835938 247.488281 173.703125 247.023438 173.625 246.539062 C 173.28125 245.003906 174.449219 243.628906 176.035156 243.640625 C 177.042969 243.640625 177.929688 244.027344 178.839844 244.390625 C 179.523438 244.667969 179.8125 244.390625 179.761719 243.515625 C 179.6875 242.15625 179.792969 240.835938 180.308594 239.566406 C 180.601562 238.84375 181.085938 238.351562 181.921875 238.265625 C 182.757812 238.183594 183.34375 238.527344 183.824219 239.125 C 184.070312 239.402344 184.257812 239.714844 184.378906 240.066406 C 185.066406 242.457031 185.195312 244.855469 184.230469 247.214844 C 184.097656 247.539062 183.855469 247.992188 183.589844 248.050781 C 182.078125 248.378906 182.332031 249.480469 182.273438 250.574219 C 182.195312 252.0625 182.4375 253.5 182.710938 254.929688 C 182.921875 256.050781 182.109375 257.3125 183.191406 258.292969 C 183.820312 257.296875 184.550781 256.355469 185.0625 255.289062 C 187.148438 251.019531 189.15625 246.734375 191.222656 242.464844 C 191.570312 241.808594 191.742188 241.109375 191.738281 240.367188 C 191.589844 234.546875 193.097656 229.066406 195.113281 223.65625 C 197.203125 218.046875 200.835938 213.566406 204.789062 209.226562 C 207.351562 206.410156 210.296875 204.078125 213.621094 202.222656 C 215.335938 201.246094 216.816406 199.992188 218.058594 198.460938 C 218.617188 197.816406 219.226562 197.230469 219.890625 196.695312 C 221.875 195.019531 223.886719 193.445312 225.628906 191.550781 C 226.234375 190.945312 226.898438 190.414062 227.628906 189.960938 C 229.140625 188.941406 230.734375 188.035156 232.203125 186.960938 C 233.316406 186.140625 234.558594 185.714844 235.9375 185.675781 C 238.265625 185.578125 238.726562 185.972656 239.625 188.261719 C 240.699219 190.929688 240.785156 193.726562 240.894531 196.519531 C 241.144531 202.910156 239.488281 208.820312 235.921875 214.105469 C 234.101562 216.8125 231.863281 219.226562 229.691406 221.683594 C 225.589844 226.320312 220.347656 229.488281 215.5625 233.222656 C 212.007812 235.988281 207.84375 237.824219 203.402344 238.902344 C 201.269531 239.421875 199.15625 239.996094 197.035156 240.539062 C 196.203125 240.75 195.425781 241.085938 194.707031 241.546875 C 193.558594 242.277344 192.683594 243.253906 192.078125 244.46875 C 189.859375 248.667969 188.003906 253.035156 185.867188 257.277344 C 183.871094 261.277344 181.878906 265.371094 181.027344 269.859375 C 180.84375 270.691406 180.617188 271.511719 180.347656 272.320312 C 180.214844 272.761719 179.894531 273.5 180.234375 273.601562 C 180.972656 273.820312 181.128906 272.988281 181.410156 272.484375 C 182.1875 271.109375 182.835938 269.679688 183.796875 268.398438 C 185.480469 266.164062 187 263.820312 188.648438 261.5625 C 189.300781 260.683594 190.027344 259.871094 190.828125 259.125 C 191.621094 258.371094 192.574219 257.78125 193.375 257.039062 C 196.535156 254.144531 200.359375 252.695312 204.457031 251.753906 C 211.703125 250.066406 219.035156 248.921875 226.449219 248.328125 C 227.550781 248.273438 228.640625 248.34375 229.722656 248.539062 C 231.550781 248.828125 233.429688 250.941406 233.242188 253.035156 C 232.945312 256.332031 232.550781 259.5 230.464844 262.332031 C 228.660156 264.785156 227.148438 267.414062 224.667969 269.320312 C 223.625 270.121094 222.75 271.191406 221.964844 272.265625 C 219.605469 275.484375 216.253906 277.542969 213.179688 279.921875 C 212.675781 280.269531 212.136719 280.550781 211.5625 280.753906 C 207.15625 282.550781 202.652344 284.035156 197.894531 284.558594 C 196.5625 284.71875 195.226562 284.769531 193.886719 284.714844 C 189.992188 284.5 186.101562 284.171875 182.207031 283.9375 C 181.121094 283.871094 180.027344 284.023438 178.933594 284.019531 C 177.75 284.019531 177.238281 284.628906 176.945312 285.730469 C 176.539062 287.261719 176.078125 288.765625 175.898438 290.355469 C 175.351562 295.207031 174.550781 300.035156 174.199219 304.894531 C 173.679688 312.0625 173.375 319.246094 173.734375 326.4375 C 173.804688 327.835938 173.761719 329.238281 173.773438 331.078125 Z M 152.90625 259.1875 L 152.804688 259.1875 C 153.269531 260.160156 153.714844 261.152344 154.207031 262.113281 C 154.300781 262.308594 154.570312 262.417969 154.78125 262.523438 C 154.988281 262.628906 155.183594 262.5 155.265625 262.195312 C 155.625 260.910156 156.003906 259.628906 156.324219 258.335938 C 156.5 257.628906 156.542969 256.894531 156.710938 256.183594 C 156.773438 255.910156 156.695312 255.335938 157.285156 255.582031 C 157.445312 255.652344 157.496094 255.984375 157.601562 256.191406 C 157.703125 256.402344 157.753906 256.699219 157.894531 256.738281 C 158.132812 256.769531 158.328125 256.695312 158.488281 256.511719 C 160.246094 253.546875 161.398438 250.394531 161.539062 246.898438 C 161.621094 244.710938 161.855469 242.53125 162.078125 240.355469 C 162.164062 239.757812 162.332031 239.183594 162.582031 238.632812 C 162.632812 238.503906 163.007812 238.417969 163.207031 238.457031 C 163.40625 238.496094 163.707031 238.707031 163.714844 238.855469 C 163.730469 239.460938 163.703125 240.0625 163.636719 240.660156 C 163.273438 244.628906 162.707031 248.574219 162.589844 252.5625 C 162.484375 252.628906 162.339844 252.664062 162.285156 252.757812 C 160.25 256.199219 158.390625 259.726562 156.976562 263.476562 C 156.730469 264.125 156.964844 264.640625 157.398438 265.117188 C 158.621094 266.464844 159.839844 267.8125 161.5625 268.722656 C 161.683594 268.398438 161.773438 268.070312 161.835938 267.730469 C 162.15625 263.859375 162.535156 259.992188 162.722656 256.113281 C 162.773438 254.949219 163.132812 253.703125 162.527344 252.550781 C 163.363281 252.015625 163.367188 251.105469 163.480469 250.28125 C 164.199219 244.972656 164.851562 239.652344 165.601562 234.347656 C 165.800781 232.949219 165.769531 231.554688 165.507812 230.167969 C 165.246094 228.777344 164.765625 227.46875 164.074219 226.234375 C 161.449219 221.441406 159.210938 216.472656 157.363281 211.328125 C 157.199219 210.875 157.054688 210.40625 156.859375 209.972656 C 156.519531 209.214844 155.570312 209.019531 155.113281 209.628906 C 151.320312 214.710938 147.96875 220.03125 146.191406 226.207031 C 145.957031 227.023438 145.621094 227.8125 145.339844 228.617188 C 145.101562 229.304688 144.78125 229.976562 144.667969 230.6875 C 143.871094 235.734375 143.3125 240.78125 144.046875 245.929688 C 144.433594 248.621094 145.234375 251.136719 146.050781 253.671875 C 146.410156 254.804688 147.109375 255.828125 147.671875 256.890625 C 147.714844 256.972656 147.890625 256.984375 148.003906 257.027344 C 148.027344 256.910156 148.0625 256.792969 148.074219 256.671875 C 148.199219 255.394531 147.441406 254.34375 147.105469 253.203125 C 146.34375 250.609375 145.746094 247.964844 146.152344 245.296875 C 147.058594 239.324219 149.519531 233.914062 152.734375 228.832031 C 152.9375 228.53125 153.191406 228.285156 153.5 228.089844 C 153.660156 227.984375 154.019531 227.96875 154.132812 228.078125 C 154.304688 228.269531 154.359375 228.492188 154.296875 228.742188 C 153.726562 229.945312 153.1875 231.175781 152.488281 232.300781 C 150.34375 235.753906 148.949219 239.515625 148.046875 243.433594 C 146.691406 249.347656 148.179688 254.730469 151.496094 259.6875 C 151.628906 259.898438 151.8125 260.046875 152.046875 260.136719 C 152.148438 260.167969 152.359375 259.914062 152.488281 259.761719 C 152.640625 259.578125 152.777344 259.386719 152.90625 259.1875 Z M 189.84375 268.464844 L 189.746094 268.445312 C 189.832031 268.609375 189.863281 268.785156 189.832031 268.96875 C 189.800781 269.152344 189.71875 269.308594 189.585938 269.4375 C 188.808594 270.191406 187.988281 270.910156 186.585938 272.1875 C 188.421875 271.460938 189.496094 271 190.605469 270.601562 C 191.964844 270.105469 193.355469 269.652344 194.734375 269.195312 C 194.960938 269.128906 195.195312 269.09375 195.433594 269.089844 C 195.484375 269.089844 195.582031 269.203125 195.578125 269.257812 C 195.570312 269.371094 195.535156 269.550781 195.460938 269.585938 C 193.921875 270.285156 192.335938 270.898438 190.832031 271.667969 C 187.480469 273.382812 184.636719 275.6875 182.332031 279.625 C 185.421875 278.121094 188.128906 277.464844 190.738281 276.535156 C 193.171875 275.667969 195.675781 275.253906 198.214844 274.984375 C 199.1875 274.882812 200.15625 274.886719 201.128906 274.746094 C 204.6875 274.214844 207.917969 272.894531 210.667969 270.542969 C 211.582031 269.765625 212.300781 268.746094 213.191406 267.914062 C 215.222656 265.964844 216.898438 263.746094 218.210938 261.253906 C 218.675781 260.398438 219.144531 259.542969 219.652344 258.714844 C 219.714844 258.617188 220.152344 258.597656 220.246094 258.699219 C 220.574219 259.054688 220.511719 258.476562 220.488281 258.960938 C 220.425781 260.234375 219.875 261.328125 219.128906 262.289062 C 217.1875 264.777344 215.332031 267.34375 213.164062 269.617188 C 211.542969 271.296875 209.679688 272.644531 207.578125 273.664062 C 204.378906 275.253906 200.996094 276.132812 197.425781 276.292969 C 193.078125 276.488281 189.167969 278.15625 185.183594 279.59375 C 184.964844 279.710938 184.808594 279.882812 184.710938 280.109375 C 184.613281 280.292969 184.808594 280.367188 185.140625 280.351562 C 188.296875 280.195312 191.457031 280.074219 194.609375 279.890625 C 199.125 279.621094 203.550781 278.855469 207.804688 277.273438 C 209.96875 276.464844 212.136719 275.664062 214.273438 274.785156 C 216.40625 273.90625 218.484375 272.910156 220.289062 271.421875 C 223.9375 268.410156 226.207031 264.378906 228.394531 260.3125 C 228.953125 259.265625 229.152344 257.992188 229.34375 256.796875 C 229.433594 256.066406 229.359375 255.347656 229.125 254.648438 C 228.820312 253.65625 228.097656 252.980469 227.011719 252.882812 C 225.796875 252.734375 224.605469 252.832031 223.429688 253.175781 C 220.296875 254.144531 217.15625 255.132812 213.886719 255.574219 C 211.242188 255.929688 208.597656 256.351562 205.945312 256.636719 C 202.882812 256.964844 199.90625 257.625 197.261719 259.1875 C 195.277344 260.351562 193.53125 261.925781 191.632812 263.265625 C 186.902344 266.597656 183.953125 271.296875 181.382812 276.402344 C 182.15625 276.273438 182.472656 275.773438 182.835938 275.277344 C 184.800781 272.617188 186.914062 270.121094 189.84375 268.464844 Z M 211.019531 227.738281 C 210.285156 228.578125 209.394531 229.273438 208.355469 229.605469 C 206.113281 230.316406 204.425781 231.976562 202.3125 232.9375 C 200.867188 233.59375 199.609375 234.78125 197.976562 236.484375 C 199.210938 236.128906 199.8125 236.035156 200.339844 235.789062 C 203.324219 234.402344 206.417969 233.335938 209.621094 232.585938 C 210.921875 232.273438 212.238281 232.003906 213.488281 231.542969 C 216.472656 230.449219 219.269531 229.019531 221.433594 226.578125 C 222.152344 225.761719 222.996094 225.054688 223.78125 224.292969 C 224.480469 223.621094 225.25 223.003906 225.859375 222.257812 C 227.703125 220.011719 229.574219 217.773438 231.265625 215.410156 C 232.421875 213.839844 233.382812 212.160156 234.148438 210.363281 C 235.175781 207.890625 236.003906 205.355469 236.636719 202.753906 C 237.453125 199.28125 237.632812 195.777344 237.171875 192.242188 C 236.832031 189.636719 236.019531 189.277344 233.800781 190.480469 C 232.957031 190.941406 231.96875 191.332031 231.375 192.035156 C 229.699219 194.015625 227.105469 194.832031 225.476562 196.84375 C 225.0625 197.308594 224.566406 197.652344 223.980469 197.875 C 222.496094 198.484375 221.230469 199.429688 219.945312 200.347656 C 219.453125 200.703125 218.933594 201.007812 218.378906 201.257812 C 215.878906 202.371094 213.847656 204.070312 212.167969 206.203125 C 210.667969 208.117188 209.066406 209.964844 207.78125 212.015625 C 206.324219 214.382812 205.03125 216.84375 203.910156 219.390625 C 205.292969 218.175781 206.15625 217.640625 206.703125 216.894531 C 208.375 214.566406 210.714844 213.011719 212.941406 211.335938 C 213.097656 211.214844 213.398438 211.277344 213.636719 211.253906 C 213.570312 211.46875 213.570312 211.757812 213.425781 211.878906 C 211.394531 213.601562 209.394531 215.316406 207.578125 217.3125 C 205.121094 220.015625 202.753906 222.75 200.785156 225.816406 C 200.480469 226.292969 199.890625 226.820312 200.203125 227.699219 C 201.40625 226.855469 202.488281 226.082031 203.597656 225.339844 C 203.679688 225.28125 203.921875 225.417969 204.058594 225.507812 C 204.089844 225.53125 204.058594 225.769531 203.972656 225.839844 C 202.601562 227.210938 201.15625 228.511719 199.855469 229.945312 C 197.972656 232.019531 196.398438 234.308594 195.125 236.804688 C 195.03125 237.03125 194.972656 237.265625 194.957031 237.511719 C 194.941406 237.621094 194.980469 237.832031 195.039062 237.847656 C 195.234375 237.90625 195.515625 237.992188 195.644531 237.898438 C 197.042969 236.898438 197.738281 235.269531 199.101562 234.171875 C 202.542969 231.398438 206.460938 229.503906 210.375 227.574219 C 210.515625 227.507812 210.792969 227.710938 211.003906 227.789062 Z M 172.175781 350.941406 C 168.078125 344.636719 163.261719 339.515625 158.316406 334.5 C 158.125 334.351562 157.921875 334.21875 157.707031 334.101562 C 154.078125 331.445312 150.210938 329.1875 146.214844 327.128906 C 142.269531 325.09375 130.445312 322.191406 126.679688 321.355469 C 126.082031 321.238281 125.476562 321.175781 124.871094 321.160156 C 124.503906 321.113281 124.140625 321.148438 123.789062 321.261719 C 123.367188 321.457031 122.835938 321.695312 122.652344 322.0625 C 122.050781 323.277344 121.683594 324.566406 122.265625 325.925781 C 122.601562 326.703125 122.941406 327.488281 123.203125 328.296875 C 124.066406 331 125.800781 333.242188 127.222656 335.621094 C 130.5625 341.210938 135.125 345.46875 141.679688 347.050781 C 144.058594 347.621094 146.449219 348.03125 148.910156 347.890625 C 152.070312 347.726562 155.21875 347.855469 158.355469 348.277344 C 162.890625 348.84375 167.488281 349.027344 172.175781 350.941406 Z M 167.691406 295.378906 C 167.691406 294.660156 167.136719 294.394531 166.625 294.0625 C 164.59375 292.738281 162.550781 291.390625 160.898438 289.613281 C 158.996094 287.558594 156.75 285.867188 154.949219 283.695312 C 153.800781 282.3125 152.324219 281.175781 150.917969 280.03125 C 146.046875 276.054688 140.601562 273.21875 134.4375 271.804688 C 132.542969 271.371094 130.691406 270.746094 128.722656 270.664062 C 124.222656 270.46875 119.730469 270.773438 115.234375 270.925781 C 114.359375 270.929688 113.566406 271.199219 112.867188 271.726562 C 111.773438 272.554688 111.441406 273.347656 112.925781 274.195312 C 113.6875 274.628906 114.230469 275.257812 114.824219 275.867188 C 116.515625 277.613281 118.121094 279.464844 120.027344 280.941406 C 121.214844 281.863281 122.140625 282.917969 123.0625 284.035156 C 125.011719 286.402344 127.300781 288.449219 129.945312 289.929688 C 134.101562 292.257812 138.597656 293.785156 143.300781 294.667969 C 146.90625 295.34375 150.566406 295.445312 154.207031 295.535156 C 158.695312 295.648438 163.1875 295.449219 167.691406 295.382812 Z M 189.980469 319.789062 C 188.949219 321.105469 188.289062 322.269531 187.339844 323.101562 C 183.511719 326.472656 180.160156 330.363281 175.996094 333.386719 C 179.257812 332.007812 182.640625 331.214844 186.078125 330.589844 C 187.875 330.261719 189.660156 329.882812 191.441406 329.476562 C 193.21875 329.074219 194.996094 328.457031 196.433594 327.355469 C 200.300781 324.402344 204.375 321.675781 207.476562 317.832031 C 209.917969 314.808594 212.46875 311.898438 213.96875 308.203125 C 215.625 304.128906 217.304688 300.09375 217.597656 295.636719 C 217.6875 294.300781 217.929688 292.972656 217.519531 291.640625 C 217.390625 291.21875 217.082031 291.046875 216.726562 291.140625 C 216.027344 291.320312 215.246094 291.453125 214.691406 291.859375 C 213.5 292.742188 212.167969 293.332031 210.871094 293.980469 C 209.675781 294.582031 208.382812 295.050781 207.320312 295.828125 C 205.632812 297.078125 203.738281 297.972656 201.839844 298.6875 C 199.316406 299.636719 197.46875 301.3125 195.6875 303.152344 C 190.84375 308.128906 187.042969 313.9375 182.796875 319.394531 C 182.726562 319.488281 182.640625 319.585938 182.574219 319.683594 C 181.367188 321.652344 180.109375 323.597656 178.980469 325.609375 C 178.273438 326.863281 177.4375 328.101562 177.425781 329.664062 C 178.292969 329.484375 178.609375 328.816406 179.066406 328.238281 C 182.230469 324.242188 184.5 319.613281 187.910156 315.777344 C 190.410156 312.96875 192.40625 309.710938 195.496094 307.433594 C 195.78125 307.222656 195.96875 306.886719 196.207031 306.613281 C 198.816406 303.601562 202.1875 301.6875 205.738281 300.035156 C 205.96875 299.9375 206.207031 299.914062 206.453125 299.964844 C 206.664062 300.035156 206.839844 300.15625 206.984375 300.328125 C 207.023438 300.367188 206.964844 300.601562 206.882812 300.65625 C 206.203125 301.148438 205.5625 301.757812 204.804688 302.078125 C 201.132812 303.628906 198.222656 306.25 195.433594 308.933594 C 192.195312 312.039062 189.472656 315.652344 186.800781 319.253906 C 185.445312 321.074219 183.890625 322.84375 183.183594 325.308594 C 185.851562 323.988281 186.871094 320.933594 189.980469 319.796875 Z M 190.988281 261.625 C 192.519531 260.546875 193.664062 259.839844 194.691406 258.988281 C 196.03125 257.878906 197.566406 257.15625 199.15625 256.542969 C 201.316406 255.703125 203.574219 255.257812 205.878906 254.960938 C 211.78125 254.210938 217.679688 253.433594 223.375 251.554688 C 224.542969 251.207031 225.738281 251.027344 226.957031 251.023438 C 229.007812 250.96875 230.367188 252.15625 230.75 254.167969 C 230.855469 254.769531 230.914062 255.371094 230.921875 255.980469 C 230.933594 256.277344 231.023438 256.394531 231.339844 256.273438 C 231.453125 256.207031 231.515625 256.109375 231.535156 255.980469 C 231.605469 255.007812 231.730469 254.039062 231.699219 253.082031 C 231.632812 251.246094 230.628906 250.21875 228.777344 249.980469 C 226.835938 249.730469 224.894531 249.855469 222.953125 250.132812 C 219.585938 250.621094 216.234375 251.210938 212.863281 251.621094 C 208.507812 252.167969 204.257812 253.15625 200.109375 254.582031 C 198.953125 254.96875 197.878906 255.519531 196.890625 256.234375 C 195.226562 257.4375 193.835938 259.003906 191.925781 259.890625 C 191.582031 260.050781 191.46875 260.703125 190.988281 261.632812 Z M 205.230469 322.128906 C 205.730469 321.800781 206.238281 321.484375 206.71875 321.136719 C 209.179688 319.34375 211.429688 317.320312 213.476562 315.066406 C 217.089844 311.140625 219.796875 306.792969 220.460938 301.371094 C 220.613281 299.917969 220.863281 298.480469 221.214844 297.058594 C 221.972656 294.1875 221.199219 291.820312 218.847656 289.367188 C 219.578125 292.628906 219.042969 295.335938 218.582031 298.097656 C 217.96875 301.742188 216.640625 305.109375 215.28125 308.484375 C 214.234375 311.097656 212.796875 313.476562 210.964844 315.621094 C 209.097656 317.820312 207.289062 320.058594 205.230469 322.136719 Z M 116.402344 269.457031 C 117.988281 269.410156 119.324219 269.414062 120.648438 269.320312 C 123.816406 269.097656 127.03125 268.929688 130.117188 269.484375 C 133.5625 270.117188 137.054688 270.804688 140.285156 272.316406 C 142.042969 273.140625 143.8125 273.953125 145.574219 274.773438 C 145.683594 274.824219 145.769531 274.957031 145.875 274.980469 C 146.492188 275.121094 146.929688 275.867188 147.6875 275.511719 C 147.324219 275.042969 147.03125 274.480469 146.578125 274.117188 C 143.335938 271.496094 139.703125 269.523438 135.882812 267.898438 C 134.761719 267.421875 133.597656 267.089844 132.390625 266.898438 C 127.226562 266.070312 122.210938 266.832031 117.316406 268.550781 C 117.03125 268.660156 116.835938 269.015625 116.402344 269.457031 Z M 208.027344 209.09375 C 207.53125 208.992188 207.203125 209.355469 206.839844 209.640625 C 204.046875 211.839844 202.085938 214.777344 199.96875 217.550781 C 197.515625 220.769531 196.179688 224.585938 195.054688 228.417969 C 194.546875 230.144531 193.808594 231.855469 193.816406 233.71875 C 193.816406 234.066406 193.917969 234.203125 194.21875 234.109375 C 194.332031 234.085938 194.425781 234.03125 194.503906 233.945312 C 194.851562 233.308594 195.207031 232.671875 195.515625 232.015625 C 199.21875 224.121094 203.769531 216.683594 208.027344 209.09375 Z M 216.710938 275.96875 C 215.007812 275.65625 213.757812 276.617188 212.453125 277.132812 C 207.355469 279.15625 202.128906 280.636719 196.667969 281.128906 C 192.925781 281.460938 189.167969 281.558594 185.410156 281.785156 C 185.085938 281.804688 184.570312 281.941406 184.492188 282.152344 C 184.277344 282.734375 184.894531 282.617188 185.148438 282.632812 C 188.65625 282.863281 192.164062 283.097656 195.679688 283.234375 C 196.898438 283.261719 198.105469 283.160156 199.300781 282.933594 C 203.269531 282.28125 207.097656 281.148438 210.777344 279.527344 C 212.820312 278.605469 214.914062 277.574219 216.710938 275.96875 Z M 126.667969 289.898438 C 125.863281 288.96875 125.542969 288.414062 125.070312 288.082031 C 122.546875 286.335938 120.714844 283.878906 118.636719 281.707031 C 115.613281 278.542969 112.289062 275.773438 108.90625 273.035156 C 108.769531 272.917969 108.609375 272.851562 108.429688 272.835938 C 108.25 272.816406 108.082031 272.851562 107.921875 272.9375 C 107.746094 273.011719 107.628906 273.144531 107.574219 273.328125 C 107.515625 273.511719 107.539062 273.683594 107.636719 273.847656 C 108.042969 274.574219 108.285156 275.371094 108.945312 275.984375 C 112.039062 278.871094 115.164062 281.707031 118.585938 284.183594 C 120.34375 285.460938 122.164062 286.644531 123.617188 288.289062 C 124.277344 289.046875 125.128906 289.476562 126.660156 289.898438 Z M 165.328125 351.480469 C 165.40625 351.34375 165.464844 351.199219 165.5 351.042969 C 165.5 350.980469 165.386719 350.867188 165.304688 350.851562 C 161.199219 350.316406 157.089844 349.78125 152.976562 349.28125 C 152.488281 349.246094 152.003906 349.285156 151.527344 349.398438 C 149.957031 349.703125 148.378906 349.722656 146.800781 349.457031 C 146.5625 349.417969 146.3125 349.457031 146.070312 349.429688 C 145.726562 349.390625 145.609375 349.519531 145.746094 349.859375 C 145.789062 349.972656 145.863281 350.058594 145.96875 350.117188 C 149.730469 351.769531 153.75 352.152344 157.769531 352.203125 C 160.3125 352.246094 162.851562 351.738281 165.328125 351.480469 Z M 180.238281 319.238281 C 182.175781 318.460938 183.050781 316.957031 183.945312 315.570312 C 185.988281 312.398438 188.285156 309.429688 190.65625 306.5 C 191.484375 305.472656 192.527344 304.578125 193.738281 302.734375 C 187.007812 307.070312 182.429688 312.019531 180.238281 319.238281 Z M 162.03125 315.964844 C 162.84375 316.488281 164.148438 317.339844 165.464844 318.171875 C 165.800781 318.386719 166.242188 318.152344 166.1875 317.785156 C 166.0625 316.835938 165.894531 315.894531 165.746094 314.949219 C 165.488281 313.332031 164.375 312.480469 162.996094 311.859375 C 162.027344 311.421875 161.011719 312.054688 160.921875 313.140625 C 160.847656 314.03125 161.050781 314.820312 162.03125 315.964844 Z M 159.683594 323.53125 C 159.863281 323.6875 160.0625 323.816406 160.277344 323.921875 C 162.238281 324.601562 163.726562 323.460938 165.253906 322.5625 C 165.398438 322.476562 165.371094 321.859375 165.230469 321.589844 C 164.753906 320.6875 163.792969 320.347656 162.957031 319.902344 C 161.984375 319.386719 161.089844 319.691406 160.289062 320.335938 C 159.484375 320.980469 159.171875 321.875 159.378906 322.902344 C 159.453125 323.128906 159.554688 323.339844 159.683594 323.539062 Z M 187.738281 351.007812 C 186.15625 352.210938 186.003906 352.433594 185.734375 353.867188 C 185.554688 354.828125 186.257812 355.554688 187.210938 355.394531 C 189.09375 355.082031 190.691406 353.4375 191 351.503906 C 191.113281 350.792969 190.417969 350.113281 189.679688 350.128906 C 188.886719 350.148438 188.304688 350.554688 187.738281 351.007812 Z M 211.835938 233.445312 C 208 234.398438 204.703125 235.160156 201.71875 236.820312 C 201.105469 237.164062 200.230469 236.992188 199.851562 237.78125 C 200.601562 238.375 201.382812 237.957031 202.121094 237.800781 C 203.308594 237.570312 204.476562 237.253906 205.613281 236.84375 C 207.621094 236.078125 209.746094 235.492188 211.835938 233.445312 Z M 175.523438 247.679688 C 175.902344 248.117188 176.125 248.40625 176.382812 248.664062 C 176.535156 248.855469 176.726562 248.996094 176.953125 249.089844 C 177.410156 249.230469 177.875 249.285156 178.351562 249.253906 C 178.910156 249.175781 179.515625 248.238281 179.53125 247.566406 C 179.546875 247.316406 179.5 247.082031 179.386719 246.863281 C 179.273438 246.640625 179.109375 246.464844 178.898438 246.335938 C 178.074219 245.835938 177.269531 245.296875 176.277344 245.140625 C 175.597656 245.035156 174.835938 245.863281 175.058594 246.539062 C 175.203125 246.992188 175.417969 247.425781 175.523438 247.679688 Z M 184.308594 350.308594 C 186.105469 349.65625 186.578125 348.195312 186.324219 346.363281 C 186.238281 345.761719 185.414062 345.390625 184.933594 345.722656 C 183.1875 346.933594 182.585938 348.675781 182.636719 350.714844 C 182.636719 351.003906 183.242188 351.316406 183.464844 351.132812 C 183.742188 350.90625 183.980469 350.632812 184.308594 350.308594 Z M 164.261719 256.910156 C 164.347656 257.175781 164.457031 257.207031 164.601562 257 C 164.660156 256.917969 164.75 256.84375 164.773438 256.75 C 165.691406 252.847656 166.46875 248.914062 166.761719 244.914062 C 166.78125 244.648438 167.0625 244.097656 166.394531 244.179688 C 166.242188 244.199219 166.042969 244.515625 166.007812 244.71875 C 165.453125 247.582031 164.894531 250.4375 164.40625 253.308594 C 164.222656 254.382812 164.210938 255.488281 164.136719 256.578125 C 164.125 256.683594 164.214844 256.796875 164.261719 256.910156 Z M 181.707031 240.394531 C 181.554688 240.589844 181.296875 240.753906 181.265625 240.957031 C 180.964844 242.792969 181.183594 244.566406 181.921875 246.273438 C 181.996094 246.441406 182.3125 246.523438 182.527344 246.605469 C 182.582031 246.625 182.722656 246.511719 182.78125 246.425781 C 184.050781 244.507812 183.792969 242.546875 182.921875 240.570312 C 182.738281 240.132812 182.007812 240.042969 181.707031 240.394531 Z M 227.851562 191.636719 C 227.230469 192.191406 226.65625 192.484375 226.597656 193.175781 C 226.585938 193.292969 226.597656 193.480469 226.664062 193.515625 C 227.097656 193.734375 226.484375 193.902344 226.878906 193.625 C 227.765625 193.007812 228.625 192.335938 229.472656 191.675781 C 229.542969 191.617188 229.558594 191.492188 229.601562 191.394531 C 229.382812 191.316406 229.132812 191.128906 228.949219 191.179688 C 228.570312 191.300781 228.203125 191.453125 227.851562 191.636719 Z M 231.976562 189.539062 C 233.269531 189.054688 234.269531 188.167969 235.5625 187.855469 C 235.640625 187.835938 235.65625 187.546875 235.699219 187.382812 C 235.582031 187.363281 235.464844 187.351562 235.347656 187.34375 C 233.734375 187.347656 232.863281 188.511719 231.976562 189.539062 Z M 231.976562 189.539062" fill="#423f32"/></g><path fill-rule="nonzero" fill-opacity="1" d="M 211.007812 227.789062 C 212.585938 226.453125 214.238281 225.226562 216.140625 224.371094 C 216.691406 224.117188 217.191406 223.785156 217.640625 223.371094 C 221.523438 219.878906 224.296875 215.679688 225.476562 210.546875 C 226.046875 208.0625 226.445312 205.539062 226.957031 203.042969 C 227.035156 202.828125 227.1875 202.695312 227.410156 202.652344 C 227.660156 202.679688 227.847656 202.800781 227.976562 203.019531 C 228.308594 203.96875 228.183594 204.957031 227.976562 205.902344 C 227.539062 207.917969 226.984375 209.910156 226.527344 211.917969 C 225.921875 214.445312 224.804688 216.722656 223.175781 218.75 C 221.171875 221.300781 218.988281 223.847656 216.03125 225.40625 C 214.640625 226.140625 213.292969 226.949219 211.988281 227.835938 C 211.835938 227.9375 211.667969 227.976562 211.484375 227.953125 C 211.300781 227.933594 211.144531 227.855469 211.019531 227.71875 Z M 211.007812 227.789062" fill="#423f32"/><path fill-rule="nonzero" fill-opacity="1" d="M 189.84375 268.464844 C 189.757812 268.300781 189.730469 268.125 189.769531 267.941406 C 189.804688 267.757812 189.894531 267.605469 190.039062 267.484375 C 192.402344 265.585938 194.597656 263.492188 197.429688 262.191406 C 199.175781 261.390625 200.824219 260.375 202.621094 259.667969 C 202.699219 259.636719 202.890625 259.695312 202.90625 259.746094 C 202.9375 259.871094 202.921875 259.992188 202.859375 260.101562 C 202.425781 260.898438 201.625 261.347656 200.871094 261.621094 C 197.046875 263.027344 193.792969 265.320312 190.667969 267.851562 C 190.375 268.066406 190.066406 268.265625 189.75 268.449219 Z M 189.84375 268.464844" fill="#423f32"/><path fill-rule="nonzero" fill-opacity="1" d="M 151.601562 252.761719 C 149.957031 250.515625 150.570312 248.132812 151.335938 245.828125 C 151.628906 244.949219 152.515625 244.308594 153.523438 244.082031 C 153.761719 244.0625 153.957031 244.140625 154.113281 244.320312 C 154.203125 244.53125 154.191406 244.738281 154.082031 244.9375 C 153.945312 245.140625 153.777344 245.300781 153.570312 245.425781 C 152.136719 246.449219 151.808594 247.9375 151.710938 249.574219 C 151.648438 250.632812 152.253906 251.734375 151.515625 252.746094 Z M 151.601562 252.761719" fill="#423f32"/><path fill-rule="nonzero" fill-opacity="1" d="M 151.519531 252.746094 C 152.488281 255.074219 152.839844 256.820312 152.804688 259.175781 L 152.90625 259.175781 C 151.414062 257.355469 151.355469 255.175781 151.355469 252.980469 C 151.355469 252.902344 151.519531 252.824219 151.605469 252.75 Z M 151.519531 252.746094" fill="#423f32"/><path fill-rule="nonzero" fill-opacity="1" d="M 161.953125 341.394531 C 160.277344 340.605469 159.375 338.773438 157.871094 337.550781 C 154.707031 334.996094 151.148438 333.25 147.195312 332.308594 C 145.898438 331.992188 144.609375 331.640625 143.335938 331.238281 C 143.03125 331.144531 142.792969 330.800781 142.558594 330.550781 C 142.480469 330.449219 142.464844 330.335938 142.503906 330.214844 C 142.789062 329.828125 142.175781 329.957031 142.664062 329.980469 C 142.78125 329.96875 142.902344 329.96875 143.023438 329.980469 C 146.4375 330.835938 149.847656 331.671875 153.085938 333.140625 C 157.054688 334.945312 160.269531 337.605469 162.960938 340.984375 C 164.402344 342.785156 165.632812 344.757812 167.359375 346.328125 C 167.46875 346.515625 167.472656 346.703125 167.371094 346.894531 C 167.171875 347.035156 166.949219 347.105469 166.707031 347.109375 C 165.640625 347.203125 164.867188 346.527344 164.085938 345.984375 C 163 345.230469 161.996094 344.347656 160.949219 343.53125 C 158.753906 341.8125 156.460938 340.230469 153.964844 338.980469 C 153.890625 338.945312 153.867188 338.789062 153.855469 338.671875 C 153.824219 338.425781 153.992188 338.320312 154.316406 338.386719 C 155.417969 338.605469 156.308594 339.230469 157.230469 339.816406 C 158.65625 340.726562 160.113281 341.585938 161.578125 342.4375 C 161.820312 342.539062 162.050781 342.523438 162.269531 342.386719 C 162.578125 342.089844 162.351562 341.578125 161.953125 341.394531 Z M 161.953125 341.394531" fill="#423f32"/><path fill-rule="nonzero" fill-opacity="1" d="M 133.796875 337.25 C 134.324219 336.945312 134.664062 337.304688 135.0625 337.578125 C 137.957031 339.578125 141.089844 341.121094 144.363281 342.414062 C 146.898438 343.414062 149.554688 343.578125 152.203125 343.855469 C 153.40625 343.984375 154.625 344.070312 155.554688 344.992188 C 155.628906 345.085938 155.6875 345.191406 155.726562 345.304688 C 155.875 345.640625 155.761719 345.785156 155.394531 345.730469 C 155.273438 345.734375 155.15625 345.722656 155.039062 345.695312 C 153.996094 345.246094 152.875 345.304688 151.808594 345.347656 C 148.9375 345.476562 146.265625 344.492188 143.714844 343.546875 C 140.804688 342.464844 138.171875 340.636719 135.445312 339.082031 C 134.695312 338.65625 134.210938 337.929688 133.8125 337.167969 Z M 133.796875 337.25" fill="#423f32"/><path fill-rule="nonzero" fill-opacity="1" d="M 133.8125 337.164062 C 133.695312 337.195312 133.539062 337.296875 133.46875 337.253906 C 130.441406 335.386719 128.007812 332.953125 126.375 329.773438 C 126.296875 329.621094 126.410156 329.292969 126.542969 329.144531 C 126.617188 329.066406 126.929688 329.160156 127.105469 329.234375 C 127.179688 329.265625 127.164062 329.464844 127.222656 329.566406 C 128.148438 331.296875 129.367188 332.785156 130.886719 334.03125 C 132.03125 334.953125 133 336.027344 133.796875 337.261719 Z M 133.8125 337.164062" fill="#423f32"/><path fill-rule="nonzero" fill-opacity="1" d="M 146.617188 292.683594 C 147.199219 292.5625 147.78125 292.382812 148.363281 292.339844 C 150.402344 292.195312 152.4375 292.101562 154.488281 291.984375 C 155.070312 291.953125 155.859375 292.179688 156.179688 291.640625 C 156.667969 290.824219 155.753906 290.402344 155.351562 289.878906 C 154.261719 288.4375 153.136719 287.019531 152.007812 285.609375 C 150.882812 284.195312 149.71875 282.828125 148.269531 281.707031 C 147.621094 281.207031 147.1875 280.429688 146.65625 279.777344 L 146.644531 279.847656 C 148.03125 279.585938 148.847656 280.523438 149.6875 281.347656 C 150.1875 281.882812 150.648438 282.449219 151.070312 283.046875 C 153.546875 286.265625 156.582031 288.8125 160.179688 290.695312 C 161.035156 291.144531 161.839844 291.683594 162.65625 292.199219 C 162.738281 292.25 162.765625 292.394531 162.796875 292.507812 C 162.894531 292.828125 162.765625 292.96875 162.429688 292.988281 C 160.011719 293.128906 157.578125 293.40625 155.167969 293.375 C 152.757812 293.347656 150.316406 293.273438 147.898438 293.519531 C 147.371094 293.582031 146.9375 293.417969 146.589844 293.019531 Z M 146.617188 292.683594" fill="#423f32"/><path fill-rule="nonzero" fill-opacity="1" d="M 146.652344 279.78125 C 145.328125 279.996094 144.40625 279.058594 143.417969 278.503906 C 139.695312 276.40625 135.816406 274.832031 131.53125 274.402344 C 131.0625 274.355469 130.609375 274.148438 130.160156 273.988281 C 130.097656 273.96875 130.058594 273.792969 130.0625 273.699219 C 130.0625 273.605469 130.132812 273.425781 130.167969 273.429688 C 132.34375 273.523438 134.503906 273.703125 136.613281 274.316406 C 140.023438 275.308594 142.992188 277.171875 145.976562 279 C 146.261719 279.175781 146.421875 279.558594 146.640625 279.847656 Z M 146.652344 279.78125" fill="#423f32"/><path fill-rule="nonzero" fill-opacity="1" d="M 146.582031 293.03125 C 146.242188 293.140625 145.894531 293.367188 145.570312 293.339844 C 142.066406 293.03125 138.710938 292.175781 135.589844 290.5 C 135.4375 290.417969 135.398438 290.109375 135.308594 289.917969 C 135.503906 289.863281 135.734375 289.707031 135.867188 289.769531 C 139.28125 291.371094 142.964844 291.960938 146.613281 292.679688 Z M 146.582031 293.03125" fill="#423f32"/><path fill-rule="nonzero" fill-opacity="1" d="M 126.226562 284.542969 C 124.832031 284.792969 124.152344 283.574219 123.230469 282.960938 C 122.175781 282.257812 121.359375 281.195312 120.453125 280.277344 C 120.109375 279.929688 120.488281 280.410156 120.539062 279.929688 C 120.539062 279.835938 120.902344 279.753906 121.105469 279.71875 C 121.234375 279.710938 121.34375 279.753906 121.433594 279.84375 C 122.628906 281.183594 123.9375 282.394531 125.363281 283.484375 C 125.726562 283.765625 125.933594 284.242188 126.210938 284.628906 Z M 126.226562 284.542969" fill="#423f32"/><path fill-rule="nonzero" fill-opacity="1" d="M 126.203125 284.628906 C 126.3125 284.578125 126.445312 284.460938 126.527344 284.488281 C 128.222656 285.085938 129.660156 286.117188 131.027344 287.25 C 131.15625 287.355469 131.117188 287.660156 131.15625 287.875 C 131.035156 287.886719 130.914062 287.875 130.800781 287.839844 C 129.15625 286.898438 127.320312 286.234375 126.21875 284.539062 Z M 126.203125 284.628906" fill="#423f32"/><path fill-rule="nonzero" fill-opacity="1" d="M 182.527344 330.148438 C 182.550781 330.027344 182.59375 329.914062 182.660156 329.808594 C 183.59375 328.753906 184.988281 328.464844 186.1875 327.996094 C 188.96875 326.910156 191.191406 325.039062 193.511719 323.296875 C 196.648438 320.941406 199.074219 317.949219 201.210938 314.667969 C 202.679688 312.429688 204.121094 310.207031 205.179688 307.722656 C 205.246094 307.5625 205.566406 307.457031 205.777344 307.4375 C 205.855469 307.4375 206.023438 307.753906 206.035156 307.933594 C 206.046875 308.179688 205.996094 308.414062 205.890625 308.636719 C 205.363281 309.730469 204.898438 310.871094 204.253906 311.890625 C 203.019531 313.832031 201.777344 315.789062 200.347656 317.59375 C 199.15625 319.125 197.863281 320.5625 196.464844 321.914062 C 194.703125 323.589844 192.707031 324.875 190.804688 326.328125 C 188.9375 327.753906 186.761719 328.535156 184.8125 329.757812 C 184.230469 330.121094 183.4375 330.132812 182.738281 330.289062 C 182.675781 330.304688 182.597656 330.199219 182.527344 330.148438 Z M 182.527344 330.148438" fill="#423f32"/></svg>