<?xml version="1.0" encoding="UTF-8"?>
<svg version="1.1" xmlns="http://www.w3.org/2000/svg" width="100" height="100">
<path d="M0 0 C2.5 1.5625 2.5 1.5625 4 4 C4.25 7.75 4.25 7.75 4 11 C4.66 11.04125 5.32 11.0825 6 11.125 C12.06409689 12.89369493 16.63733073 16.71291972 19.875 22.125 C22.57229644 28.0303766 22.77364112 34.2033112 23.26757812 40.58862305 C23.97986529 49.28391763 25.60977086 57.60977086 32 64 C32.78503906 64.57234375 32.78503906 64.57234375 33.5859375 65.15625 C36.75779603 67.47930131 37.91164054 68.58765586 38.75 72.5 C37.98419233 76.07376915 37.21719632 77.78629032 34.2265625 79.93359375 C26.19188021 83.78178369 16.78882084 84.54676996 8 84 C8.05800781 84.58007812 8.11601563 85.16015625 8.17578125 85.7578125 C8.42707555 90.10879376 8.49455454 93.04980246 5.625 96.5 C1.61196753 100.32193569 -1.06268836 100.39055607 -6.44921875 100.359375 C-10.55868504 99.78039966 -12.21349577 98.00085071 -15 95 C-16.20272819 92.59454362 -16.10071472 91.05003047 -16.0625 88.375 C-16.05347656 87.55773437 -16.04445313 86.74046875 -16.03515625 85.8984375 C-16.02355469 85.27195312 -16.01195313 84.64546875 -16 84 C-16.83917969 84.05220703 -16.83917969 84.05220703 -17.6953125 84.10546875 C-26.21007495 84.39294465 -36.72996597 83.88020216 -43.875 78.75 C-46 76 -46 76 -46.9375 72.6875 C-45.68229847 67.750374 -43.09438457 66.23511976 -39.26171875 63.0703125 C-31.75214695 56.19626578 -31.99764195 45.49642194 -31 36 C-30.02779642 27.26097008 -28.04153811 20.06944569 -20.93359375 14.33203125 C-15.86554622 11 -15.86554622 11 -12 11 C-12.0825 9.9275 -12.165 8.855 -12.25 7.75 C-12 4 -12 4 -10.5 1.5625 C-6.97873756 -0.63828902 -4.04560357 -0.80414661 0 0 Z M-6 5 C-6.33 6.65 -6.66 8.3 -7 10 C-4.525 10.495 -4.525 10.495 -2 11 C-1.67 9.35 -1.34 7.7 -1 6 C-2.65 5.67 -4.3 5.34 -6 5 Z M-21.875 22.6875 C-25.79239849 28.79403295 -25.98339805 35.26657337 -26.375 42.375 C-27.1278181 53.0273761 -29.95066696 61.71638078 -38 69 C-38.99 69.66 -39.98 70.32 -41 71 C-40.78269092 72.96094335 -40.78269092 72.96094335 -40 75 C-38.36175082 76.10057216 -38.36175082 76.10057216 -36.3125 76.6875 C-35.64863281 76.91824219 -34.98476563 77.14898437 -34.30078125 77.38671875 C-15.71389843 82.34111706 11.75522033 82.72514806 30 76 C30.99 75.34 31.98 74.68 33 74 C33 73.01 33 72.02 33 71 C31.36053896 69.37205488 31.36053896 69.37205488 29.25 67.8125 C21.99121126 61.72076033 19.32594491 53.4749762 18.47265625 44.15234375 C18.25694724 41.53415088 18.06095737 38.91552976 17.87695312 36.29492188 C17.2784981 29.17276796 15.74117649 24.04012068 10.1875 19.1875 C6.74756707 16.3582798 4.55634098 15.08934002 0 15 C-0.83660156 14.92910156 -1.67320313 14.85820312 -2.53515625 14.78515625 C-11.27816191 14.2920844 -15.63025246 16.85001861 -21.875 22.6875 Z M-11 85 C-11.39588785 88.56299065 -11.42667508 90.37639795 -9.375 93.375 C-6.28813568 95.48706506 -4.6717087 95.61195145 -1 95 C1.5 93.5 1.5 93.5 3 91 C3.41746608 87.87364791 3.41746608 87.87364791 3 85 C1.91830354 83.69452245 1.91830354 83.69452245 -0.6875 83.8671875 C-1.780625 83.86976562 -2.87375 83.87234375 -4 83.875 C-5.093125 83.87242188 -6.18625 83.86984375 -7.3125 83.8671875 C-9.91830354 83.69452245 -9.91830354 83.69452245 -11 85 Z " fill="#000000" transform="translate(54,0)"/>
</svg>
